<svg width="20" height="21" viewBox="0 0 20 21" fill="none" xmlns="http://www.w3.org/2000/svg">
<rect x="0.00292969" y="0.0639648" width="20" height="20" rx="8" fill="#29B24A"/>
<g clip-path="url(#clip0_3222_77583)">
<rect x="1.43164" y="1.49243" width="17.1429" height="17.1429" rx="2.85714" fill="#29B24A"/>
<rect x="3.57422" y="3.99243" width="12.8571" height="12.8571" rx="2.85714" fill="white"/>
<g clip-path="url(#clip1_3222_77583)">
<path d="M13.9834 11.8465C11.1037 11.8614 10.6379 13.6868 10.4827 15.2304L10.4121 15.913H9.83329L9.76272 15.2304C9.60747 13.6868 9.12754 11.8614 6.34667 11.8465C5.88086 10.8372 5.68323 10.021 5.68323 9.10081C5.68323 6.80042 7.47597 4.64835 10.1297 4.64835C12.7835 4.64835 14.548 6.7855 14.548 9.11572C14.548 10.021 14.4633 10.8372 13.9834 11.8465ZM10.1015 1.85815C5.72562 1.85815 2.14014 5.62792 2.14014 10.2435C2.14014 14.8741 5.72562 18.6438 10.1015 18.6438C14.5198 18.6438 18.0911 14.8741 18.0911 10.2435C18.0911 5.62793 14.5198 1.85815 10.1015 1.85815Z" fill="#29B24A"/>
</g>
</g>
<defs>
<clipPath id="clip0_3222_77583">
<rect x="1.43164" y="1.49243" width="17.1429" height="17.1429" rx="2.85714" fill="white"/>
</clipPath>
<clipPath id="clip1_3222_77583">
<rect width="51.0714" height="16.7857" fill="white" transform="translate(2.146 1.84961)"/>
</clipPath>
</defs>
</svg>
