<svg width="25" height="24" viewBox="0 0 25 24" fill="none" xmlns="http://www.w3.org/2000/svg">
<mask id="path-1-inside-1_5497_1357" fill="white">
<path d="M13.0035 1C11.7711 1.00093 10.5894 1.49094 9.7179 2.36242C8.84642 3.2339 8.3564 4.41562 8.35547 5.64808V14.5425C8.35547 14.5425 15.4456 9.77461 16.2843 8.93239C16.9349 8.28323 17.3783 7.45565 17.5583 6.55439C17.7384 5.65313 17.647 4.71872 17.2957 3.86943C16.9445 3.02014 16.3491 2.29415 15.5851 1.78336C14.821 1.27258 13.9226 0.999953 13.0035 1Z"/>
</mask>
<path d="M8.35547 5.64808L6.35547 5.64656V5.64808H8.35547ZM8.35547 14.5425H6.35547V18.2976L9.47152 16.2021L8.35547 14.5425ZM16.2843 8.93239L14.8717 7.5166L14.8672 7.52114L16.2843 8.93239ZM13.002 -0.999999C11.2397 -0.998665 9.54986 -0.297977 8.30368 0.948206L11.1321 3.77663C11.6289 3.27985 12.3025 3.00053 13.0051 3L13.002 -0.999999ZM8.30368 0.948206C7.05751 2.19438 6.3568 3.88419 6.35547 5.64656L10.3555 5.64959C10.356 4.94705 10.6353 4.27342 11.1321 3.77663L8.30368 0.948206ZM6.35547 5.64808V14.5425H10.3555V5.64808H6.35547ZM8.35547 14.5425C9.47152 16.2021 9.47157 16.2021 9.47165 16.2021C9.47171 16.202 9.47181 16.2019 9.47193 16.2019C9.47218 16.2017 9.47253 16.2015 9.47299 16.2012C9.47391 16.2005 9.47526 16.1996 9.47702 16.1984C9.48055 16.1961 9.48577 16.1926 9.49261 16.188C9.5063 16.1787 9.52651 16.1651 9.55284 16.1474C9.6055 16.1119 9.68264 16.0599 9.78099 15.9935C9.97767 15.8607 10.2593 15.6702 10.5998 15.4391C11.2803 14.977 12.1977 14.3514 13.1423 13.6987C14.0852 13.0471 15.0634 12.363 15.8628 11.7855C16.5889 11.2609 17.3499 10.6967 17.7015 10.3436L14.8672 7.52114C14.8678 7.5205 14.7653 7.61309 14.483 7.83029C14.2316 8.02376 13.9041 8.26588 13.5204 8.5431C12.7545 9.0964 11.8029 9.76215 10.8684 10.4079C9.93574 11.0524 9.02809 11.6714 8.35306 12.1296C8.01572 12.3587 7.73687 12.5472 7.54254 12.6785C7.44538 12.7441 7.36937 12.7953 7.31776 12.8301C7.29195 12.8475 7.27225 12.8608 7.25906 12.8696C7.25246 12.8741 7.24749 12.8774 7.2442 12.8796C7.24256 12.8807 7.24133 12.8816 7.24053 12.8821C7.24013 12.8824 7.23984 12.8826 7.23965 12.8827C7.23956 12.8828 7.2395 12.8828 7.23945 12.8828C7.23942 12.8828 7.23941 12.8829 8.35547 14.5425ZM17.697 10.3482C18.6277 9.41948 19.262 8.23553 19.5196 6.94618L15.5971 6.1626C15.4946 6.67576 15.2421 7.14698 14.8717 7.5166L17.697 10.3482ZM19.5196 6.94618C19.7772 5.65683 19.6464 4.32005 19.1439 3.10504L15.4476 4.63382C15.6476 5.11739 15.6996 5.64943 15.5971 6.1626L19.5196 6.94618ZM19.1439 3.10504C18.6414 1.89003 17.7897 0.851428 16.6966 0.12069L14.4735 3.44604C14.9086 3.73687 15.2476 4.15024 15.4476 4.63382L19.1439 3.10504ZM16.6966 0.12069C15.6036 -0.61005 14.3183 -1.00007 13.0034 -1L13.0036 3C13.5269 2.99997 14.0385 3.1552 14.4735 3.44604L16.6966 0.12069Z" fill="#282D3C" mask="url(#path-1-inside-1_5497_1357)"/>
<mask id="path-3-inside-2_5497_1357" fill="white">
<path d="M17.6482 18.3484C17.6489 19.268 17.3768 20.1672 16.8663 20.9321C16.3559 21.697 15.63 22.2933 14.7805 22.6455C13.931 22.9978 12.9962 23.0901 12.0942 22.9109C11.1922 22.7316 10.3637 22.2889 9.71344 21.6386C9.06318 20.9884 8.62043 20.1598 8.44119 19.2579C8.26196 18.3559 8.3543 17.421 8.70654 16.5716C9.05878 15.7221 9.65508 14.9962 10.42 14.4857C11.1849 13.9753 12.084 13.7032 13.0036 13.7039C14.2352 13.7048 15.416 14.1944 16.2868 15.0652C17.1576 15.9361 17.6473 17.1169 17.6482 18.3484Z"/>
</mask>
<path d="M17.6482 18.3484C17.6489 19.268 17.3768 20.1672 16.8663 20.9321C16.3559 21.697 15.63 22.2933 14.7805 22.6455C13.931 22.9978 12.9962 23.0901 12.0942 22.9109C11.1922 22.7316 10.3637 22.2889 9.71344 21.6386C9.06318 20.9884 8.62043 20.1598 8.44119 19.2579C8.26196 18.3559 8.3543 17.421 8.70654 16.5716C9.05878 15.7221 9.65508 14.9962 10.42 14.4857C11.1849 13.9753 12.084 13.7032 13.0036 13.7039C14.2352 13.7048 15.416 14.1944 16.2868 15.0652C17.1576 15.9361 17.6473 17.1169 17.6482 18.3484Z" fill="#282D3C"/>
<path d="M13.0036 13.7039L13.0052 11.7039L13.0036 13.7039ZM15.6482 18.3499C15.6486 18.8738 15.4936 19.3861 15.2028 19.8219L18.5299 22.0423C19.26 20.9482 19.6492 19.6622 19.6482 18.3469L15.6482 18.3499ZM15.2028 19.8219C14.9119 20.2577 14.4984 20.5974 14.0144 20.7981L15.5466 24.493C16.7615 23.9892 17.7998 23.1363 18.5299 22.0423L15.2028 19.8219ZM14.0144 20.7981C13.5305 20.9987 12.9979 21.0513 12.484 20.9492L11.7044 24.8725C12.9945 25.1289 14.3316 24.9968 15.5466 24.493L14.0144 20.7981ZM12.484 20.9492C11.9701 20.8471 11.4981 20.5949 11.1277 20.2244L8.29922 23.0528C9.22927 23.9829 10.4143 24.6162 11.7044 24.8725L12.484 20.9492ZM11.1277 20.2244C10.7572 19.8539 10.505 19.3819 10.4028 18.8681L6.47955 19.6477C6.7359 20.9377 7.36917 22.1228 8.29922 23.0528L11.1277 20.2244ZM10.4028 18.8681C10.3007 18.3542 10.3533 17.8216 10.554 17.3376L6.85907 15.8055C6.35527 17.0205 6.22319 18.3576 6.47955 19.6477L10.4028 18.8681ZM10.554 17.3376C10.7547 16.8537 11.0944 16.4401 11.5302 16.1493L9.30979 12.8222C8.21574 13.5523 7.36287 14.5905 6.85907 15.8055L10.554 17.3376ZM11.5302 16.1493C11.966 15.8585 12.4782 15.7035 13.0021 15.7039L13.0052 11.7039C11.6899 11.7029 10.4038 12.092 9.30979 12.8222L11.5302 16.1493ZM13.0021 15.7039C13.7037 15.7044 14.3765 15.9833 14.8726 16.4795L17.701 13.651C16.4555 12.4055 14.7666 11.7052 13.0052 11.7039L13.0021 15.7039ZM14.8726 16.4795C15.3687 16.9756 15.6477 17.6483 15.6482 18.3499L19.6482 18.3469C19.6469 16.5855 18.9465 14.8965 17.701 13.651L14.8726 16.4795Z" fill="#282D3C" mask="url(#path-3-inside-2_5497_1357)"/>
<g clip-path="url(#clip0_5497_1357)">
<path d="M22 12L22.94 9.94L25 9L22.94 8.06L22 6L21.06 8.06L19 9L21.06 9.94L22 12Z" fill="#282D3C"/>
</g>
<g clip-path="url(#clip1_5497_1357)">
<path d="M3 20L3.94 17.94L6 17L3.94 16.06L3 14L2.06 16.06L0 17L2.06 17.94L3 20Z" fill="#282D3C"/>
</g>
<defs>
<clipPath id="clip0_5497_1357">
<rect width="6" height="6" fill="white" transform="translate(19 6)"/>
</clipPath>
<clipPath id="clip1_5497_1357">
<rect width="6" height="6" fill="white" transform="translate(0 14)"/>
</clipPath>
</defs>
</svg>
