<svg width="200" height="201" viewBox="0 0 200 201" fill="none" xmlns="http://www.w3.org/2000/svg">
<g clip-path="url(#clip0_3572_20742)">
<path d="M200 0.385742H0V200.386H200V0.385742Z" fill="white"/>
<path d="M17.803 12.8857H12.5V18.1888H17.803V12.8857Z" fill="black"/>
<path d="M23.1061 12.8857H17.803V18.1888H23.1061V12.8857Z" fill="black"/>
<path d="M28.4091 12.8857H23.1061V18.1888H28.4091V12.8857Z" fill="black"/>
<path d="M33.7121 12.8857H28.4091V18.1888H33.7121V12.8857Z" fill="black"/>
<path d="M39.0152 12.8857H33.7121V18.1888H39.0152V12.8857Z" fill="black"/>
<path d="M44.3182 12.8857H39.0152V18.1888H44.3182V12.8857Z" fill="black"/>
<path d="M49.6212 12.8857H44.3182V18.1888H49.6212V12.8857Z" fill="black"/>
<path d="M60.2273 12.8857H54.9242V18.1888H60.2273V12.8857Z" fill="black"/>
<path d="M76.1364 12.8857H70.8333V18.1888H76.1364V12.8857Z" fill="black"/>
<path d="M81.4394 12.8857H76.1364V18.1888H81.4394V12.8857Z" fill="black"/>
<path d="M92.0455 12.8857H86.7424V18.1888H92.0455V12.8857Z" fill="black"/>
<path d="M107.955 12.8857H102.652V18.1888H107.955V12.8857Z" fill="black"/>
<path d="M118.561 12.8857H113.258V18.1888H118.561V12.8857Z" fill="black"/>
<path d="M123.864 12.8857H118.561V18.1888H123.864V12.8857Z" fill="black"/>
<path d="M129.167 12.8857H123.864V18.1888H129.167V12.8857Z" fill="black"/>
<path d="M145.076 12.8857H139.773V18.1888H145.076V12.8857Z" fill="black"/>
<path d="M155.682 12.8857H150.379V18.1888H155.682V12.8857Z" fill="black"/>
<path d="M160.985 12.8857H155.682V18.1888H160.985V12.8857Z" fill="black"/>
<path d="M166.288 12.8857H160.985V18.1888H166.288V12.8857Z" fill="black"/>
<path d="M171.591 12.8857H166.288V18.1888H171.591V12.8857Z" fill="black"/>
<path d="M176.894 12.8857H171.591V18.1888H176.894V12.8857Z" fill="black"/>
<path d="M182.197 12.8857H176.894V18.1888H182.197V12.8857Z" fill="black"/>
<path d="M187.5 12.8857H182.197V18.1888H187.5V12.8857Z" fill="black"/>
<path d="M17.803 18.1888H12.5V23.4918H17.803V18.1888Z" fill="black"/>
<path d="M49.6212 18.1888H44.3182V23.4918H49.6212V18.1888Z" fill="black"/>
<path d="M70.8333 18.1888H65.5303V23.4918H70.8333V18.1888Z" fill="black"/>
<path d="M86.7424 18.1888H81.4394V23.4918H86.7424V18.1888Z" fill="black"/>
<path d="M97.3485 18.1888H92.0455V23.4918H97.3485V18.1888Z" fill="black"/>
<path d="M102.652 18.1888H97.3485V23.4918H102.652V18.1888Z" fill="black"/>
<path d="M118.561 18.1888H113.258V23.4918H118.561V18.1888Z" fill="black"/>
<path d="M123.864 18.1888H118.561V23.4918H123.864V18.1888Z" fill="black"/>
<path d="M129.167 18.1888H123.864V23.4918H129.167V18.1888Z" fill="black"/>
<path d="M145.076 18.1888H139.773V23.4918H145.076V18.1888Z" fill="black"/>
<path d="M155.682 18.1888H150.379V23.4918H155.682V18.1888Z" fill="black"/>
<path d="M187.5 18.1888H182.197V23.4918H187.5V18.1888Z" fill="black"/>
<path d="M17.803 23.4918H12.5V28.7948H17.803V23.4918Z" fill="black"/>
<path d="M28.4091 23.4918H23.1061V28.7948H28.4091V23.4918Z" fill="black"/>
<path d="M33.7121 23.4918H28.4091V28.7948H33.7121V23.4918Z" fill="black"/>
<path d="M39.0152 23.4918H33.7121V28.7948H39.0152V23.4918Z" fill="black"/>
<path d="M49.6212 23.4918H44.3182V28.7948H49.6212V23.4918Z" fill="black"/>
<path d="M81.4394 23.4918H76.1364V28.7948H81.4394V23.4918Z" fill="black"/>
<path d="M102.652 23.4918H97.3485V28.7948H102.652V23.4918Z" fill="black"/>
<path d="M107.955 23.4918H102.652V28.7948H107.955V23.4918Z" fill="black"/>
<path d="M113.258 23.4918H107.955V28.7948H113.258L113.258 23.4918Z" fill="black"/>
<path d="M123.864 23.4918H118.561V28.7948H123.864V23.4918Z" fill="black"/>
<path d="M129.167 23.4918H123.864V28.7948H129.167V23.4918Z" fill="black"/>
<path d="M134.47 23.4918H129.167V28.7948H134.47V23.4918Z" fill="black"/>
<path d="M155.682 23.4918H150.379V28.7948H155.682V23.4918Z" fill="black"/>
<path d="M166.288 23.4918H160.985V28.7948H166.288V23.4918Z" fill="black"/>
<path d="M171.591 23.4918H166.288V28.7948H171.591V23.4918Z" fill="black"/>
<path d="M176.894 23.4918H171.591V28.7948H176.894V23.4918Z" fill="black"/>
<path d="M187.5 23.4918H182.197V28.7948H187.5V23.4918Z" fill="black"/>
<path d="M17.803 28.7948H12.5V34.0979H17.803V28.7948Z" fill="black"/>
<path d="M28.4091 28.7948H23.1061V34.0979H28.4091V28.7948Z" fill="black"/>
<path d="M33.7121 28.7948H28.4091V34.0979H33.7121V28.7948Z" fill="black"/>
<path d="M39.0152 28.7948H33.7121V34.0979H39.0152V28.7948Z" fill="black"/>
<path d="M49.6212 28.7948H44.3182V34.0979H49.6212V28.7948Z" fill="black"/>
<path d="M65.5303 28.7948H60.2273V34.0979H65.5303V28.7948Z" fill="black"/>
<path d="M76.1364 28.7948H70.8333V34.0979H76.1364V28.7948Z" fill="black"/>
<path d="M81.4394 28.7948H76.1364V34.0979H81.4394V28.7948Z" fill="black"/>
<path d="M92.0455 28.7948H86.7424V34.0979H92.0455V28.7948Z" fill="black"/>
<path d="M97.3485 28.7948H92.0455V34.0979H97.3485V28.7948Z" fill="black"/>
<path d="M107.955 28.7948H102.652V34.0979H107.955V28.7948Z" fill="black"/>
<path d="M118.561 28.7948H113.258L113.258 34.0979H118.561V28.7948Z" fill="black"/>
<path d="M134.47 28.7948H129.167V34.0979H134.47V28.7948Z" fill="black"/>
<path d="M155.682 28.7948H150.379V34.0979H155.682V28.7948Z" fill="black"/>
<path d="M166.288 28.7948H160.985V34.0979H166.288V28.7948Z" fill="black"/>
<path d="M171.591 28.7948H166.288V34.0979H171.591V28.7948Z" fill="black"/>
<path d="M176.894 28.7948H171.591V34.0979H176.894V28.7948Z" fill="black"/>
<path d="M187.5 28.7948H182.197V34.0979H187.5V28.7948Z" fill="black"/>
<path d="M17.803 34.0979H12.5V39.4009H17.803V34.0979Z" fill="black"/>
<path d="M28.4091 34.0979H23.1061V39.4009H28.4091V34.0979Z" fill="black"/>
<path d="M33.7121 34.0979H28.4091V39.4009H33.7121V34.0979Z" fill="black"/>
<path d="M39.0152 34.0979H33.7121V39.4009H39.0152V34.0979Z" fill="black"/>
<path d="M49.6212 34.0979H44.3182V39.4009H49.6212V34.0979Z" fill="black"/>
<path d="M60.2273 34.0979H54.9242V39.4009H60.2273V34.0979Z" fill="black"/>
<path d="M76.1364 34.0979H70.8333V39.4009H76.1364V34.0979Z" fill="black"/>
<path d="M81.4394 34.0979H76.1364V39.4009H81.4394V34.0979Z" fill="black"/>
<path d="M97.3485 34.0979H92.0455V39.4009H97.3485V34.0979Z" fill="black"/>
<path d="M107.955 34.0979H102.652V39.4009H107.955V34.0979Z" fill="black"/>
<path d="M118.561 34.0979H113.258V39.4009H118.561V34.0979Z" fill="black"/>
<path d="M123.864 34.0979H118.561V39.4009H123.864V34.0979Z" fill="black"/>
<path d="M145.076 34.0979H139.773V39.4009H145.076V34.0979Z" fill="black"/>
<path d="M155.682 34.0979H150.379V39.4009H155.682V34.0979Z" fill="black"/>
<path d="M166.288 34.0979H160.985V39.4009H166.288V34.0979Z" fill="black"/>
<path d="M171.591 34.0979H166.288V39.4009H171.591V34.0979Z" fill="black"/>
<path d="M176.894 34.0979H171.591V39.4009H176.894V34.0979Z" fill="black"/>
<path d="M187.5 34.0979H182.197V39.4009H187.5V34.0979Z" fill="black"/>
<path d="M17.803 39.4009H12.5V44.7039H17.803V39.4009Z" fill="black"/>
<path d="M49.6212 39.4009H44.3182V44.7039H49.6212V39.4009Z" fill="black"/>
<path d="M65.5303 39.4009H60.2273V44.7039H65.5303V39.4009Z" fill="black"/>
<path d="M76.1364 39.4009H70.8333V44.7039H76.1364V39.4009Z" fill="black"/>
<path d="M81.4394 39.4009H76.1364V44.7039H81.4394V39.4009Z" fill="black"/>
<path d="M102.652 39.4009H97.3485V44.7039H102.652V39.4009Z" fill="black"/>
<path d="M113.258 39.4009H107.955V44.7039H113.258L113.258 39.4009Z" fill="black"/>
<path d="M118.561 39.4009H113.258L113.258 44.7039H118.561V39.4009Z" fill="black"/>
<path d="M129.167 39.4009H123.864V44.7039H129.167V39.4009Z" fill="black"/>
<path d="M134.47 39.4009H129.167V44.7039H134.47V39.4009Z" fill="black"/>
<path d="M139.773 39.4009H134.47V44.7039H139.773V39.4009Z" fill="black"/>
<path d="M145.076 39.4009H139.773V44.7039H145.076V39.4009Z" fill="black"/>
<path d="M155.682 39.4009H150.379V44.7039H155.682V39.4009Z" fill="black"/>
<path d="M187.5 39.4009H182.197V44.7039H187.5V39.4009Z" fill="black"/>
<path d="M17.803 44.7039H12.5V50.007H17.803V44.7039Z" fill="black"/>
<path d="M23.1061 44.7039H17.803V50.007H23.1061V44.7039Z" fill="black"/>
<path d="M28.4091 44.7039H23.1061V50.007H28.4091V44.7039Z" fill="black"/>
<path d="M33.7121 44.7039H28.4091V50.007H33.7121V44.7039Z" fill="black"/>
<path d="M39.0152 44.7039H33.7121V50.007H39.0152V44.7039Z" fill="black"/>
<path d="M44.3182 44.7039H39.0152V50.007H44.3182V44.7039Z" fill="black"/>
<path d="M49.6212 44.7039H44.3182V50.007H49.6212V44.7039Z" fill="black"/>
<path d="M60.2273 44.7039H54.9242V50.007H60.2273V44.7039Z" fill="black"/>
<path d="M70.8333 44.7039H65.5303V50.007H70.8333V44.7039Z" fill="black"/>
<path d="M81.4394 44.7039H76.1364V50.007H81.4394V44.7039Z" fill="black"/>
<path d="M92.0455 44.7039H86.7424V50.007H92.0455V44.7039Z" fill="black"/>
<path d="M102.652 44.7039H97.3485V50.007H102.652V44.7039Z" fill="black"/>
<path d="M113.258 44.7039H107.955V50.007H113.258V44.7039Z" fill="black"/>
<path d="M123.864 44.7039H118.561V50.007H123.864V44.7039Z" fill="black"/>
<path d="M134.47 44.7039H129.167V50.007H134.47V44.7039Z" fill="black"/>
<path d="M145.076 44.7039H139.773V50.007H145.076V44.7039Z" fill="black"/>
<path d="M155.682 44.7039H150.379V50.007H155.682V44.7039Z" fill="black"/>
<path d="M160.985 44.7039H155.682V50.007H160.985V44.7039Z" fill="black"/>
<path d="M166.288 44.7039H160.985V50.007H166.288V44.7039Z" fill="black"/>
<path d="M171.591 44.7039H166.288V50.007H171.591V44.7039Z" fill="black"/>
<path d="M176.894 44.7039H171.591V50.007H176.894V44.7039Z" fill="black"/>
<path d="M182.197 44.7039H176.894V50.007H182.197V44.7039Z" fill="black"/>
<path d="M187.5 44.7039H182.197V50.007H187.5V44.7039Z" fill="black"/>
<path d="M60.2273 50.007H54.9242V55.31H60.2273V50.007Z" fill="black"/>
<path d="M70.8333 50.007H65.5303V55.31H70.8333V50.007Z" fill="black"/>
<path d="M86.7424 50.007H81.4394V55.31H86.7424V50.007Z" fill="black"/>
<path d="M92.0455 50.007H86.7424V55.31H92.0455V50.007Z" fill="black"/>
<path d="M97.3485 50.007H92.0455V55.31H97.3485V50.007Z" fill="black"/>
<path d="M113.258 50.007H107.955V55.31H113.258V50.007Z" fill="black"/>
<path d="M118.561 50.007H113.258V55.31H118.561V50.007Z" fill="black"/>
<path d="M134.47 50.007H129.167V55.31H134.47V50.007Z" fill="black"/>
<path d="M17.803 55.31H12.5V60.613H17.803V55.31Z" fill="black"/>
<path d="M33.7121 55.31H28.4091V60.613H33.7121V55.31Z" fill="black"/>
<path d="M39.0152 55.31H33.7121V60.613H39.0152V55.31Z" fill="black"/>
<path d="M44.3182 55.31H39.0152V60.613H44.3182V55.31Z" fill="black"/>
<path d="M49.6212 55.31H44.3182V60.613H49.6212V55.31Z" fill="black"/>
<path d="M54.9242 55.31H49.6212V60.613H54.9242V55.31Z" fill="black"/>
<path d="M60.2273 55.31H54.9242V60.613H60.2273V55.31Z" fill="black"/>
<path d="M81.4394 55.31H76.1364V60.613H81.4394V55.31Z" fill="black"/>
<path d="M97.3485 55.31H92.0455V60.613H97.3485V55.31Z" fill="black"/>
<path d="M118.561 55.31H113.258L113.258 60.613H118.561V55.31Z" fill="black"/>
<path d="M123.864 55.31H118.561V60.613H123.864V55.31Z" fill="black"/>
<path d="M139.773 55.31H134.47V60.613H139.773V55.31Z" fill="black"/>
<path d="M145.076 55.31H139.773V60.613H145.076V55.31Z" fill="black"/>
<path d="M150.379 55.31H145.076V60.613H150.379V55.31Z" fill="black"/>
<path d="M155.682 55.31H150.379V60.613H155.682V55.31Z" fill="black"/>
<path d="M166.288 55.31H160.985V60.613H166.288V55.31Z" fill="black"/>
<path d="M187.5 55.31H182.197V60.613H187.5V55.31Z" fill="black"/>
<path d="M23.1061 60.613H17.803V65.916H23.1061V60.613Z" fill="black"/>
<path d="M28.4091 60.613H23.1061V65.916H28.4091V60.613Z" fill="black"/>
<path d="M33.7121 60.613H28.4091V65.916H33.7121V60.613Z" fill="black"/>
<path d="M39.0152 60.613H33.7121V65.916H39.0152V60.613Z" fill="black"/>
<path d="M44.3182 60.613H39.0152V65.916H44.3182V60.613Z" fill="black"/>
<path d="M54.9242 60.613H49.6212V65.916H54.9242V60.613Z" fill="black"/>
<path d="M70.8333 60.613H65.5303V65.916H70.8333V60.613Z" fill="black"/>
<path d="M81.4394 60.613H76.1364V65.916H81.4394V60.613Z" fill="black"/>
<path d="M86.7424 60.613H81.4394V65.916H86.7424V60.613Z" fill="black"/>
<path d="M97.3485 60.613H92.0455V65.916H97.3485V60.613Z" fill="black"/>
<path d="M102.652 60.613H97.3485V65.916H102.652V60.613Z" fill="black"/>
<path d="M107.955 60.613H102.652V65.916H107.955V60.613Z" fill="black"/>
<path d="M113.258 60.613H107.955V65.916H113.258L113.258 60.613Z" fill="black"/>
<path d="M118.561 60.613H113.258L113.258 65.916H118.561V60.613Z" fill="black"/>
<path d="M123.864 60.613H118.561V65.916H123.864V60.613Z" fill="black"/>
<path d="M129.167 60.613H123.864V65.916H129.167V60.613Z" fill="black"/>
<path d="M134.47 60.613H129.167V65.916H134.47V60.613Z" fill="black"/>
<path d="M150.379 60.613H145.076V65.916H150.379V60.613Z" fill="black"/>
<path d="M155.682 60.613H150.379V65.916H155.682V60.613Z" fill="black"/>
<path d="M166.288 60.613H160.985V65.916H166.288V60.613Z" fill="black"/>
<path d="M182.197 60.613H176.894V65.916H182.197V60.613Z" fill="black"/>
<path d="M17.803 65.916H12.5V71.2191H17.803V65.916Z" fill="black"/>
<path d="M28.4091 65.916H23.1061V71.2191H28.4091V65.916Z" fill="black"/>
<path d="M33.7121 65.916H28.4091V71.2191H33.7121V65.916Z" fill="black"/>
<path d="M44.3182 65.916H39.0152V71.2191H44.3182V65.916Z" fill="black"/>
<path d="M49.6212 65.916H44.3182V71.2191H49.6212V65.916Z" fill="black"/>
<path d="M65.5303 65.916H60.2273V71.2191H65.5303V65.916Z" fill="black"/>
<path d="M70.8333 65.916H65.5303V71.2191H70.8333V65.916Z" fill="black"/>
<path d="M76.1364 65.916H70.8333V71.2191H76.1364V65.916Z" fill="black"/>
<path d="M86.7424 65.916H81.4394V71.2191H86.7424V65.916Z" fill="black"/>
<path d="M97.3485 65.916H92.0455V71.2191H97.3485V65.916Z" fill="black"/>
<path d="M113.258 65.916H107.955V71.2191H113.258V65.916Z" fill="black"/>
<path d="M118.561 65.916H113.258V71.2191H118.561V65.916Z" fill="black"/>
<path d="M176.894 65.916H171.591V71.2191H176.894V65.916Z" fill="black"/>
<path d="M182.197 65.916H176.894V71.2191H182.197V65.916Z" fill="black"/>
<path d="M187.5 65.916H182.197V71.2191H187.5V65.916Z" fill="black"/>
<path d="M23.1061 71.2191H17.803V76.5221H23.1061V71.2191Z" fill="black"/>
<path d="M28.4091 71.2191H23.1061V76.5221H28.4091V71.2191Z" fill="black"/>
<path d="M54.9242 71.2191H49.6212V76.5221H54.9242V71.2191Z" fill="black"/>
<path d="M60.2273 71.2191H54.9242V76.5221H60.2273V71.2191Z" fill="black"/>
<path d="M70.8333 71.2191H65.5303V76.5221H70.8333V71.2191Z" fill="black"/>
<path d="M86.7424 71.2191H81.4394V76.5221H86.7424V71.2191Z" fill="black"/>
<path d="M92.0455 71.2191H86.7424V76.5221H92.0455V71.2191Z" fill="black"/>
<path d="M97.3485 71.2191H92.0455V76.5221H97.3485V71.2191Z" fill="black"/>
<path d="M102.652 71.2191H97.3485V76.5221H102.652V71.2191Z" fill="black"/>
<path d="M107.955 71.2191H102.652V76.5221H107.955V71.2191Z" fill="black"/>
<path d="M113.258 71.2191H107.955V76.5221H113.258V71.2191Z" fill="black"/>
<path d="M118.561 71.2191H113.258V76.5221H118.561V71.2191Z" fill="black"/>
<path d="M129.167 71.2191H123.864V76.5221H129.167V71.2191Z" fill="black"/>
<path d="M134.47 71.2191H129.167V76.5221H134.47V71.2191Z" fill="black"/>
<path d="M150.379 71.2191H145.076V76.5221H150.379V71.2191Z" fill="black"/>
<path d="M160.985 71.2191H155.682V76.5221H160.985V71.2191Z" fill="black"/>
<path d="M176.894 71.2191H171.591V76.5221H176.894V71.2191Z" fill="black"/>
<path d="M17.803 76.5221H12.5V81.8251H17.803V76.5221Z" fill="black"/>
<path d="M23.1061 76.5221H17.803V81.8251H23.1061V76.5221Z" fill="black"/>
<path d="M33.7121 76.5221H28.4091V81.8251H33.7121V76.5221Z" fill="black"/>
<path d="M39.0152 76.5221H33.7121V81.8251H39.0152V76.5221Z" fill="black"/>
<path d="M44.3182 76.5221H39.0152V81.8251H44.3182V76.5221Z" fill="black"/>
<path d="M49.6212 76.5221H44.3182V81.8251H49.6212V76.5221Z" fill="black"/>
<path d="M70.8333 76.5221H65.5303V81.8251H70.8333V76.5221Z" fill="black"/>
<path d="M81.4394 76.5221H76.1364V81.8251H81.4394V76.5221Z" fill="black"/>
<path d="M97.3485 76.5221H92.0455V81.8251H97.3485V76.5221Z" fill="black"/>
<path d="M118.561 76.5221H113.258L113.258 81.8251H118.561V76.5221Z" fill="black"/>
<path d="M123.864 76.5221H118.561V81.8251H123.864V76.5221Z" fill="black"/>
<path d="M134.47 76.5221H129.167V81.8251H134.47V76.5221Z" fill="black"/>
<path d="M139.773 76.5221H134.47V81.8251H139.773V76.5221Z" fill="black"/>
<path d="M155.682 76.5221H150.379V81.8251H155.682V76.5221Z" fill="black"/>
<path d="M160.985 76.5221H155.682V81.8251H160.985V76.5221Z" fill="black"/>
<path d="M166.288 76.5221H160.985V81.8251H166.288V76.5221Z" fill="black"/>
<path d="M176.894 76.5221H171.591V81.8251H176.894V76.5221Z" fill="black"/>
<path d="M182.197 76.5221H176.894V81.8251H182.197V76.5221Z" fill="black"/>
<path d="M187.5 76.5221H182.197V81.8251H187.5V76.5221Z" fill="black"/>
<path d="M17.803 81.8251H12.5V87.1282H17.803V81.8251Z" fill="black"/>
<path d="M23.1061 81.8251H17.803V87.1282H23.1061V81.8251Z" fill="black"/>
<path d="M39.0152 81.8251H33.7121V87.1282H39.0152V81.8251Z" fill="black"/>
<path d="M70.8333 81.8251H65.5303V87.1282H70.8333V81.8251Z" fill="black"/>
<path d="M76.1364 81.8251H70.8333V87.1282H76.1364V81.8251Z" fill="black"/>
<path d="M81.4394 81.8251H76.1364V87.1282H81.4394V81.8251Z" fill="black"/>
<path d="M92.0455 81.8251H86.7424V87.1282H92.0455V81.8251Z" fill="black"/>
<path d="M107.955 81.8251H102.652V87.1282H107.955V81.8251Z" fill="black"/>
<path d="M134.47 81.8251H129.167V87.1282H134.47V81.8251Z" fill="black"/>
<path d="M166.288 81.8251H160.985V87.1282H166.288V81.8251Z" fill="black"/>
<path d="M182.197 81.8251H176.894V87.1282H182.197V81.8251Z" fill="black"/>
<path d="M187.5 81.8251H182.197V87.1282H187.5V81.8251Z" fill="black"/>
<path d="M23.1061 87.1282H17.803V92.4312H23.1061V87.1282Z" fill="black"/>
<path d="M28.4091 87.1282H23.1061V92.4312H28.4091V87.1282Z" fill="black"/>
<path d="M44.3182 87.1282H39.0152V92.4312H44.3182V87.1282Z" fill="black"/>
<path d="M49.6212 87.1282H44.3182V92.4312H49.6212V87.1282Z" fill="black"/>
<path d="M54.9242 87.1282H49.6212V92.4312H54.9242V87.1282Z" fill="black"/>
<path d="M60.2273 87.1282H54.9242V92.4312H60.2273V87.1282Z" fill="black"/>
<path d="M65.5303 87.1282H60.2273V92.4312H65.5303V87.1282Z" fill="black"/>
<path d="M70.8333 87.1282H65.5303V92.4312H70.8333V87.1282Z" fill="black"/>
<path d="M86.7424 87.1282H81.4394V92.4312H86.7424V87.1282Z" fill="black"/>
<path d="M92.0455 87.1282H86.7424V92.4312H92.0455V87.1282Z" fill="black"/>
<path d="M97.3485 87.1282H92.0455V92.4312H97.3485V87.1282Z" fill="black"/>
<path d="M102.652 87.1282H97.3485V92.4312H102.652V87.1282Z" fill="black"/>
<path d="M113.258 87.1282H107.955V92.4312H113.258V87.1282Z" fill="black"/>
<path d="M129.167 87.1282H123.864V92.4312H129.167V87.1282Z" fill="black"/>
<path d="M139.773 87.1282H134.47V92.4312H139.773V87.1282Z" fill="black"/>
<path d="M145.076 87.1282H139.773V92.4312H145.076V87.1282Z" fill="black"/>
<path d="M150.379 87.1282H145.076V92.4312H150.379V87.1282Z" fill="black"/>
<path d="M160.985 87.1282H155.682V92.4312H160.985V87.1282Z" fill="black"/>
<path d="M166.288 87.1282H160.985V92.4312H166.288V87.1282Z" fill="black"/>
<path d="M171.591 87.1282H166.288V92.4312H171.591V87.1282Z" fill="black"/>
<path d="M182.197 87.1282H176.894V92.4312H182.197V87.1282Z" fill="black"/>
<path d="M17.803 92.4312H12.5V97.7342H17.803V92.4312Z" fill="black"/>
<path d="M33.7121 92.4312H28.4091V97.7342H33.7121V92.4312Z" fill="black"/>
<path d="M44.3182 92.4312H39.0152V97.7342H44.3182V92.4312Z" fill="black"/>
<path d="M60.2273 92.4312H54.9242V97.7342H60.2273V92.4312Z" fill="black"/>
<path d="M65.5303 92.4312H60.2273V97.7342H65.5303V92.4312Z" fill="black"/>
<path d="M70.8333 92.4312H65.5303V97.7342H70.8333V92.4312Z" fill="black"/>
<path d="M92.0455 92.4312H86.7424V97.7342H92.0455V92.4312Z" fill="black"/>
<path d="M97.3485 92.4312H92.0455V97.7342H97.3485V92.4312Z" fill="black"/>
<path d="M107.955 92.4312H102.652V97.7342H107.955V92.4312Z" fill="black"/>
<path d="M113.258 92.4312H107.955V97.7342H113.258V92.4312Z" fill="black"/>
<path d="M118.561 92.4312H113.258V97.7342H118.561V92.4312Z" fill="black"/>
<path d="M123.864 92.4312H118.561V97.7342H123.864V92.4312Z" fill="black"/>
<path d="M145.076 92.4312H139.773V97.7342H145.076V92.4312Z" fill="black"/>
<path d="M150.379 92.4312H145.076V97.7342H150.379V92.4312Z" fill="black"/>
<path d="M155.682 92.4312H150.379V97.7342H155.682V92.4312Z" fill="black"/>
<path d="M176.894 92.4312H171.591V97.7342H176.894V92.4312Z" fill="black"/>
<path d="M182.197 92.4312H176.894V97.7342H182.197V92.4312Z" fill="black"/>
<path d="M17.803 97.7342H12.5V103.037H17.803V97.7342Z" fill="black"/>
<path d="M33.7121 97.7342H28.4091V103.037H33.7121V97.7342Z" fill="black"/>
<path d="M39.0152 97.7342H33.7121V103.037H39.0152V97.7342Z" fill="black"/>
<path d="M49.6212 97.7342H44.3182V103.037H49.6212V97.7342Z" fill="black"/>
<path d="M65.5303 97.7342H60.2273V103.037H65.5303V97.7342Z" fill="black"/>
<path d="M70.8333 97.7342H65.5303V103.037H70.8333V97.7342Z" fill="black"/>
<path d="M81.4394 97.7342H76.1364V103.037H81.4394V97.7342Z" fill="black"/>
<path d="M97.3485 97.7342H92.0455V103.037H97.3485V97.7342Z" fill="black"/>
<path d="M107.955 97.7342H102.652V103.037H107.955V97.7342Z" fill="black"/>
<path d="M118.561 97.7342H113.258L113.258 103.037H118.561V97.7342Z" fill="black"/>
<path d="M129.167 97.7342H123.864V103.037H129.167V97.7342Z" fill="black"/>
<path d="M134.47 97.7342H129.167V103.037H134.47V97.7342Z" fill="black"/>
<path d="M150.379 97.7342H145.076V103.037H150.379V97.7342Z" fill="black"/>
<path d="M155.682 97.7342H150.379V103.037H155.682V97.7342Z" fill="black"/>
<path d="M160.985 97.7342H155.682V103.037H160.985V97.7342Z" fill="black"/>
<path d="M166.288 97.7342H160.985V103.037H166.288V97.7342Z" fill="black"/>
<path d="M182.197 97.7342H176.894V103.037H182.197V97.7342Z" fill="black"/>
<path d="M187.5 97.7342H182.197V103.037H187.5V97.7342Z" fill="black"/>
<path d="M17.803 103.037H12.5V108.34H17.803V103.037Z" fill="black"/>
<path d="M23.1061 103.037H17.803V108.34H23.1061V103.037Z" fill="black"/>
<path d="M28.4091 103.037H23.1061V108.34H28.4091V103.037Z" fill="black"/>
<path d="M33.7121 103.037H28.4091V108.34H33.7121V103.037Z" fill="black"/>
<path d="M54.9242 103.037H49.6212V108.34H54.9242V103.037Z" fill="black"/>
<path d="M60.2273 103.037H54.9242V108.34H60.2273V103.037Z" fill="black"/>
<path d="M65.5303 103.037H60.2273V108.34H65.5303V103.037Z" fill="black"/>
<path d="M86.7424 103.037H81.4394V108.34H86.7424V103.037Z" fill="black"/>
<path d="M97.3485 103.037H92.0455V108.34H97.3485V103.037Z" fill="black"/>
<path d="M102.652 103.037H97.3485V108.34H102.652V103.037Z" fill="black"/>
<path d="M113.258 103.037H107.955V108.34H113.258L113.258 103.037Z" fill="black"/>
<path d="M118.561 103.037H113.258L113.258 108.34H118.561V103.037Z" fill="black"/>
<path d="M134.47 103.037H129.167V108.34H134.47V103.037Z" fill="black"/>
<path d="M139.773 103.037H134.47V108.34H139.773V103.037Z" fill="black"/>
<path d="M145.076 103.037H139.773V108.34H145.076V103.037Z" fill="black"/>
<path d="M150.379 103.037H145.076V108.34H150.379V103.037Z" fill="black"/>
<path d="M176.894 103.037H171.591V108.34H176.894V103.037Z" fill="black"/>
<path d="M182.197 103.037H176.894V108.34H182.197V103.037Z" fill="black"/>
<path d="M187.5 103.037H182.197V108.34H187.5V103.037Z" fill="black"/>
<path d="M28.4091 108.34H23.1061V113.643H28.4091V108.34Z" fill="black"/>
<path d="M39.0152 108.34H33.7121V113.643H39.0152V108.34Z" fill="black"/>
<path d="M49.6212 108.34H44.3182V113.643H49.6212V108.34Z" fill="black"/>
<path d="M54.9242 108.34H49.6212V113.643H54.9242V108.34Z" fill="black"/>
<path d="M60.2273 108.34H54.9242V113.643H60.2273V108.34Z" fill="black"/>
<path d="M65.5303 108.34H60.2273V113.643H65.5303V108.34Z" fill="black"/>
<path d="M70.8333 108.34H65.5303V113.643H70.8333V108.34Z" fill="black"/>
<path d="M86.7424 108.34H81.4394V113.643H86.7424V108.34Z" fill="black"/>
<path d="M92.0455 108.34H86.7424V113.643H92.0455V108.34Z" fill="black"/>
<path d="M97.3485 108.34H92.0455V113.643H97.3485V108.34Z" fill="black"/>
<path d="M118.561 108.34H113.258L113.258 113.643H118.561V108.34Z" fill="black"/>
<path d="M123.864 108.34H118.561V113.643H123.864V108.34Z" fill="black"/>
<path d="M134.47 108.34H129.167V113.643H134.47V108.34Z" fill="black"/>
<path d="M150.379 108.34H145.076V113.643H150.379V108.34Z" fill="black"/>
<path d="M155.682 108.34H150.379V113.643H155.682V108.34Z" fill="black"/>
<path d="M171.591 108.34H166.288V113.643H171.591V108.34Z" fill="black"/>
<path d="M182.197 108.34H176.894V113.643H182.197V108.34Z" fill="black"/>
<path d="M23.1061 113.643L17.803 113.643V118.946H23.1061V113.643Z" fill="black"/>
<path d="M28.4091 113.643H23.1061V118.946H28.4091V113.643Z" fill="black"/>
<path d="M44.3182 113.643H39.0152V118.946H44.3182V113.643Z" fill="black"/>
<path d="M60.2273 113.643H54.9242V118.946H60.2273V113.643Z" fill="black"/>
<path d="M76.1364 113.643L70.8333 113.643V118.946H76.1364V113.643Z" fill="black"/>
<path d="M123.864 113.643H118.561V118.946H123.864V113.643Z" fill="black"/>
<path d="M139.773 113.643L134.47 113.643V118.946H139.773V113.643Z" fill="black"/>
<path d="M145.076 113.643L139.773 113.643V118.946H145.076V113.643Z" fill="black"/>
<path d="M23.1061 118.946H17.803V124.249H23.1061V118.946Z" fill="black"/>
<path d="M39.0152 118.946H33.7121V124.249H39.0152V118.946Z" fill="black"/>
<path d="M49.6212 118.946H44.3182V124.249H49.6212V118.946Z" fill="black"/>
<path d="M76.1364 118.946H70.8333V124.249H76.1364V118.946Z" fill="black"/>
<path d="M86.7424 118.946H81.4394V124.249H86.7424V118.946Z" fill="black"/>
<path d="M92.0455 118.946H86.7424V124.249H92.0455V118.946Z" fill="black"/>
<path d="M97.3485 118.946H92.0455V124.249H97.3485V118.946Z" fill="black"/>
<path d="M102.652 118.946H97.3485V124.249H102.652V118.946Z" fill="black"/>
<path d="M107.955 118.946H102.652V124.249H107.955V118.946Z" fill="black"/>
<path d="M113.258 118.946H107.955V124.249H113.258V118.946Z" fill="black"/>
<path d="M118.561 118.946H113.258V124.249H118.561V118.946Z" fill="black"/>
<path d="M123.864 118.946H118.561V124.249H123.864V118.946Z" fill="black"/>
<path d="M129.167 118.946H123.864V124.249H129.167V118.946Z" fill="black"/>
<path d="M139.773 118.946H134.47V124.249H139.773V118.946Z" fill="black"/>
<path d="M145.076 118.946H139.773V124.249H145.076V118.946Z" fill="black"/>
<path d="M160.985 118.946H155.682V124.249H160.985V118.946Z" fill="black"/>
<path d="M176.894 118.946H171.591V124.249H176.894V118.946Z" fill="black"/>
<path d="M182.197 118.946H176.894V124.249H182.197V118.946Z" fill="black"/>
<path d="M187.5 118.946H182.197V124.249H187.5V118.946Z" fill="black"/>
<path d="M17.803 124.249H12.5V129.552H17.803V124.249Z" fill="black"/>
<path d="M28.4091 124.249H23.1061V129.552H28.4091V124.249Z" fill="black"/>
<path d="M39.0152 124.249H33.7121V129.552H39.0152V124.249Z" fill="black"/>
<path d="M54.9242 124.249H49.6212V129.552H54.9242V124.249Z" fill="black"/>
<path d="M60.2273 124.249H54.9242V129.552H60.2273V124.249Z" fill="black"/>
<path d="M70.8333 124.249H65.5303V129.552H70.8333V124.249Z" fill="black"/>
<path d="M76.1364 124.249H70.8333V129.552H76.1364V124.249Z" fill="black"/>
<path d="M81.4394 124.249H76.1364V129.552H81.4394V124.249Z" fill="black"/>
<path d="M86.7424 124.249H81.4394V129.552H86.7424V124.249Z" fill="black"/>
<path d="M97.3485 124.249H92.0455V129.552H97.3485V124.249Z" fill="black"/>
<path d="M102.652 124.249H97.3485V129.552H102.652V124.249Z" fill="black"/>
<path d="M107.955 124.249H102.652V129.552H107.955V124.249Z" fill="black"/>
<path d="M113.258 124.249H107.955V129.552H113.258V124.249Z" fill="black"/>
<path d="M118.561 124.249H113.258V129.552H118.561V124.249Z" fill="black"/>
<path d="M123.864 124.249H118.561V129.552H123.864V124.249Z" fill="black"/>
<path d="M139.773 124.249H134.47V129.552H139.773V124.249Z" fill="black"/>
<path d="M145.076 124.249H139.773V129.552H145.076V124.249Z" fill="black"/>
<path d="M160.985 124.249H155.682V129.552H160.985V124.249Z" fill="black"/>
<path d="M166.288 124.249H160.985V129.552H166.288V124.249Z" fill="black"/>
<path d="M171.591 124.249H166.288V129.552H171.591V124.249Z" fill="black"/>
<path d="M176.894 124.249H171.591V129.552H176.894V124.249Z" fill="black"/>
<path d="M182.197 124.249H176.894V129.552H182.197V124.249Z" fill="black"/>
<path d="M187.5 124.249H182.197V129.552H187.5V124.249Z" fill="black"/>
<path d="M44.3182 129.552H39.0152V134.855H44.3182V129.552Z" fill="black"/>
<path d="M49.6212 129.552H44.3182V134.855H49.6212V129.552Z" fill="black"/>
<path d="M60.2273 129.552H54.9242V134.855H60.2273V129.552Z" fill="black"/>
<path d="M70.8333 129.552H65.5303V134.855H70.8333V129.552Z" fill="black"/>
<path d="M102.652 129.552H97.3485V134.855H102.652V129.552Z" fill="black"/>
<path d="M129.167 129.552H123.864V134.855H129.167V129.552Z" fill="black"/>
<path d="M134.47 129.552H129.167V134.855H134.47V129.552Z" fill="black"/>
<path d="M139.773 129.552H134.47V134.855H139.773V129.552Z" fill="black"/>
<path d="M145.076 129.552H139.773V134.855H145.076V129.552Z" fill="black"/>
<path d="M155.682 129.552H150.379V134.855H155.682V129.552Z" fill="black"/>
<path d="M176.894 129.552H171.591V134.855H176.894V129.552Z" fill="black"/>
<path d="M187.5 129.552H182.197V134.855H187.5V129.552Z" fill="black"/>
<path d="M17.803 134.855H12.5V140.158H17.803V134.855Z" fill="black"/>
<path d="M28.4091 134.855H23.1061V140.158H28.4091V134.855Z" fill="black"/>
<path d="M33.7121 134.855H28.4091V140.158H33.7121V134.855Z" fill="black"/>
<path d="M39.0152 134.855H33.7121V140.158H39.0152V134.855Z" fill="black"/>
<path d="M54.9242 134.855H49.6212V140.158H54.9242V134.855Z" fill="black"/>
<path d="M60.2273 134.855H54.9242V140.158H60.2273V134.855Z" fill="black"/>
<path d="M65.5303 134.855H60.2273V140.158H65.5303V134.855Z" fill="black"/>
<path d="M70.8333 134.855H65.5303V140.158H70.8333V134.855Z" fill="black"/>
<path d="M81.4394 134.855H76.1364V140.158H81.4394V134.855Z" fill="black"/>
<path d="M86.7424 134.855H81.4394V140.158H86.7424V134.855Z" fill="black"/>
<path d="M92.0455 134.855H86.7424V140.158H92.0455V134.855Z" fill="black"/>
<path d="M107.955 134.855H102.652V140.158H107.955V134.855Z" fill="black"/>
<path d="M113.258 134.855H107.955V140.158H113.258V134.855Z" fill="black"/>
<path d="M118.561 134.855H113.258V140.158H118.561V134.855Z" fill="black"/>
<path d="M123.864 134.855H118.561V140.158H123.864V134.855Z" fill="black"/>
<path d="M129.167 134.855H123.864V140.158H129.167V134.855Z" fill="black"/>
<path d="M134.47 134.855H129.167V140.158H134.47V134.855Z" fill="black"/>
<path d="M139.773 134.855H134.47V140.158H139.773V134.855Z" fill="black"/>
<path d="M171.591 134.855H166.288V140.158H171.591V134.855Z" fill="black"/>
<path d="M187.5 134.855H182.197V140.158H187.5V134.855Z" fill="black"/>
<path d="M33.7121 140.158H28.4091V145.462H33.7121V140.158Z" fill="black"/>
<path d="M49.6212 140.158H44.3182V145.462H49.6212V140.158Z" fill="black"/>
<path d="M60.2273 140.158H54.9242V145.462H60.2273V140.158Z" fill="black"/>
<path d="M76.1364 140.158H70.8333V145.462H76.1364V140.158Z" fill="black"/>
<path d="M81.4394 140.158H76.1364V145.462H81.4394V140.158Z" fill="black"/>
<path d="M92.0455 140.158H86.7424V145.462H92.0455V140.158Z" fill="black"/>
<path d="M102.652 140.158H97.3485V145.462H102.652V140.158Z" fill="black"/>
<path d="M118.561 140.158H113.258L113.258 145.462H118.561V140.158Z" fill="black"/>
<path d="M139.773 140.158H134.47V145.462H139.773V140.158Z" fill="black"/>
<path d="M145.076 140.158H139.773V145.462H145.076V140.158Z" fill="black"/>
<path d="M150.379 140.158H145.076V145.462H150.379V140.158Z" fill="black"/>
<path d="M155.682 140.158H150.379V145.462H155.682V140.158Z" fill="black"/>
<path d="M160.985 140.158H155.682V145.462H160.985V140.158Z" fill="black"/>
<path d="M166.288 140.158H160.985V145.462H166.288V140.158Z" fill="black"/>
<path d="M176.894 140.158H171.591V145.462H176.894V140.158Z" fill="black"/>
<path d="M182.197 140.158H176.894V145.462H182.197V140.158Z" fill="black"/>
<path d="M187.5 140.158H182.197V145.462H187.5V140.158Z" fill="black"/>
<path d="M60.2273 145.462H54.9242V150.765H60.2273V145.462Z" fill="black"/>
<path d="M65.5303 145.462H60.2273V150.765H65.5303V145.462Z" fill="black"/>
<path d="M70.8333 145.462H65.5303V150.765H70.8333V145.462Z" fill="black"/>
<path d="M76.1364 145.462H70.8333V150.765H76.1364V145.462Z" fill="black"/>
<path d="M86.7424 145.462H81.4394V150.765H86.7424V145.462Z" fill="black"/>
<path d="M92.0455 145.462H86.7424V150.765H92.0455V145.462Z" fill="black"/>
<path d="M97.3485 145.462H92.0455V150.765H97.3485V145.462Z" fill="black"/>
<path d="M113.258 145.462H107.955V150.765H113.258L113.258 145.462Z" fill="black"/>
<path d="M118.561 145.462H113.258L113.258 150.765H118.561V145.462Z" fill="black"/>
<path d="M134.47 145.462H129.167V150.765H134.47V145.462Z" fill="black"/>
<path d="M145.076 145.462H139.773V150.765H145.076V145.462Z" fill="black"/>
<path d="M166.288 145.462H160.985V150.765H166.288V145.462Z" fill="black"/>
<path d="M187.5 145.462H182.197V150.765H187.5V145.462Z" fill="black"/>
<path d="M17.803 150.765H12.5V156.068H17.803V150.765Z" fill="black"/>
<path d="M23.1061 150.765H17.803V156.068H23.1061V150.765Z" fill="black"/>
<path d="M28.4091 150.765H23.1061V156.068H28.4091V150.765Z" fill="black"/>
<path d="M33.7121 150.765H28.4091V156.068H33.7121V150.765Z" fill="black"/>
<path d="M39.0152 150.765H33.7121V156.068H39.0152V150.765Z" fill="black"/>
<path d="M44.3182 150.765H39.0152V156.068H44.3182V150.765Z" fill="black"/>
<path d="M49.6212 150.765H44.3182V156.068H49.6212V150.765Z" fill="black"/>
<path d="M60.2273 150.765H54.9242V156.068H60.2273V150.765Z" fill="black"/>
<path d="M70.8333 150.765H65.5303V156.068H70.8333V150.765Z" fill="black"/>
<path d="M76.1364 150.765H70.8333V156.068H76.1364V150.765Z" fill="black"/>
<path d="M81.4394 150.765H76.1364V156.068H81.4394V150.765Z" fill="black"/>
<path d="M92.0455 150.765H86.7424V156.068H92.0455V150.765Z" fill="black"/>
<path d="M97.3485 150.765H92.0455V156.068H97.3485V150.765Z" fill="black"/>
<path d="M102.652 150.765H97.3485V156.068H102.652V150.765Z" fill="black"/>
<path d="M113.258 150.765H107.955V156.068H113.258V150.765Z" fill="black"/>
<path d="M118.561 150.765H113.258V156.068H118.561V150.765Z" fill="black"/>
<path d="M123.864 150.765H118.561V156.068H123.864V150.765Z" fill="black"/>
<path d="M139.773 150.765H134.47V156.068H139.773V150.765Z" fill="black"/>
<path d="M145.076 150.765H139.773V156.068H145.076V150.765Z" fill="black"/>
<path d="M155.682 150.765H150.379V156.068H155.682V150.765Z" fill="black"/>
<path d="M166.288 150.765H160.985V156.068H166.288V150.765Z" fill="black"/>
<path d="M171.591 150.765H166.288V156.068H171.591V150.765Z" fill="black"/>
<path d="M176.894 150.765H171.591V156.068H176.894V150.765Z" fill="black"/>
<path d="M187.5 150.765H182.197V156.068H187.5V150.765Z" fill="black"/>
<path d="M17.803 156.068H12.5V161.371H17.803V156.068Z" fill="black"/>
<path d="M49.6212 156.068H44.3182V161.371H49.6212V156.068Z" fill="black"/>
<path d="M60.2273 156.068H54.9242V161.371H60.2273V156.068Z" fill="black"/>
<path d="M97.3485 156.068H92.0455V161.371H97.3485V156.068Z" fill="black"/>
<path d="M113.258 156.068H107.955V161.371H113.258V156.068Z" fill="black"/>
<path d="M118.561 156.068H113.258V161.371H118.561V156.068Z" fill="black"/>
<path d="M123.864 156.068H118.561V161.371H123.864V156.068Z" fill="black"/>
<path d="M129.167 156.068H123.864V161.371H129.167V156.068Z" fill="black"/>
<path d="M134.47 156.068H129.167V161.371H134.47V156.068Z" fill="black"/>
<path d="M145.076 156.068H139.773V161.371H145.076V156.068Z" fill="black"/>
<path d="M166.288 156.068H160.985V161.371H166.288V156.068Z" fill="black"/>
<path d="M171.591 156.068H166.288V161.371H171.591V156.068Z" fill="black"/>
<path d="M176.894 156.068H171.591V161.371H176.894V156.068Z" fill="black"/>
<path d="M17.803 161.371H12.5V166.674H17.803V161.371Z" fill="black"/>
<path d="M28.4091 161.371H23.1061V166.674H28.4091V161.371Z" fill="black"/>
<path d="M33.7121 161.371H28.4091V166.674H33.7121V161.371Z" fill="black"/>
<path d="M39.0152 161.371H33.7121V166.674H39.0152V161.371Z" fill="black"/>
<path d="M49.6212 161.371H44.3182V166.674H49.6212V161.371Z" fill="black"/>
<path d="M60.2273 161.371H54.9242V166.674H60.2273V161.371Z" fill="black"/>
<path d="M81.4394 161.371H76.1364V166.674H81.4394V161.371Z" fill="black"/>
<path d="M97.3485 161.371H92.0455V166.674H97.3485V161.371Z" fill="black"/>
<path d="M102.652 161.371H97.3485V166.674H102.652V161.371Z" fill="black"/>
<path d="M123.864 161.371H118.561V166.674H123.864V161.371Z" fill="black"/>
<path d="M145.076 161.371H139.773V166.674H145.076V161.371Z" fill="black"/>
<path d="M150.379 161.371H145.076V166.674H150.379V161.371Z" fill="black"/>
<path d="M155.682 161.371H150.379V166.674H155.682V161.371Z" fill="black"/>
<path d="M160.985 161.371H155.682V166.674H160.985V161.371Z" fill="black"/>
<path d="M166.288 161.371H160.985V166.674H166.288V161.371Z" fill="black"/>
<path d="M171.591 161.371H166.288V166.674H171.591V161.371Z" fill="black"/>
<path d="M176.894 161.371H171.591V166.674H176.894V161.371Z" fill="black"/>
<path d="M17.803 166.674H12.5V171.977H17.803V166.674Z" fill="black"/>
<path d="M28.4091 166.674H23.1061V171.977H28.4091V166.674Z" fill="black"/>
<path d="M33.7121 166.674H28.4091V171.977H33.7121V166.674Z" fill="black"/>
<path d="M39.0152 166.674H33.7121V171.977H39.0152V166.674Z" fill="black"/>
<path d="M49.6212 166.674H44.3182V171.977H49.6212V166.674Z" fill="black"/>
<path d="M60.2273 166.674H54.9242V171.977H60.2273V166.674Z" fill="black"/>
<path d="M65.5303 166.674H60.2273V171.977H65.5303V166.674Z" fill="black"/>
<path d="M70.8333 166.674H65.5303V171.977H70.8333V166.674Z" fill="black"/>
<path d="M81.4394 166.674H76.1364V171.977H81.4394V166.674Z" fill="black"/>
<path d="M86.7424 166.674H81.4394V171.977H86.7424V166.674Z" fill="black"/>
<path d="M92.0455 166.674H86.7424V171.977H92.0455V166.674Z" fill="black"/>
<path d="M107.955 166.674H102.652V171.977H107.955V166.674Z" fill="black"/>
<path d="M113.258 166.674H107.955V171.977H113.258V166.674Z" fill="black"/>
<path d="M123.864 166.674H118.561V171.977H123.864V166.674Z" fill="black"/>
<path d="M155.682 166.674H150.379V171.977H155.682V166.674Z" fill="black"/>
<path d="M166.288 166.674H160.985V171.977H166.288V166.674Z" fill="black"/>
<path d="M171.591 166.674H166.288V171.977H171.591V166.674Z" fill="black"/>
<path d="M17.803 171.977H12.5V177.28H17.803V171.977Z" fill="black"/>
<path d="M28.4091 171.977H23.1061V177.28H28.4091V171.977Z" fill="black"/>
<path d="M33.7121 171.977H28.4091V177.28H33.7121V171.977Z" fill="black"/>
<path d="M39.0152 171.977H33.7121V177.28H39.0152V171.977Z" fill="black"/>
<path d="M49.6212 171.977H44.3182V177.28H49.6212V171.977Z" fill="black"/>
<path d="M65.5303 171.977H60.2273V177.28H65.5303V171.977Z" fill="black"/>
<path d="M86.7424 171.977H81.4394V177.28H86.7424V171.977Z" fill="black"/>
<path d="M107.955 171.977H102.652V177.28H107.955V171.977Z" fill="black"/>
<path d="M150.379 171.977H145.076V177.28H150.379V171.977Z" fill="black"/>
<path d="M176.894 171.977H171.591V177.28H176.894V171.977Z" fill="black"/>
<path d="M17.803 177.28H12.5V182.583H17.803V177.28Z" fill="black"/>
<path d="M49.6212 177.28H44.3182V182.583H49.6212V177.28Z" fill="black"/>
<path d="M70.8333 177.28H65.5303V182.583H70.8333V177.28Z" fill="black"/>
<path d="M81.4394 177.28H76.1364V182.583H81.4394V177.28Z" fill="black"/>
<path d="M92.0455 177.28H86.7424V182.583H92.0455V177.28Z" fill="black"/>
<path d="M102.652 177.28H97.3485V182.583H102.652V177.28Z" fill="black"/>
<path d="M113.258 177.28H107.955V182.583H113.258V177.28Z" fill="black"/>
<path d="M118.561 177.28H113.258V182.583H118.561V177.28Z" fill="black"/>
<path d="M129.167 177.28H123.864V182.583H129.167V177.28Z" fill="black"/>
<path d="M134.47 177.28H129.167V182.583H134.47V177.28Z" fill="black"/>
<path d="M139.773 177.28H134.47V182.583H139.773V177.28Z" fill="black"/>
<path d="M150.379 177.28H145.076V182.583H150.379V177.28Z" fill="black"/>
<path d="M155.682 177.28H150.379V182.583H155.682V177.28Z" fill="black"/>
<path d="M160.985 177.28H155.682V182.583H160.985V177.28Z" fill="black"/>
<path d="M17.803 182.583H12.5V187.886H17.803V182.583Z" fill="black"/>
<path d="M23.1061 182.583H17.803V187.886H23.1061V182.583Z" fill="black"/>
<path d="M28.4091 182.583H23.1061V187.886H28.4091V182.583Z" fill="black"/>
<path d="M33.7121 182.583H28.4091V187.886H33.7121V182.583Z" fill="black"/>
<path d="M39.0152 182.583H33.7121V187.886H39.0152V182.583Z" fill="black"/>
<path d="M44.3182 182.583H39.0152V187.886H44.3182V182.583Z" fill="black"/>
<path d="M49.6212 182.583H44.3182V187.886H49.6212V182.583Z" fill="black"/>
<path d="M60.2273 182.583H54.9242V187.886H60.2273V182.583Z" fill="black"/>
<path d="M81.4394 182.583H76.1364V187.886H81.4394V182.583Z" fill="black"/>
<path d="M118.561 182.583H113.258L113.258 187.886H118.561V182.583Z" fill="black"/>
<path d="M145.076 182.583H139.773V187.886H145.076V182.583Z" fill="black"/>
<path d="M160.985 182.583H155.682V187.886H160.985V182.583Z" fill="black"/>
<path d="M187.5 182.583H182.197V187.886H187.5V182.583Z" fill="black"/>
</g>
<defs>
<clipPath id="clip0_3572_20742">
<rect y="0.385742" width="200" height="200" rx="12" fill="white"/>
</clipPath>
</defs>
</svg>
