<svg width="122" height="37" viewBox="0 0 122 37" fill="none" xmlns="http://www.w3.org/2000/svg">
<g id="Group">
<g id="Group_2">
<g id="Group_3">
<path id="Vector" d="M112.193 0.402553H9.71284C9.33928 0.402553 8.97021 0.402553 8.59765 0.404368C8.28578 0.406183 7.9764 0.411456 7.66153 0.415893C6.9775 0.423064 6.29507 0.476673 5.62019 0.576254C4.94625 0.678002 4.29342 0.869828 3.68379 1.14524C3.0749 1.42299 2.51854 1.78389 2.03489 2.21485C1.54871 2.6446 1.14344 3.14134 0.83466 3.68595C0.525031 4.22949 0.310333 4.81193 0.197981 5.41317C0.084562 6.01366 0.02353 6.62106 0.0154331 7.22994C0.00597968 7.50818 0.00498137 7.78733 0 8.0656V29.0413C0.00498137 29.323 0.00597968 29.596 0.0154331 29.8779C0.0235325 30.4867 0.0845645 31.0941 0.197981 31.6946C0.310023 32.2962 0.524733 32.8789 0.83466 33.4227C1.1433 33.9655 1.54863 34.4602 2.03489 34.8876C2.51671 35.3205 3.07343 35.6816 3.68379 35.9572C4.29342 36.2334 4.94617 36.4264 5.62019 36.5297C6.29519 36.6285 6.97754 36.6821 7.66153 36.6901C7.9764 36.6963 8.28578 36.6998 8.59765 36.6998C8.97021 36.7017 9.3393 36.7017 9.71284 36.7017H112.193C112.559 36.7017 112.931 36.7017 113.297 36.6998C113.607 36.6998 113.926 36.6963 114.236 36.6901C114.919 36.6825 115.6 36.6289 116.273 36.5297C116.95 36.4256 117.605 36.2327 118.217 35.9572C118.827 35.6815 119.383 35.3203 119.865 34.8876C120.35 34.4586 120.756 33.9642 121.068 33.4227C121.376 32.8785 121.589 32.2958 121.699 31.6946C121.813 31.094 121.876 30.4868 121.888 29.8779C121.892 29.596 121.892 29.323 121.892 29.0413C121.9 28.7116 121.9 28.3837 121.9 28.0487V9.05638C121.9 8.72405 121.9 8.39438 121.892 8.0656C121.892 7.78733 121.892 7.50818 121.888 7.22991C121.876 6.62097 121.813 6.0137 121.699 5.41314C121.588 4.81224 121.376 4.22984 121.068 3.68592C120.44 2.59429 119.442 1.70571 118.217 1.14516C117.605 0.870419 116.95 0.678645 116.273 0.576172C115.6 0.476152 114.919 0.422525 114.236 0.415766C113.926 0.411338 113.607 0.40602 113.297 0.40425C112.931 0.402435 112.559 0.402435 112.193 0.402435V0.402553Z" fill="black"/>
<path id="Vector_2" d="M8.60246 35.9076C8.29209 35.9076 7.98921 35.9041 7.68127 35.8979C7.04335 35.8905 6.40693 35.841 5.77721 35.7499C5.19003 35.6598 4.62121 35.4922 4.08951 35.2527C3.56269 35.0151 3.08219 34.7036 2.66641 34.3301C2.24461 33.9611 1.89345 33.533 1.62683 33.0629C1.35728 32.5897 1.17073 32.0825 1.07368 31.559C0.968887 30.9964 0.912187 30.4276 0.904074 29.8575C0.897615 29.6661 0.88916 29.0288 0.88916 29.0288V8.0656C0.88916 8.0656 0.898165 7.43816 0.904125 7.25383C0.911893 6.68455 0.968263 6.11662 1.07275 5.55496C1.16997 5.03001 1.35666 4.52136 1.62636 4.04665C1.892 3.57686 2.24121 3.14845 2.66047 2.77804C3.07925 2.4041 3.5613 2.09101 4.08901 1.85017C4.61949 1.6114 5.18723 1.445 5.77323 1.35656C6.40501 1.26451 7.04365 1.21474 7.68378 1.20767L8.60296 1.19659H113.292L114.222 1.20812C114.856 1.21483 115.489 1.26416 116.115 1.35567C116.707 1.44522 117.281 1.61278 117.817 1.85283C118.874 2.33819 119.735 3.10608 120.277 4.04886C120.543 4.5203 120.726 5.02479 120.822 5.54522C120.928 6.11149 120.987 6.68387 121 7.25782C121.002 7.51482 121.002 7.79087 121.002 8.0656C121.011 8.4059 121.011 8.72981 121.011 9.05638V28.0487C121.011 28.3784 121.011 28.7001 121.002 29.0244C121.002 29.3195 121.002 29.5898 120.999 29.8681C120.987 30.4318 120.928 30.994 120.824 31.5501C120.729 32.0774 120.544 32.5885 120.274 33.0656C120.006 33.5306 119.657 33.955 119.24 34.3231C118.824 34.6986 118.342 35.0119 117.814 35.251C117.279 35.4923 116.706 35.6605 116.115 35.7499C115.485 35.8415 114.849 35.891 114.211 35.8979C113.913 35.9041 113.6 35.9076 113.297 35.9076L112.192 35.9094L8.60246 35.9076Z" fill="white"/>
</g>
<g id="&#60;Group&#62;">
<g id="&#60;Group&#62;_2">
<g id="&#60;Group&#62;_3">
<path id="&#60;Path&#62;" d="M25.4638 18.4512C25.4751 17.6636 25.71 16.8913 26.1465 16.2062C26.5829 15.5211 27.2068 14.9456 27.9601 14.533C27.4816 13.9242 26.8503 13.4231 26.1164 13.0697C25.3824 12.7162 24.5661 12.5201 23.7322 12.4968C21.9533 12.3305 20.2288 13.4451 19.3223 13.4451C18.3983 13.4451 17.0026 12.5134 15.4997 12.5409C14.5276 12.5689 13.5802 12.8207 12.7498 13.2718C11.9194 13.723 11.2344 14.358 10.7614 15.1151C8.71274 18.275 10.2409 22.9189 12.2034 25.4731C13.1853 26.7238 14.3328 28.1209 15.8344 28.0713C17.3037 28.017 17.8525 27.2367 19.6261 27.2367C21.3833 27.2367 21.8981 28.0713 23.4302 28.0398C25.0069 28.017 26.0002 26.7836 26.9477 25.521C27.6532 24.6298 28.196 23.6449 28.5562 22.6027C27.6402 22.2575 26.8585 21.6798 26.3085 20.9416C25.7586 20.2033 25.4648 19.3372 25.4638 18.4512Z" fill="black"/>
<path id="&#60;Path&#62;_2" d="M22.57 10.8173C23.4297 9.89799 23.8532 8.71632 23.7507 7.52328C22.4373 7.64617 21.2241 8.20536 20.3528 9.08943C19.9268 9.52132 19.6005 10.0238 19.3926 10.5681C19.1847 11.1123 19.0993 11.6878 19.1412 12.2615C19.7982 12.2675 20.4481 12.1407 21.042 11.8905C21.6359 11.6404 22.1584 11.2734 22.57 10.8173Z" fill="black"/>
</g>
</g>
<g id="Group_4">
<path id="Vector_3" d="M43.092 25.0312H38.2701L37.1122 28.0771H35.0698L39.637 16.8081H41.7589L46.3261 28.0771H44.2489L43.092 25.0312ZM38.7695 23.6257H42.5916L40.7074 18.6824H40.6547L38.7695 23.6257Z" fill="black"/>
<path id="Vector_4" d="M56.1897 23.9693C56.1897 26.5225 54.6557 28.1629 52.3407 28.1629C51.7543 28.1902 51.1711 28.0699 50.6579 27.8156C50.1447 27.5614 49.7222 27.1836 49.4389 26.7254H49.3951V30.7949H47.502V19.8609H49.3344V21.2274H49.3692C49.6656 20.7714 50.0952 20.3955 50.6123 20.1398C51.1294 19.884 51.7147 19.7579 52.3059 19.7749C54.6467 19.7749 56.1897 21.4232 56.1897 23.9693ZM54.2438 23.9693C54.2438 22.3059 53.2788 21.2123 51.8065 21.2123C50.3601 21.2123 49.3871 22.329 49.3871 23.9693C49.3871 25.6248 50.3601 26.7334 51.8065 26.7334C53.2788 26.7334 54.2438 25.6478 54.2438 23.9693H54.2438Z" fill="black"/>
<path id="Vector_5" d="M66.341 23.9693C66.341 26.5225 64.8065 28.1629 62.4916 28.1629C61.9052 28.1902 61.322 28.0699 60.8088 27.8156C60.2956 27.5614 59.8731 27.1836 59.5898 26.7254H59.546V30.7949H57.6528V19.8609H59.4853V21.2274H59.5201C59.8165 20.7714 60.2461 20.3955 60.7632 20.1398C61.2803 19.884 61.8656 19.7579 62.4568 19.7749C64.7976 19.7749 66.341 21.4232 66.341 23.9693ZM64.3947 23.9693C64.3947 22.3059 63.4297 21.2123 61.9574 21.2123C60.511 21.2123 59.538 22.329 59.538 23.9693C59.538 25.6248 60.511 26.7334 61.9574 26.7334C63.4297 26.7334 64.3947 25.6478 64.3947 23.9693Z" fill="black"/>
<path id="Vector_6" d="M73.0493 24.9373C73.1895 26.0548 74.4082 26.7885 76.0735 26.7885C77.6692 26.7885 78.8172 26.0548 78.8172 25.0471C78.8172 24.1725 78.1248 23.6487 76.4853 23.2898L74.8459 22.938C72.523 22.4381 71.4446 21.4704 71.4446 19.9C71.4446 17.9557 73.3467 16.6202 76.0466 16.6202C78.7207 16.6202 80.5531 17.9557 80.6148 19.9H78.7037C78.5893 18.7754 77.5458 18.0966 76.0207 18.0966C74.4957 18.0966 73.4522 18.7834 73.4522 19.7831C73.4522 20.5798 74.1187 21.0486 75.7492 21.4074L77.1429 21.7123C79.7383 22.2591 80.8157 23.1879 80.8157 24.8362C80.8157 26.9445 78.9316 28.2649 75.9332 28.2649C73.1278 28.2649 71.2337 26.9755 71.1113 24.9372L73.0493 24.9373Z" fill="black"/>
<path id="Vector_7" d="M84.9032 17.9167V19.8611H86.6571V21.1966H84.9032V25.726C84.9032 26.4296 85.2544 26.7575 86.0254 26.7575C86.2336 26.7543 86.4415 26.7413 86.6481 26.7185V28.0461C86.3015 28.1038 85.9492 28.1299 85.5966 28.124C83.7294 28.124 83.0012 27.4993 83.0012 25.9059V21.1966H81.6602V19.8611H83.0011V17.9167H84.9032Z" fill="black"/>
<path id="Vector_8" d="M87.6719 23.9695C87.6719 21.3845 89.3809 19.76 92.046 19.76C94.7201 19.76 96.4212 21.3844 96.4212 23.9695C96.4212 26.5617 94.7291 28.179 92.046 28.179C89.364 28.179 87.6719 26.5617 87.6719 23.9695ZM94.4923 23.9695C94.4923 22.1962 93.58 21.1496 92.046 21.1496C90.512 21.1496 89.5998 22.2042 89.5998 23.9695C89.5998 25.7499 90.512 26.7886 92.046 26.7886C93.58 26.7886 94.4923 25.7499 94.4923 23.9695H94.4923Z" fill="black"/>
<path id="Vector_9" d="M97.9819 19.8608H99.7875V21.2592H99.8313C99.9535 20.8224 100.241 20.4365 100.645 20.1661C101.049 19.8958 101.545 19.7576 102.05 19.7748C102.268 19.7741 102.485 19.7952 102.698 19.8377V21.4152C102.423 21.3402 102.136 21.3058 101.848 21.3133C101.573 21.3033 101.299 21.3465 101.044 21.4399C100.79 21.5333 100.561 21.6746 100.373 21.8542C100.186 22.0337 100.044 22.2473 99.9583 22.4803C99.8723 22.7132 99.8439 22.9599 99.8751 23.2035V28.0768H97.9819L97.9819 19.8608Z" fill="black"/>
<path id="Vector_10" d="M111.427 25.664C111.172 27.1554 109.542 28.179 107.456 28.179C104.773 28.179 103.107 26.5776 103.107 24.0085C103.107 21.4314 104.782 19.76 107.376 19.76C109.928 19.76 111.532 21.3215 111.532 23.8127V24.3905H105.018V24.4924C104.988 24.7948 105.031 25.0994 105.143 25.386C105.255 25.6726 105.435 25.9347 105.669 26.1548C105.904 26.3749 106.189 26.548 106.504 26.6626C106.82 26.7772 107.159 26.8307 107.5 26.8196C107.947 26.8569 108.396 26.7646 108.78 26.5564C109.163 26.3482 109.461 26.0352 109.629 25.664L111.427 25.664ZM105.027 23.2118H109.638C109.655 22.9399 109.609 22.6679 109.502 22.4127C109.396 22.1575 109.231 21.9247 109.019 21.7289C108.806 21.5331 108.551 21.3785 108.268 21.2749C107.985 21.1712 107.682 21.1207 107.376 21.1266C107.068 21.1249 106.762 21.1777 106.477 21.2818C106.192 21.386 105.932 21.5394 105.714 21.7332C105.496 21.9271 105.323 22.1576 105.205 22.4114C105.087 22.6651 105.027 22.9372 105.027 23.2118V23.2118Z" fill="black"/>
</g>
</g>
</g>
<g id="&#60;Group&#62;_4">
<g id="Group_5">
<path id="Vector_11" d="M37.4249 10.6148H38.2376C38.3776 10.6303 38.5196 10.6198 38.6547 10.584C38.7899 10.5482 38.9152 10.4879 39.0229 10.4068C39.1305 10.3257 39.2182 10.2256 39.2803 10.1128C39.3424 10.0001 39.3776 9.87708 39.3837 9.7516C39.3837 9.25222 38.9619 8.92964 38.2466 8.92964C38.1033 8.9118 37.9574 8.91972 37.8175 8.95294C37.6777 8.98617 37.5467 9.04401 37.4324 9.12307C37.318 9.20212 37.2226 9.30078 37.1518 9.41323C37.081 9.52567 37.0362 9.64962 37.02 9.77774H36.1276C36.143 9.54516 36.2119 9.31788 36.3302 9.11006C36.4484 8.90223 36.6134 8.71832 36.8149 8.56976C37.0163 8.4212 37.25 8.31118 37.5013 8.24655C37.7525 8.18192 38.0161 8.16406 38.2754 8.19409C39.4722 8.19409 40.3148 8.79094 40.3148 9.65012C40.3176 9.93796 40.2095 10.2179 40.0086 10.4433C39.8076 10.6687 39.5259 10.8259 39.2106 10.8886V10.9524C39.5844 10.9672 39.9365 11.1132 40.1899 11.3586C40.4432 11.6039 40.5772 11.9287 40.5625 12.2618C40.5349 12.5013 40.4538 12.7334 40.3241 12.9446C40.1944 13.1558 40.0187 13.3418 39.8073 13.4918C39.5959 13.6417 39.353 13.7525 39.0928 13.8178C38.8327 13.883 38.5605 13.9013 38.2924 13.8716C38.0236 13.9042 37.7503 13.8883 37.4886 13.8248C37.2269 13.7614 36.9822 13.6516 36.7691 13.5021C36.5561 13.3525 36.379 13.1663 36.2485 12.9545C36.1179 12.7428 36.0366 12.5097 36.0093 12.2693H36.9156C36.9703 12.7873 37.5045 13.1214 38.2924 13.1214C39.0802 13.1214 39.5946 12.7461 39.5946 12.2171C39.5946 11.6805 39.1101 11.3499 38.2635 11.3499H37.4249V10.6148Z" fill="black"/>
<path id="Vector_12" d="M41.5923 12.5845C41.5923 11.8489 42.2081 11.4249 43.2984 11.3646L44.5409 11.3008V10.9481C44.5409 10.5165 44.2216 10.2728 43.6018 10.2728C43.0964 10.2728 42.7473 10.4381 42.6458 10.727H41.7694C41.8619 10.0251 42.604 9.57492 43.6446 9.57492C44.7946 9.57492 45.4432 10.0849 45.4432 10.9481V13.7401H44.5707V13.1658H44.4991C44.3537 13.3718 44.1496 13.5398 43.9075 13.6525C43.6655 13.7652 43.3942 13.8187 43.1213 13.8074C42.9287 13.8253 42.7341 13.807 42.55 13.7537C42.3658 13.7004 42.1963 13.6134 42.0522 13.4982C41.9082 13.3829 41.7928 13.2421 41.7136 13.0847C41.6344 12.9274 41.593 12.7569 41.5923 12.5845ZM44.5409 12.2353V11.8937L43.4207 11.9575C42.789 11.9951 42.5025 12.1866 42.5025 12.5468C42.5025 12.9146 42.8606 13.1286 43.3531 13.1286C43.4974 13.1416 43.6431 13.1286 43.7817 13.0905C43.9202 13.0523 44.0488 12.9896 44.1596 12.9063C44.2704 12.8229 44.3613 12.7206 44.4268 12.6053C44.4923 12.49 44.5311 12.3642 44.5409 12.2353Z" fill="black"/>
<path id="Vector_13" d="M47.8457 10.3326V13.7401H46.9404V9.65378H49.9607V10.3326L47.8457 10.3326Z" fill="black"/>
<path id="Vector_14" d="M55.4467 11.6959C55.4467 12.9941 54.7096 13.8081 53.5516 13.8081C53.2674 13.8254 52.9835 13.77 52.7334 13.6484C52.4833 13.5268 52.2774 13.3441 52.14 13.1218H52.0684V15.0993H51.1631V9.65447H52.0345V10.3298H52.1022C52.2421 10.0997 52.4507 9.90852 52.7049 9.77739C52.9591 9.64625 53.249 9.58026 53.5427 9.5867C54.7096 9.58668 55.4467 10.3971 55.4467 11.6959ZM54.5156 11.6959C54.5156 10.8327 54.057 10.3112 53.29 10.3112C52.528 10.3112 52.0515 10.8438 52.0515 11.6994C52.0515 12.5511 52.528 13.0841 53.286 13.0841C54.057 13.0841 54.5156 12.5626 54.5156 11.6959Z" fill="black"/>
<path id="Vector_15" d="M56.6527 15.2037V14.5093C56.7506 14.5204 56.8493 14.5254 56.9481 14.5244C57.1409 14.5371 57.3323 14.4859 57.4854 14.3807C57.6385 14.2754 57.7426 14.1235 57.7777 13.9541L57.8454 13.7551L56.1851 9.65378H57.1709L58.321 12.8995H58.3926L59.5386 9.65378H60.4986L58.7885 13.9089C58.3966 14.9032 57.9628 15.2223 57.0277 15.2223C56.9521 15.2223 56.7372 15.2147 56.6527 15.2037Z" fill="black"/>
<path id="Vector_16" d="M61.2036 12.5805H62.1049C62.1934 12.9408 62.5725 13.1287 63.1027 13.1287C63.7056 13.1287 64.0756 12.892 64.0756 12.5243C64.0756 12.1304 63.7434 11.9425 63.1027 11.9425H62.4163V11.3159H63.0908C63.6379 11.3159 63.9165 11.1285 63.9165 10.7869C63.9165 10.4869 63.6469 10.2578 63.0908 10.2578C62.5844 10.2578 62.2143 10.4492 62.1556 10.7718H61.2832C61.3484 10.4012 61.5743 10.0681 61.9124 9.84428C62.2504 9.62047 62.6735 9.52377 63.0908 9.575C64.1811 9.575 64.8048 10.0141 64.8048 10.7045C64.8099 10.8967 64.7408 11.0847 64.609 11.237C64.4771 11.3892 64.2906 11.4966 64.0806 11.5411V11.6049C64.3306 11.6336 64.5601 11.7431 64.7255 11.9126C64.8909 12.0821 64.9808 12.2997 64.9779 12.5243C64.9779 13.3011 64.2358 13.8151 63.1027 13.8151C62.1009 13.815 61.2872 13.4061 61.2036 12.5805Z" fill="black"/>
<path id="Vector_17" d="M66.2817 13.7401V9.65378H67.1791V12.4644H67.2507L69.3647 9.65379H70.262V13.7401H69.3647V10.9144H69.297L67.1791 13.7401L66.2817 13.7401Z" fill="black"/>
<path id="Vector_18" d="M75.2054 10.3333H73.7609V13.7408H72.8546V10.3333H71.4102V9.65451H75.2054V10.3333Z" fill="black"/>
<path id="Vector_19" d="M80.0817 12.6368C79.9584 13.0103 79.6917 13.3332 79.3282 13.5493C78.9647 13.7654 78.5275 13.8609 78.0931 13.819C77.7909 13.8261 77.4906 13.7746 77.213 13.6679C76.9354 13.5612 76.6872 13.4021 76.4856 13.2014C76.2839 13.0007 76.1338 12.7633 76.0455 12.5058C75.9572 12.2482 75.9328 11.9766 75.9742 11.7098C75.9339 11.4422 75.9587 11.1701 76.0468 10.9117C76.1349 10.6534 76.2843 10.4149 76.4848 10.2125C76.6854 10.0101 76.9324 9.84838 77.2092 9.73838C77.486 9.62839 77.786 9.57266 78.0891 9.57496C79.3655 9.57496 80.1364 10.3518 80.1364 11.6349V11.9163H76.8973V11.9615C76.883 12.1115 76.904 12.2625 76.9591 12.4048C77.0142 12.5472 77.1021 12.6776 77.2171 12.7879C77.3322 12.8981 77.4718 12.9857 77.6272 13.045C77.7825 13.1043 77.95 13.134 78.119 13.1322C78.3354 13.1552 78.5546 13.1204 78.7487 13.0322C78.9429 12.944 79.1032 12.8064 79.2093 12.6368L80.0817 12.6368ZM76.8973 11.3199H79.2132C79.2247 11.1828 79.2038 11.0451 79.152 10.9157C79.1001 10.7862 79.0185 10.6678 78.9122 10.5682C78.806 10.4685 78.6775 10.3897 78.5351 10.3368C78.3927 10.284 78.2394 10.2583 78.0851 10.2613C77.9285 10.2594 77.7731 10.2855 77.6279 10.3381C77.4828 10.3906 77.351 10.4685 77.2403 10.5672C77.1296 10.6659 77.0422 10.7833 76.9833 10.9126C76.9244 11.0419 76.8951 11.1804 76.8973 11.3199H76.8973Z" fill="black"/>
<path id="Vector_20" d="M83.9199 9.65378H85.9881C86.8854 9.65378 87.4117 10.0588 87.4117 10.6928C87.4131 10.894 87.3369 11.0896 87.1958 11.2467C87.0547 11.4038 86.8574 11.513 86.6367 11.556V11.6198C86.9046 11.6349 87.1558 11.741 87.3383 11.9164C87.5209 12.0917 87.6208 12.3228 87.6176 12.5619C87.6176 13.2748 87.0158 13.7401 86.009 13.7401H83.9199V9.65378ZM84.8172 10.2728V11.3309H85.7146C86.2617 11.3309 86.5233 11.1435 86.5233 10.7979C86.5233 10.4793 86.2955 10.2728 85.815 10.2728L84.8172 10.2728ZM84.8172 11.9238V13.1211H85.8907C86.4259 13.1211 86.7124 12.9106 86.7124 12.5242C86.7124 12.1152 86.3881 11.9238 85.7772 11.9238L84.8172 11.9238Z" fill="black"/>
</g>
</g>
</g>
</svg>
