<svg width="107" height="37" viewBox="0 0 107 37" fill="none" xmlns="http://www.w3.org/2000/svg">
<g id="Group">
<g id="Group_2">
<g id="Group_3">
<path id="Vector" d="M97.8656 0.0220906H8.4725C8.14666 0.0220906 7.82472 0.0220906 7.49973 0.0239056C7.22768 0.0257205 6.95781 0.030993 6.68315 0.0354305C6.08647 0.0426013 5.49119 0.09621 4.90249 0.195791C4.31461 0.29754 3.74515 0.489365 3.21337 0.764779C2.68223 1.04252 2.19692 1.40342 1.77504 1.83439C1.35094 2.26414 0.997419 2.76087 0.728073 3.30549C0.457984 3.84902 0.270703 4.43147 0.172699 5.03271C0.0737634 5.63319 0.0205252 6.2406 0.0134623 6.84948C0.00521607 7.12771 0.00434525 7.40687 0 7.68514V28.6608C0.00434525 28.9426 0.00521607 29.2156 0.0134623 29.4974C0.0205274 30.1063 0.0737656 30.7136 0.172699 31.3141C0.270433 31.9157 0.457724 32.4985 0.728073 33.0422C0.997297 33.5851 1.35087 34.0798 1.77504 34.5071C2.19532 34.94 2.68095 35.3012 3.21337 35.5768C3.74515 35.8529 4.31455 36.0459 4.90249 36.1492C5.49129 36.248 6.08651 36.3016 6.68315 36.3097C6.95781 36.3158 7.22768 36.3194 7.49973 36.3194C7.82471 36.3212 8.14667 36.3212 8.4725 36.3212H97.8656C98.185 36.3212 98.5095 36.3212 98.8289 36.3194C99.0996 36.3194 99.3773 36.3158 99.648 36.3097C100.244 36.3021 100.838 36.2484 101.425 36.1492C102.015 36.0452 102.587 35.8523 103.121 35.5768C103.653 35.301 104.138 34.9399 104.558 34.5071C104.981 34.0781 105.335 33.5837 105.608 33.0422C105.876 32.4981 106.062 31.9153 106.158 31.3141C106.257 30.7136 106.312 30.1063 106.323 29.4974C106.326 29.2156 106.326 28.9426 106.326 28.6608C106.333 28.3311 106.333 28.0033 106.333 27.6682V8.67591C106.333 8.34359 106.333 8.01392 106.326 7.68514C106.326 7.40687 106.326 7.12771 106.323 6.84944C106.312 6.24051 106.257 5.63324 106.158 5.03267C106.061 4.43178 105.876 3.84938 105.608 3.30545C105.059 2.21383 104.19 1.32525 103.121 0.764698C102.587 0.489956 102.015 0.298182 101.425 0.195709C100.838 0.0956896 100.244 0.0420622 99.648 0.0353035C99.3773 0.030875 99.0996 0.0255572 98.8289 0.0237876C98.5095 0.0219727 98.185 0.0219727 97.8656 0.0219727V0.0220906Z" fill="black"/>
<path id="Vector_2" d="M7.50394 35.5269C7.23321 35.5269 6.96901 35.5234 6.70039 35.5172C6.14394 35.5098 5.58878 35.4604 5.03948 35.3692C4.52728 35.2791 4.0311 35.1116 3.5673 34.872C3.10775 34.6345 2.68861 34.323 2.32593 33.9495C1.958 33.5804 1.65167 33.1523 1.4191 32.6822C1.18397 32.209 1.02125 31.7018 0.936596 31.1783C0.84518 30.6158 0.795721 30.047 0.788644 29.4768C0.78301 29.2854 0.775635 28.6482 0.775635 28.6482V7.68492C0.775635 7.68492 0.78349 7.05749 0.788688 6.87315C0.795465 6.30387 0.844636 5.73595 0.935778 5.17429C1.02058 4.64933 1.18344 4.14069 1.4187 3.66597C1.65041 3.19618 1.95503 2.76778 2.32075 2.39736C2.68605 2.02343 3.10654 1.71033 3.56687 1.46949C4.0296 1.23072 4.52484 1.06432 5.036 0.975879C5.58711 0.88383 6.14419 0.834064 6.70258 0.826998L7.50438 0.815918H98.8244L99.6358 0.827443C100.189 0.834158 100.741 0.88348 101.287 0.97499C101.803 1.06454 102.304 1.2321 102.772 1.47215C103.694 1.95751 104.444 2.7254 104.918 3.66818C105.149 4.13963 105.31 4.64412 105.393 5.16454C105.486 5.73081 105.537 6.3032 105.548 6.87714C105.55 7.13414 105.55 7.41019 105.55 7.68492C105.557 8.02523 105.557 8.34913 105.557 8.6757V27.668C105.557 27.9977 105.557 28.3194 105.55 28.6437C105.55 28.9388 105.55 29.2092 105.547 29.4874C105.537 30.0511 105.486 30.6133 105.395 31.1694C105.312 31.6967 105.15 32.2078 104.915 32.6849C104.681 33.1499 104.377 33.5743 104.013 33.9424C103.65 34.3179 103.23 34.6312 102.769 34.8703C102.303 35.1117 101.803 35.2799 101.287 35.3692C100.738 35.4608 100.183 35.5103 99.6262 35.5172C99.3659 35.5234 99.0934 35.5269 98.8287 35.5269L97.8655 35.5288L7.50394 35.5269Z" fill="white"/>
</g>
<g id="&#60;Group&#62;">
<g id="&#60;Group&#62;_2">
<g id="&#60;Group&#62;_3">
<path id="&#60;Path&#62;" d="M22.212 18.0709C22.222 17.2833 22.4268 16.511 22.8076 15.8259C23.1883 15.1408 23.7325 14.5652 24.3896 14.1527C23.9722 13.5439 23.4215 13.0428 22.7813 12.6894C22.1411 12.3359 21.429 12.1398 20.7016 12.1165C19.1499 11.9502 17.6456 13.0648 16.8548 13.0648C16.0488 13.0648 14.8314 12.133 13.5204 12.1606C12.6724 12.1886 11.846 12.4404 11.1217 12.8915C10.3973 13.3427 9.79975 13.9777 9.38719 14.7348C7.60012 17.8947 8.93312 22.5386 10.645 25.0928C11.5015 26.3435 12.5025 27.7406 13.8123 27.691C15.094 27.6367 15.5727 26.8564 17.1199 26.8564C18.6526 26.8564 19.1017 27.691 20.4381 27.6595C21.8135 27.6367 22.68 26.4033 23.5065 25.1407C24.1219 24.2495 24.5954 23.2646 24.9096 22.2224C24.1105 21.8772 23.4286 21.2995 22.9489 20.5613C22.4692 19.823 22.213 18.9569 22.212 18.0709Z" fill="black"/>
<path id="&#60;Path&#62;_2" d="M19.688 10.4371C20.4379 9.51777 20.8073 8.3361 20.7178 7.14307C19.5722 7.26595 18.5139 7.82514 17.7539 8.70921C17.3823 9.1411 17.0977 9.64355 16.9163 10.1878C16.735 10.7321 16.6605 11.3076 16.697 11.8813C17.2701 11.8873 17.837 11.7605 18.3551 11.5103C18.8731 11.2602 19.3289 10.8932 19.688 10.4371Z" fill="black"/>
</g>
</g>
<g id="Group_4">
<path id="Vector_3" d="M37.5893 24.6509H33.3832L32.3731 27.6968H30.5916L34.5755 16.4277H36.4264L40.4104 27.6968H38.5985L37.5893 24.6509ZM33.8188 23.2454H37.1528L35.5092 18.3021H35.4632L33.8188 23.2454Z" fill="black"/>
<path id="Vector_4" d="M49.0143 23.589C49.0143 26.1422 47.6762 27.7825 45.6569 27.7825C45.1454 27.8099 44.6367 27.6895 44.189 27.4353C43.7413 27.1811 43.3728 26.8033 43.1256 26.3451H43.0874V30.4146H41.436V19.4805H43.0345V20.8471H43.0648C43.3234 20.3911 43.6981 20.0152 44.1492 19.7595C44.6003 19.5037 45.1108 19.3776 45.6265 19.3946C47.6684 19.3946 49.0143 21.0429 49.0143 23.589ZM47.317 23.589C47.317 21.9256 46.4752 20.832 45.1909 20.832C43.9292 20.832 43.0805 21.9486 43.0805 23.589C43.0805 25.2445 43.9292 26.3531 45.1909 26.3531C46.4752 26.3531 47.3169 25.2675 47.3169 23.589H47.317Z" fill="black"/>
<path id="Vector_5" d="M57.8695 23.589C57.8695 26.1422 56.5309 27.7825 54.5116 27.7825C54.0001 27.8099 53.4914 27.6895 53.0437 27.4353C52.596 27.1811 52.2275 26.8033 51.9803 26.3451H51.9421V30.4146H50.2908V19.4805H51.8892V20.8471H51.9196C52.1781 20.3911 52.5529 20.0152 53.0039 19.7595C53.455 19.5037 53.9656 19.3776 54.4812 19.3946C56.5231 19.3946 57.8695 21.0429 57.8695 23.589ZM56.1717 23.589C56.1717 21.9256 55.3299 20.832 54.0456 20.832C52.7839 20.832 51.9352 21.9486 51.9352 23.589C51.9352 25.2445 52.7839 26.3531 54.0456 26.3531C55.3299 26.3531 56.1717 25.2675 56.1717 23.589Z" fill="black"/>
<path id="Vector_6" d="M63.721 24.5569C63.8433 25.6744 64.9064 26.4081 66.359 26.4081C67.7509 26.4081 68.7523 25.6743 68.7523 24.6667C68.7523 23.792 68.1484 23.2683 66.7183 22.9094L65.2882 22.5575C63.2619 22.0577 62.3213 21.09 62.3213 19.5196C62.3213 17.5753 63.9805 16.2397 66.3356 16.2397C68.6682 16.2397 70.2666 17.5753 70.3204 19.5196H68.6534C68.5536 18.395 67.6433 17.7162 66.313 17.7162C64.9827 17.7162 64.0724 18.403 64.0724 19.4026C64.0724 20.1993 64.6538 20.6681 66.0761 21.027L67.2918 21.3319C69.5559 21.8787 70.4957 22.8074 70.4957 24.4558C70.4957 26.564 68.8521 27.8845 66.2366 27.8845C63.7895 27.8845 62.1373 26.5951 62.0305 24.5568L63.721 24.5569Z" fill="black"/>
<path id="Vector_7" d="M74.0614 17.5361V19.4805H75.5912V20.816H74.0614V25.3454C74.0614 26.0491 74.3677 26.377 75.0402 26.377C75.2218 26.3737 75.4032 26.3607 75.5834 26.3379V27.6655C75.2811 27.7232 74.9737 27.7493 74.6662 27.7435C73.0374 27.7435 72.4022 27.1187 72.4022 25.5253V20.816H71.2324V19.4805H72.4022V17.5361H74.0614Z" fill="black"/>
<path id="Vector_8" d="M76.4763 23.5889C76.4763 21.0038 77.9671 19.3794 80.2919 19.3794C82.6245 19.3794 84.1084 21.0038 84.1084 23.5889C84.1084 26.181 82.6323 27.7984 80.2919 27.7984C77.9524 27.7984 76.4763 26.181 76.4763 23.5889ZM82.4258 23.5889C82.4258 21.8156 81.63 20.769 80.2919 20.769C78.9538 20.769 78.1581 21.8236 78.1581 23.5889C78.1581 25.3693 78.9538 26.4079 80.2919 26.4079C81.63 26.4079 82.4257 25.3693 82.4257 23.5889H82.4258Z" fill="black"/>
<path id="Vector_9" d="M85.47 19.4805H87.045V20.8789H87.0832C87.1898 20.4421 87.4403 20.0562 87.7927 19.7858C88.1451 19.5155 88.5779 19.3773 89.0183 19.3945C89.2086 19.3938 89.3984 19.4149 89.5841 19.4574V21.0349C89.3439 20.9599 89.0932 20.9255 88.8421 20.933C88.6022 20.923 88.3631 20.9662 88.1411 21.0596C87.919 21.153 87.7195 21.2943 87.556 21.4739C87.3925 21.6534 87.269 21.867 87.194 22.0999C87.119 22.3329 87.0942 22.5796 87.1213 22.8232V27.6965H85.47L85.47 19.4805Z" fill="black"/>
<path id="Vector_10" d="M97.1978 25.2833C96.9757 26.7748 95.5534 27.7984 93.7337 27.7984C91.3933 27.7984 89.9407 26.197 89.9407 23.6279C89.9407 21.0508 91.4011 19.3794 93.6643 19.3794C95.8901 19.3794 97.2898 20.9409 97.2898 23.432V24.0098H91.6077V24.1117C91.5814 24.4141 91.6185 24.7187 91.7164 25.0053C91.8143 25.292 91.9708 25.554 92.1755 25.7741C92.3802 25.9942 92.6284 26.1674 92.9036 26.282C93.1789 26.3966 93.4748 26.4501 93.7719 26.4389C94.1621 26.4763 94.5537 26.384 94.8885 26.1758C95.2232 25.9675 95.4832 25.6545 95.6298 25.2833L97.1978 25.2833ZM91.6155 22.8312H95.6376C95.6524 22.5593 95.612 22.2872 95.519 22.032C95.426 21.7768 95.2824 21.544 95.0971 21.3482C94.9118 21.1524 94.6889 20.9979 94.4423 20.8942C94.1957 20.7906 93.9308 20.7401 93.6643 20.7459C93.3954 20.7443 93.1288 20.7971 92.8799 20.9012C92.6311 21.0053 92.4049 21.1587 92.2144 21.3526C92.024 21.5465 91.873 21.7769 91.7702 22.0307C91.6673 22.2845 91.6148 22.5565 91.6155 22.8312V22.8312Z" fill="black"/>
</g>
</g>
</g>
<g id="&#60;Group&#62;_4">
<g id="Group_5">
<path id="Vector_11" d="M32.6455 10.2341H33.3544C33.4765 10.2497 33.6004 10.2392 33.7182 10.2034C33.8361 10.1676 33.9455 10.1073 34.0394 10.0262C34.1333 9.94508 34.2098 9.845 34.2639 9.73223C34.3181 9.61947 34.3488 9.49647 34.3541 9.37098C34.3541 8.87161 33.9862 8.54903 33.3623 8.54903C33.2372 8.53118 33.1099 8.53911 32.988 8.57233C32.866 8.60555 32.7517 8.6634 32.652 8.74245C32.5523 8.82151 32.469 8.92017 32.4073 9.03261C32.3455 9.14506 32.3064 9.269 32.2923 9.39713H31.5139C31.5273 9.16454 31.5874 8.93726 31.6906 8.72944C31.7937 8.52162 31.9376 8.3377 32.1134 8.18914C32.2891 8.04059 32.4929 7.93057 32.7121 7.86594C32.9313 7.8013 33.1612 7.78345 33.3874 7.81347C34.4313 7.81347 35.1664 8.41033 35.1664 9.26951C35.1688 9.55734 35.0745 9.83732 34.8992 10.0627C34.7239 10.2881 34.4782 10.4453 34.2031 10.508V10.5718C34.5293 10.5866 34.8364 10.7326 35.0574 10.978C35.2783 11.2233 35.3952 11.5481 35.3824 11.8812C35.3583 12.1206 35.2876 12.3528 35.1745 12.564C35.0614 12.7752 34.9081 12.9612 34.7237 13.1112C34.5392 13.2611 34.3273 13.3719 34.1004 13.4371C33.8735 13.5024 33.6361 13.5207 33.4022 13.491C33.1678 13.5236 32.9293 13.5077 32.701 13.4442C32.4727 13.3807 32.2593 13.271 32.0735 13.1214C31.8876 12.9719 31.7332 12.7857 31.6193 12.5739C31.5054 12.3621 31.4344 12.1291 31.4106 11.8887H32.2012C32.2489 12.4067 32.7149 12.7408 33.4022 12.7408C34.0894 12.7408 34.5381 12.3655 34.5381 11.8365C34.5381 11.2999 34.1155 10.9693 33.377 10.9693H32.6455V10.2341Z" fill="black"/>
<path id="Vector_12" d="M36.2805 12.2039C36.2805 11.4683 36.8177 11.0443 37.7687 10.984L38.8526 10.9202V10.5675C38.8526 10.1359 38.574 9.89222 38.0334 9.89222C37.5926 9.89222 37.288 10.0575 37.1995 10.3464H36.435C36.5157 9.64453 37.163 9.19434 38.0707 9.19434C39.0739 9.19434 39.6397 9.70434 39.6397 10.5675V13.3595H38.8786V12.7853H38.8162C38.6893 12.9912 38.5113 13.1592 38.3001 13.2719C38.089 13.3846 37.8523 13.4381 37.6143 13.4268C37.4463 13.4447 37.2765 13.4264 37.1159 13.3731C36.9553 13.3198 36.8074 13.2328 36.6817 13.1176C36.5561 13.0024 36.4554 12.8615 36.3863 12.7041C36.3172 12.5468 36.2812 12.3764 36.2805 12.2039ZM38.8526 11.8547V11.5131L37.8754 11.5769C37.3244 11.6146 37.0745 11.806 37.0745 12.1662C37.0745 12.534 37.3869 12.748 37.8165 12.748C37.9423 12.761 38.0695 12.7481 38.1903 12.7099C38.3112 12.6717 38.4233 12.609 38.52 12.5257C38.6166 12.4424 38.6959 12.34 38.753 12.2247C38.8102 12.1095 38.844 11.9836 38.8526 11.8547Z" fill="black"/>
<path id="Vector_13" d="M41.7355 9.95179V13.3593H40.9458V9.27295H43.5804V9.95174L41.7355 9.95179Z" fill="black"/>
<path id="Vector_14" d="M48.366 11.3151C48.366 12.6134 47.723 13.4274 46.7129 13.4274C46.465 13.4447 46.2173 13.3893 45.9992 13.2677C45.781 13.1461 45.6014 12.9634 45.4816 12.7411H45.4191V14.7186H44.6294V9.27377H45.3896V9.94908H45.4486C45.5706 9.71899 45.7525 9.52781 45.9743 9.39668C46.196 9.26555 46.449 9.19956 46.7051 9.206C47.723 9.20597 48.366 10.0164 48.366 11.3151ZM47.5538 11.3151C47.5538 10.452 47.1537 9.93045 46.4847 9.93045C45.82 9.93045 45.4043 10.4631 45.4043 11.3187C45.4043 12.1703 45.82 12.7034 46.4812 12.7034C47.1537 12.7034 47.5538 12.1819 47.5538 11.3151Z" fill="black"/>
<path id="Vector_15" d="M49.4176 14.8228V14.1285C49.5031 14.1396 49.5892 14.1446 49.6753 14.1436C49.8436 14.1563 50.0105 14.1051 50.1441 13.9999C50.2776 13.8946 50.3684 13.7427 50.3991 13.5733L50.4581 13.3743L49.0098 9.27295H49.8697L50.8729 12.5187H50.9354L51.9351 9.27295H52.7725L51.2808 13.5281C50.9389 14.5224 50.5605 14.8414 49.7448 14.8414C49.6789 14.8414 49.4914 14.8339 49.4176 14.8228Z" fill="black"/>
<path id="Vector_16" d="M53.3879 12.2001H54.1741C54.2514 12.5604 54.582 12.7482 55.0445 12.7482C55.5704 12.7482 55.8932 12.5116 55.8932 12.1439C55.8932 11.7499 55.6034 11.5621 55.0445 11.5621H54.4458V10.9355H55.0341C55.5114 10.9355 55.7544 10.7481 55.7544 10.4064C55.7544 10.1065 55.5192 9.87739 55.0341 9.87739C54.5924 9.87739 54.2696 10.0688 54.2184 10.3914H53.4574C53.5143 10.0207 53.7113 9.68767 54.0062 9.46385C54.3011 9.24003 54.6702 9.14334 55.0341 9.19457C55.9852 9.19457 56.5293 9.63369 56.5293 10.324C56.5337 10.5163 56.4734 10.7043 56.3584 10.8565C56.2434 11.0088 56.0807 11.1162 55.8975 11.1606V11.2244C56.1156 11.2532 56.3158 11.3627 56.4601 11.5321C56.6044 11.7016 56.6827 11.9193 56.6803 12.1439C56.6803 12.9207 56.0329 13.4346 55.0445 13.4346C54.1707 13.4346 53.4608 13.0256 53.3879 12.2001Z" fill="black"/>
<path id="Vector_17" d="M57.8174 13.3593V9.27295H58.6001V12.0836H58.6626L60.5066 9.27296H61.2893V13.3593H60.5066V10.5336H60.4476L58.6001 13.3593L57.8174 13.3593Z" fill="black"/>
<path id="Vector_18" d="M65.6014 9.95272H64.3413V13.3602H63.5508V9.95272H62.2908V9.27393H65.6014V9.95272Z" fill="black"/>
<path id="Vector_19" d="M69.855 12.2563C69.7474 12.6297 69.5147 12.9527 69.1977 13.1688C68.8806 13.3848 68.4993 13.4803 68.1203 13.4385C67.8567 13.4456 67.5947 13.394 67.3526 13.2873C67.1104 13.1807 66.8939 13.0215 66.718 12.8208C66.5422 12.6201 66.4112 12.3828 66.3342 12.1252C66.2571 11.8677 66.2359 11.5961 66.2719 11.3293C66.2368 11.0617 66.2584 10.7895 66.3353 10.5312C66.4122 10.2728 66.5425 10.0344 66.7174 9.83194C66.8923 9.62951 67.1078 9.46782 67.3493 9.35783C67.5907 9.24783 67.8525 9.1921 68.1168 9.1944C69.2302 9.1944 69.9027 9.97121 69.9027 11.2544V11.5358H67.0772V11.581C67.0647 11.731 67.0831 11.882 67.1311 12.0243C67.1792 12.1666 67.2558 12.2971 67.3562 12.4073C67.4565 12.5176 67.5784 12.6052 67.7139 12.6645C67.8494 12.7238 67.9955 12.7534 68.1429 12.7516C68.3316 12.7747 68.5228 12.7399 68.6922 12.6517C68.8616 12.5635 69.0014 12.4258 69.094 12.2562L69.855 12.2563ZM67.0772 10.9394H69.0974C69.1074 10.8023 69.0892 10.6646 69.044 10.5351C68.9987 10.4057 68.9275 10.2873 68.8348 10.1876C68.7422 10.0879 68.6301 10.0091 68.5059 9.95628C68.3816 9.90344 68.2479 9.87773 68.1133 9.88078C67.9767 9.87889 67.8411 9.90497 67.7146 9.95751C67.588 10.01 67.473 10.0879 67.3764 10.1866C67.2798 10.2853 67.2036 10.4028 67.1522 10.5321C67.1008 10.6613 67.0753 10.7998 67.0772 10.9394H67.0772Z" fill="black"/>
<path id="Vector_20" d="M73.2029 9.27295H75.007C75.7897 9.27295 76.2487 9.67795 76.2487 10.312C76.25 10.5132 76.1835 10.7087 76.0604 10.8658C75.9374 11.023 75.7652 11.1322 75.5728 11.1752V11.239C75.8064 11.2541 76.0255 11.3602 76.1848 11.5355C76.344 11.7108 76.4312 11.9419 76.4284 12.181C76.4284 12.894 75.9034 13.3592 75.0252 13.3592H73.2029V9.27295ZM73.9856 9.89197V10.9501H74.7683C75.2456 10.9501 75.4738 10.7627 75.4738 10.417C75.4738 10.0984 75.2751 9.89196 74.856 9.89196L73.9856 9.89197ZM73.9856 11.543V12.7402H74.922C75.3888 12.7402 75.6387 12.5298 75.6387 12.1434C75.6387 11.7344 75.3559 11.543 74.823 11.543L73.9856 11.543Z" fill="black"/>
</g>
</g>
</g>
</svg>
