<svg width="24" height="25" viewBox="0 0 24 25" fill="none" xmlns="http://www.w3.org/2000/svg">
<g id="Button Loop">
<path id="Vector" d="M22.0001 7.76559C21.122 6.88225 19.9908 6.29407 18.7634 6.08263C17.536 5.87119 16.2732 6.04697 15.1501 6.58559C14.2236 7.03838 13.4335 7.72843 12.8601 8.58559L9.09013 14.0356C8.76463 14.5422 8.31326 14.9557 7.78012 15.2356C7.19501 15.5099 6.54582 15.6183 5.90332 15.549C5.26082 15.4798 4.64966 15.2354 4.13647 14.8427C3.62327 14.45 3.22773 13.9239 2.99295 13.3219C2.75817 12.7198 2.69317 12.0648 2.80503 11.4284C2.91689 10.7919 3.20131 10.1983 3.6273 9.7124C4.05329 9.22646 4.6045 8.86679 5.22085 8.67257C5.8372 8.47836 6.49504 8.45707 7.12266 8.61101C7.75028 8.76495 8.3236 9.08822 8.78012 9.54559C9.01484 9.78031 9.33319 9.91217 9.66512 9.91217C9.99706 9.91217 10.3154 9.78031 10.5501 9.54559C10.7848 9.31088 10.9167 8.99253 10.9167 8.66059C10.9167 8.32865 10.7848 8.01031 10.5501 7.77559C9.71261 6.91891 8.6378 6.33257 7.46412 6.09209C6.29045 5.85161 5.07165 5.968 3.9647 6.42627C2.85776 6.88454 1.91335 7.6637 1.2531 8.66341C0.592861 9.66313 0.247022 10.8376 0.260125 12.0356C0.260125 13.6269 0.892266 15.153 2.01748 16.2782C3.1427 17.4035 4.66883 18.0356 6.26012 18.0356C7.15234 18.0345 8.03331 17.8365 8.84013 17.4556C9.76455 16.9997 10.5539 16.3103 11.1301 15.4556L14.9101 10.0356C15.2327 9.52656 15.6848 9.11243 16.2201 8.83559C16.8052 8.56129 17.4544 8.45287 18.0969 8.52215C18.7394 8.59142 19.3506 8.83574 19.8638 9.22847C20.377 9.62119 20.7725 10.1473 21.0073 10.7493C21.2421 11.3514 21.3071 12.0064 21.1952 12.6428C21.0834 13.2793 20.7989 13.8728 20.3729 14.3588C19.947 14.8447 19.3957 15.2044 18.7794 15.3986C18.163 15.5928 17.5052 15.6141 16.8776 15.4602C16.25 15.3062 15.6767 14.983 15.2201 14.5256C14.9826 14.312 14.6723 14.1975 14.353 14.2055C14.0336 14.2135 13.7295 14.3435 13.503 14.5687C13.2765 14.794 13.1448 15.0974 13.1349 15.4166C13.1251 15.7359 13.2379 16.0469 13.4501 16.2856C14.5799 17.4194 16.1139 18.0579 17.7145 18.0608C19.3151 18.0636 20.8513 17.4304 21.9851 16.3006C23.1189 15.1708 23.7575 13.6368 23.7603 12.0362C23.7631 10.4356 23.1299 8.89939 22.0001 7.76559Z" fill="black"/>
</g>
</svg>
