<svg width="20" height="21" viewBox="0 0 20 21" fill="none" xmlns="http://www.w3.org/2000/svg">
<path d="M10.417 13.5052C10.417 13.7353 10.2304 13.9218 10.0003 13.9218C9.77021 13.9218 9.58366 13.7353 9.58366 13.5052M10.417 13.5052C10.417 13.275 10.2304 13.0885 10.0003 13.0885C9.77021 13.0885 9.58366 13.275 9.58366 13.5052M10.417 13.5052H9.58366M8.33366 8.92183V8.50517C8.33366 7.58469 9.07985 6.8385 10.0003 6.8385C10.9208 6.8385 11.667 7.58469 11.667 8.50517V8.60627C11.667 9.07511 11.4807 9.52475 11.1492 9.85627L10.0003 11.0052M18.3337 10.1718C18.3337 14.7742 14.6027 18.5052 10.0003 18.5052C9.05086 18.5052 8.23661 18.3699 7.48055 18.0995C6.76599 17.8439 6.40868 17.7161 6.27159 17.6838C5.00666 17.3864 4.48191 18.2533 3.3917 18.4349C2.85623 18.5241 2.37978 18.0857 2.42421 17.5447C2.46307 17.0716 2.79023 16.6242 2.92078 16.1699C3.19218 15.2255 2.8239 14.5095 2.43482 13.6696C1.94211 12.606 1.66699 11.421 1.66699 10.1718C1.66699 5.56946 5.39795 1.8385 10.0003 1.8385C14.6027 1.8385 18.3337 5.56946 18.3337 10.1718Z" stroke="#184BFF" stroke-width="2" stroke-linecap="round" stroke-linejoin="round"/>
</svg>
