<svg width="28" height="28" viewBox="0 0 28 28" fill="none" xmlns="http://www.w3.org/2000/svg">
<path d="M5.87695 15.1886C5.87695 16.4114 6.1178 17.6222 6.58574 18.7519C7.05368 19.8816 7.73956 20.9081 8.6042 21.7728C9.46884 22.6374 10.4953 23.3233 11.625 23.7912C12.7547 24.2592 13.9656 24.5 15.1884 24.5C16.4111 24.5 17.622 24.2592 18.7517 23.7912C19.8814 23.3233 20.9079 22.6374 21.7725 21.7728C22.6372 20.9081 23.323 19.8816 23.791 18.7519C24.2589 17.6222 24.4998 16.4114 24.4998 15.1886C24.4998 13.9658 24.2589 12.755 23.791 11.6253C23.323 10.4956 22.6372 9.46909 21.7725 8.60444C20.9079 7.7398 19.8814 7.05393 18.7517 6.58599C17.622 6.11804 16.4111 5.8772 15.1884 5.8772C13.9656 5.8772 12.7547 6.11804 11.625 6.58599C10.4953 7.05393 9.46884 7.7398 8.6042 8.60444C7.73956 9.46909 7.05368 10.4956 6.58574 11.6253C6.1178 12.755 5.87695 13.9658 5.87695 15.1886Z" fill="#F8CC4D"/>
<path d="M3.5 14C3.5 15.3789 3.77159 16.7443 4.29926 18.0182C4.82694 19.2921 5.60036 20.4496 6.57538 21.4246C7.55039 22.3996 8.70791 23.1731 9.98182 23.7007C11.2557 24.2284 12.6211 24.5 14 24.5C15.3789 24.5 16.7443 24.2284 18.0182 23.7007C19.2921 23.1731 20.4496 22.3996 21.4246 21.4246C22.3996 20.4496 23.1731 19.2921 23.7007 18.0182C24.2284 16.7443 24.5 15.3789 24.5 14C24.5 12.6211 24.2284 11.2557 23.7007 9.98182C23.1731 8.70791 22.3996 7.55039 21.4246 6.57538C20.4496 5.60036 19.2921 4.82694 18.0182 4.29927C16.7443 3.77159 15.3789 3.5 14 3.5C12.6211 3.5 11.2557 3.77159 9.98182 4.29927C8.70791 4.82694 7.55039 5.60036 6.57538 6.57538C5.60036 7.55039 4.82694 8.70791 4.29926 9.98182C3.77159 11.2557 3.5 12.6211 3.5 14Z" stroke="black" stroke-width="2" stroke-linecap="round" stroke-linejoin="round"/>
<path d="M10.5 20.125V7.875H15.75C16.4462 7.875 17.1139 8.15156 17.6062 8.64384C18.0984 9.13613 18.375 9.80381 18.375 10.5C18.375 11.1962 18.0984 11.8639 17.6062 12.3562C17.1139 12.8484 16.4462 13.125 15.75 13.125H8.75M15.75 16.625H8.75" stroke="black" stroke-width="2" stroke-linecap="round" stroke-linejoin="round"/>
</svg>
