<svg width="32" height="33" viewBox="0 0 32 33" fill="none" xmlns="http://www.w3.org/2000/svg">
<path d="M0 12.1719C0 5.54446 5.37258 0.171875 12 0.171875H20C26.6274 0.171875 32 5.54446 32 12.1719V20.1719C32 26.7993 26.6274 32.1719 20 32.1719H0V12.1719Z" fill="#D0DFFF"/>
<g clip-path="url(#clip0_7588_5285)">
<path d="M8.66634 21.172C7.57037 20.5344 6.83301 19.3429 6.83301 17.9781C6.83301 16.2597 8.00205 14.8159 9.58402 14.4069C9.58335 14.3684 9.58301 14.3298 9.58301 14.291C9.58301 10.7275 12.4558 7.83862 15.9997 7.83862C19.0172 7.83862 21.5483 9.93319 22.2335 12.7554C23.9493 13.4216 25.1663 15.096 25.1663 17.0564C25.1663 18.5642 24.4462 19.9029 23.333 20.7438M15.9997 17.0053V24.5053M15.9997 24.5053L18.9163 21.5886M15.9997 24.5053L13.083 21.5886" stroke="#184BFF" stroke-width="2" stroke-linecap="round" stroke-linejoin="round"/>
</g>
<defs>
<clipPath id="clip0_7588_5285">
<rect width="20" height="20" fill="white" transform="translate(6 6.17188)"/>
</clipPath>
</defs>
</svg>
