<svg width="40" height="41" viewBox="0 0 40 41" fill="none" xmlns="http://www.w3.org/2000/svg">
<g id="Isolation_Mode" clip-path="url(#clip0_6576_41337)">
<path id="Vector" d="M40.0001 17.0328V20.4659C39.9669 20.4659 39.9337 20.4659 39.9005 20.4659C38.7404 20.4229 37.5804 20.3838 36.4223 20.335C35.4966 20.296 34.569 20.2667 33.6452 20.1866C32.5867 20.0948 31.5302 19.9698 30.4756 19.8273C29.2785 19.6632 28.1106 19.3703 26.9916 18.8997C24.7047 17.9369 23.0213 16.3395 21.9647 14.0918C21.1836 12.4319 20.873 10.6509 20.6699 8.84646C20.5938 8.17469 20.5391 7.499 20.4942 6.82527C20.4317 5.88986 20.3809 4.9525 20.336 4.01514C20.295 3.15589 20.2696 2.29469 20.2422 1.43544C20.2344 1.19329 20.2422 0.951135 20.2422 0.699219C20.3145 0.699219 20.375 0.699219 20.4356 0.699219C21.6405 0.705077 22.8475 0.70703 24.0524 0.718747C26.4018 0.744134 28.7512 0.796861 31.083 1.1308C32.3329 1.31046 33.5613 1.578 34.733 2.06425C36.1235 2.64034 37.2855 3.48983 38.053 4.81971C38.5002 5.59303 38.8264 6.41518 39.0646 7.27443C39.5743 9.10424 39.7638 10.9809 39.8575 12.8674C39.9239 14.1875 39.9395 15.5095 39.9786 16.8316C39.9786 16.898 39.9923 16.9625 40.0001 17.0289V17.0328Z" fill="#99A2AD"/>
<path id="Vector_2" d="M19.7637 40.7018H16.2972C16.2426 40.6959 16.1879 40.6842 16.1332 40.6822C15.3051 40.6646 14.4791 40.6549 13.651 40.6315C11.991 40.5826 10.333 40.485 8.69056 40.2292C7.38795 40.0261 6.11268 39.7234 4.90577 39.1707C3.46841 38.5146 2.37672 37.5108 1.67562 36.0833C1.14833 35.0073 0.822185 33.8707 0.601504 32.701C0.253881 30.8634 0.121082 29.0023 0.0742115 27.1354C0.0253881 25.1396 0.0234352 23.1399 0 21.1402C0 21.0757 0 21.0113 0 20.9351C0.0761644 20.9351 0.130847 20.9351 0.185529 20.9351C0.812421 20.9566 1.43931 20.9722 2.0662 20.9996C3.24773 21.0503 4.42925 21.105 5.60883 21.1656C6.86066 21.23 8.10663 21.3452 9.34674 21.5327C10.4599 21.7026 11.5536 21.9428 12.6101 22.3373C14.0084 22.8606 15.2427 23.6378 16.2758 24.7197C17.469 25.9695 18.2365 27.4596 18.6954 29.1156C18.9903 30.1799 19.1817 31.2617 19.2969 32.3592C19.3809 33.1638 19.4629 33.9703 19.5215 34.7768C19.5762 35.5404 19.6055 36.3059 19.6348 37.0714C19.6817 38.2802 19.7227 39.491 19.7656 40.6998L19.7637 40.7018Z" fill="#99A2AD"/>
<path id="Vector_3" d="M23.6986 40.7017H20.2322C20.2771 39.4655 20.3142 38.2274 20.3669 36.9913C20.404 36.093 20.4314 35.1927 20.5134 34.2983C20.6169 33.1637 20.7478 32.0291 20.9098 30.9004C21.0622 29.8478 21.3356 28.8206 21.7359 27.8325C22.3589 26.2976 23.2846 24.9852 24.5755 23.9346C25.8547 22.8918 27.3213 22.2376 28.9188 21.8783C29.8289 21.6732 30.7546 21.5326 31.6803 21.4057C32.4868 21.2963 33.3012 21.2338 34.1136 21.1753C34.8714 21.1206 35.6311 21.0932 36.3908 21.062C37.5938 21.0151 38.7987 20.9741 40.0017 20.9312V24.3642C39.992 24.5966 39.9763 24.829 39.9724 25.0614C39.9373 27.4224 39.8689 29.7795 39.4959 32.117C39.2967 33.3746 38.996 34.6049 38.4687 35.7727C37.9004 37.0284 37.0743 38.0615 35.8693 38.7625C35.2483 39.1238 34.596 39.4128 33.9125 39.6315C32.3072 40.149 30.6472 40.3834 28.9735 40.4869C27.4229 40.5845 25.8683 40.6138 24.3138 40.6724C24.1088 40.6802 23.9056 40.69 23.7006 40.6997L23.6986 40.7017Z" fill="#99A2AD"/>
<path id="Vector_4" d="M0 20.4644C0 20.398 0 20.3492 0 20.3004C0.0234352 18.2792 0.0253881 16.256 0.0742115 14.2348C0.115223 12.5085 0.238258 10.7861 0.531198 9.07934C0.75188 7.79047 1.08193 6.53479 1.65804 5.34942C2.35524 3.91213 3.44302 2.89665 4.88429 2.23464C6.03261 1.70737 7.24539 1.40078 8.48745 1.20159C10.9579 0.805161 13.4499 0.750481 15.9438 0.721189C17.1487 0.709472 18.3537 0.707519 19.5606 0.70166C19.6211 0.70166 19.6817 0.70166 19.7539 0.70166C19.7539 0.943812 19.7598 1.17425 19.7539 1.40468C19.7266 2.20925 19.6992 3.01382 19.6621 3.81839C19.6153 4.81043 19.5645 5.80247 19.5 6.79452C19.4571 7.4702 19.4004 8.14393 19.3262 8.81571C19.1348 10.542 18.8458 12.2468 18.1389 13.8521C17.0179 16.3986 15.1274 18.1307 12.5261 19.0935C11.4989 19.4723 10.4384 19.7223 9.35456 19.861C8.21795 20.0055 7.07548 20.1285 5.93301 20.2203C4.96045 20.2984 3.98203 20.3238 3.00557 20.3648C2.06816 20.4039 1.13075 20.4331 0.191388 20.4644C0.136705 20.4644 0.0800703 20.4644 0 20.4644Z" fill="#99A2AD"/>
</g>
<defs>
<clipPath id="clip0_6576_41337">
<rect width="40" height="40" fill="white" transform="translate(0 0.70166)"/>
</clipPath>
</defs>
</svg>
