<svg width="20" height="20" viewBox="0 0 20 20" fill="none" xmlns="http://www.w3.org/2000/svg">
<g id="email">
<path id="Vector" d="M15.0001 6.66667L14.1667 7.22222V7.22222C12.8254 8.11647 12.1547 8.5636 11.4425 8.77817C10.5018 9.06161 9.49839 9.06161 8.55767 8.77817C7.84548 8.5636 7.17479 8.11647 5.83341 7.22222V7.22222L5.00008 6.66667M9.16675 17.5H10.8334C13.1631 17.5 14.328 17.5 15.2468 17.1194C16.472 16.6119 17.4453 15.6386 17.9528 14.4134C18.3334 13.4946 18.3334 12.3297 18.3334 10V10C18.3334 7.67029 18.3334 6.50544 17.9528 5.58658C17.4453 4.36144 16.472 3.38807 15.2468 2.8806C14.328 2.5 13.1631 2.5 10.8334 2.5H9.16675C6.83704 2.5 5.67219 2.5 4.75333 2.8806C3.52819 3.38807 2.55482 4.36144 2.04735 5.58658C1.66675 6.50544 1.66675 7.67029 1.66675 10V10C1.66675 12.3297 1.66675 13.4946 2.04735 14.4134C2.55482 15.6386 3.52819 16.6119 4.75333 17.1194C5.67219 17.5 6.83704 17.5 9.16675 17.5Z" stroke="white" stroke-width="2" stroke-linecap="round"/>
</g>
</svg>
