<svg width="25" height="24" viewBox="0 0 25 24" fill="none" xmlns="http://www.w3.org/2000/svg">
<g id="Frame 851213278">
<g id="Group 851212894">
<g id="Vector">
<mask id="path-1-inside-1_6778_8417" fill="white">
<path d="M12.4055 0.000244141C11.184 0.000244141 10.0125 0.485484 9.14877 1.34921C8.28504 2.21294 7.7998 3.38441 7.7998 4.6059V13.4262C7.7998 13.4262 14.8271 8.69742 15.661 7.86357C16.3053 7.21958 16.7443 6.39895 16.9222 5.50549C17.1001 4.61202 17.0091 3.68585 16.6606 2.84413C16.3121 2.00241 15.7219 1.28294 14.9644 0.776723C14.207 0.270509 13.3165 0.000288229 12.4055 0.000244141Z"/>
</mask>
<path d="M7.7998 13.4262H6.0998V16.6192L8.74889 14.8366L7.7998 13.4262ZM15.661 7.86357L14.4592 6.66113L14.4589 6.66148L15.661 7.86357ZM12.4055 -1.69976C10.7331 -1.69976 9.12923 -1.03541 7.94669 0.147131L10.3509 2.55129C10.8958 2.00637 11.6348 1.70024 12.4055 1.70024V-1.69976ZM7.94669 0.147131C6.76415 1.32967 6.0998 2.93354 6.0998 4.6059H9.4998C9.4998 3.83527 9.80594 3.09621 10.3509 2.55129L7.94669 0.147131ZM6.0998 4.6059V13.4262H9.4998V4.6059H6.0998ZM7.7998 13.4262C8.74889 14.8366 8.74894 14.8366 8.74901 14.8365C8.74907 14.8365 8.74917 14.8364 8.74928 14.8364C8.74952 14.8362 8.74987 14.836 8.75032 14.8357C8.75122 14.8351 8.75254 14.8342 8.75429 14.833C8.75777 14.8306 8.76292 14.8272 8.76968 14.8226C8.78321 14.8135 8.80321 14.8 8.82926 14.7825C8.88138 14.7473 8.95775 14.6958 9.05514 14.63C9.24991 14.4984 9.52883 14.3096 9.86607 14.0806C10.5402 13.6226 11.4488 13.0027 12.3843 12.356C13.3184 11.7104 14.2861 11.0334 15.0763 10.4626C15.805 9.93625 16.5352 9.39346 16.863 9.06565L14.4589 6.66148C14.4635 6.65682 14.4356 6.68413 14.3519 6.75336C14.2753 6.81668 14.1741 6.89704 14.0475 6.99432C13.7947 7.18874 13.4671 7.43076 13.0854 7.70644C12.3235 8.25684 11.378 8.91839 10.451 9.55916C9.52555 10.1989 8.62514 10.8133 7.95563 11.2681C7.62103 11.4953 7.34443 11.6825 7.15164 11.8128C7.05525 11.8779 6.97983 11.9288 6.92859 11.9633C6.90298 11.9806 6.88341 11.9938 6.8703 12.0026C6.86374 12.007 6.8588 12.0104 6.85552 12.0126C6.85388 12.0137 6.85265 12.0145 6.85185 12.0151C6.85145 12.0153 6.85116 12.0155 6.85097 12.0156C6.85087 12.0157 6.85081 12.0158 6.85076 12.0158C6.85073 12.0158 6.85072 12.0158 7.7998 13.4262ZM16.8627 9.06601C17.7449 8.18431 18.3458 7.06079 18.5894 5.83753L15.2549 5.17344C15.1427 5.73711 14.8658 6.25484 14.4592 6.66113L16.8627 9.06601ZM18.5894 5.83753C18.8331 4.61428 18.7084 3.34625 18.2313 2.19384L15.0899 3.49442C15.3098 4.02546 15.3672 4.60977 15.2549 5.17344L18.5894 5.83753ZM18.2313 2.19384C17.7542 1.04142 16.946 0.0563919 15.9091 -0.63667L14.0198 2.19012C14.4977 2.50948 14.8701 2.96339 15.0899 3.49442L18.2313 2.19384ZM15.9091 -0.63667C14.8721 -1.32973 13.6528 -1.6997 12.4055 -1.69976L12.4054 1.70024C12.9801 1.70027 13.542 1.87075 14.0198 2.19012L15.9091 -0.63667Z" fill="black" mask="url(#path-1-inside-1_6778_8417)"/>
</g>
<g id="Vector_2">
<mask id="path-3-inside-2_6778_8417" fill="white">
<path d="M17.0111 19.3946C17.0111 20.3055 16.741 21.196 16.2349 21.9534C15.7289 22.7108 15.0095 23.3011 14.168 23.6497C13.3264 23.9983 12.4004 24.0895 11.507 23.9118C10.6135 23.7341 9.79289 23.2954 9.14878 22.6513C8.50466 22.0072 8.06601 21.1865 7.8883 20.2931C7.71059 19.3997 7.8018 18.4737 8.15039 17.6321C8.49898 16.7905 9.0893 16.0712 9.8467 15.5651C10.6041 15.0591 11.4946 14.7889 12.4055 14.7889C13.0104 14.7887 13.6094 14.9076 14.1683 15.1389C14.7272 15.3703 15.2351 15.7095 15.6628 16.1373C16.0905 16.565 16.4298 17.0728 16.6611 17.6318C16.8925 18.1907 17.0114 18.7897 17.0111 19.3946Z"/>
</mask>
<path d="M12.4055 14.7889V16.4889L12.4063 16.4889L12.4055 14.7889ZM15.3111 19.3946C15.3111 19.9693 15.1407 20.5311 14.8214 21.0089L17.6484 22.8978C18.3413 21.8609 18.7111 20.6417 18.7111 19.3946H15.3111ZM14.8214 21.0089C14.5022 21.4867 14.0484 21.8592 13.5174 22.0791L14.8185 25.2203C15.9707 24.743 16.9556 23.9348 17.6484 22.8978L14.8214 21.0089ZM13.5174 22.0791C12.9865 22.299 12.4022 22.3565 11.8386 22.2444L11.1753 25.5791C12.3985 25.8224 13.6663 25.6975 14.8185 25.2203L13.5174 22.0791ZM11.8386 22.2444C11.275 22.1323 10.7572 21.8556 10.3509 21.4492L7.94669 23.8534C8.82856 24.7352 9.95212 25.3358 11.1753 25.5791L11.8386 22.2444ZM10.3509 21.4492C9.94449 21.0428 9.66775 20.5251 9.55564 19.9615L6.22097 20.6248C6.46427 21.848 7.06483 22.9715 7.94669 23.8534L10.3509 21.4492ZM9.55564 19.9615C9.44352 19.3978 9.50106 18.8136 9.72099 18.2826L6.5798 16.9815C6.10253 18.1337 5.97766 19.4016 6.22097 20.6248L9.55564 19.9615ZM9.72099 18.2826C9.94091 17.7517 10.3133 17.2979 10.7912 16.9786L8.90223 14.1516C7.86527 14.8445 7.05706 15.8293 6.5798 16.9815L9.72099 18.2826ZM10.7912 16.9786C11.269 16.6594 11.8308 16.4889 12.4055 16.4889V13.0889C11.1583 13.0889 9.93919 13.4588 8.90223 14.1516L10.7912 16.9786ZM12.4063 16.4889C12.7878 16.4888 13.1656 16.5638 13.5181 16.7097L14.8185 13.5682C14.0532 13.2514 13.233 13.0886 12.4047 13.0889L12.4063 16.4889ZM13.5181 16.7097C13.8706 16.8556 14.1909 17.0696 14.4607 17.3394L16.8649 14.9352C16.2792 14.3495 15.5838 13.885 14.8185 13.5682L13.5181 16.7097ZM14.4607 17.3394C14.7305 17.6091 14.9445 17.9294 15.0904 18.2819L18.2319 16.9816C17.9151 16.2162 17.4506 15.5209 16.8649 14.9352L14.4607 17.3394ZM15.0904 18.2819C15.2363 18.6345 15.3113 19.0123 15.3111 19.3938L18.7111 19.3954C18.7115 18.5671 18.5487 17.7469 18.2319 16.9816L15.0904 18.2819Z" fill="black" mask="url(#path-3-inside-2_6778_8417)"/>
</g>
</g>
</g>
</svg>
