<svg width="20" height="20" viewBox="0 0 20 20" fill="none" xmlns="http://www.w3.org/2000/svg">
<g id="globe" clip-path="url(#clip0_7215_20742)">
<path id="Vector" d="M18.3334 9.99996C18.3334 14.6023 14.6025 18.3333 10.0001 18.3333M18.3334 9.99996C18.3334 5.39759 14.6025 1.66663 10.0001 1.66663M18.3334 9.99996C18.3334 8.15901 14.6025 6.66663 10.0001 6.66663C5.39771 6.66663 1.66675 8.15901 1.66675 9.99996M18.3334 9.99996C18.3334 11.8409 14.6025 13.3333 10.0001 13.3333C5.39771 13.3333 1.66675 11.8409 1.66675 9.99996M10.0001 18.3333C5.39771 18.3333 1.66675 14.6023 1.66675 9.99996M10.0001 18.3333C11.841 18.3333 13.3334 14.6023 13.3334 9.99996C13.3334 5.39759 11.841 1.66663 10.0001 1.66663M10.0001 18.3333C8.15913 18.3333 6.66675 14.6023 6.66675 9.99996C6.66675 5.39759 8.15913 1.66663 10.0001 1.66663M1.66675 9.99996C1.66675 5.39759 5.39771 1.66663 10.0001 1.66663" stroke="white" stroke-width="2" stroke-linecap="round" stroke-linejoin="round"/>
</g>
<defs>
<clipPath id="clip0_7215_20742">
<rect width="20" height="20" fill="white"/>
</clipPath>
</defs>
</svg>
