<svg width="20" height="20" viewBox="0 0 20 20" fill="none" xmlns="http://www.w3.org/2000/svg">
<g id="globe">
<path id="Vector" fill-rule="evenodd" clip-rule="evenodd" d="M7.66684 10.0001C7.66684 9.22535 7.70317 8.47819 7.77043 7.77048C8.47819 7.70322 9.2254 7.66687 10.0002 7.66687C10.775 7.66687 11.5222 7.70321 12.2299 7.77047C12.2972 8.47818 12.3335 9.22534 12.3335 10.0001C12.3335 10.775 12.2972 11.5222 12.2299 12.2299C11.5222 12.2972 10.775 12.3335 10.0002 12.3335C9.22541 12.3335 8.4782 12.2972 7.77045 12.2299C7.70318 11.5222 7.66684 10.775 7.66684 10.0001ZM5.66684 10.0001C5.66684 9.34078 5.69122 8.69438 5.73814 8.06755C5.03992 8.20926 4.40816 8.38371 3.86017 8.58298C3.09441 8.86144 2.54507 9.16938 2.20586 9.46101C1.86341 9.75542 1.83358 9.94107 1.83358 10.0002C1.83358 10.0593 1.86341 10.245 2.20586 10.5394C2.54507 10.831 3.09441 11.139 3.86017 11.4174C4.40816 11.6167 5.03993 11.7912 5.73816 11.9329C5.69123 11.306 5.66684 10.6595 5.66684 10.0001ZM3.17669 6.70339C3.99748 6.40492 4.94764 6.16263 5.9875 5.98757C6.16256 4.94763 6.40487 3.99741 6.70335 3.17657C6.94853 2.50235 7.24247 1.88512 7.58951 1.36987C4.57977 2.2088 2.20874 4.57986 1.36987 7.58963C1.88514 7.24255 2.50242 6.94858 3.17669 6.70339ZM12.4108 1.36988C12.7579 1.88512 13.0518 2.50235 13.297 3.17657C13.5955 3.99741 13.8378 4.94762 14.0128 5.98754C15.0528 6.1626 16.003 6.40491 16.8238 6.70339C17.498 6.94855 18.1152 7.24248 18.6304 7.5895C17.7915 4.5798 15.4205 2.20879 12.4108 1.36988ZM18.6304 12.4109C18.1152 12.758 17.498 13.0519 16.8238 13.297C16.003 13.5955 15.0527 13.8378 14.0128 14.0129C13.8377 15.0527 13.5955 16.0029 13.297 16.8237C13.0518 17.4979 12.7579 18.1151 12.4108 18.6304C15.4205 17.7915 17.7914 15.4206 18.6304 12.4109ZM7.58951 18.6304C7.24247 18.1151 6.94853 17.4979 6.70335 16.8237C6.40488 16.0029 6.16259 15.0527 5.98753 14.0128C4.94765 13.8378 3.99749 13.5955 3.17669 13.297C2.50244 13.0518 1.88519 12.7579 1.36993 12.4108C2.20885 15.4205 4.57983 17.7915 7.58951 18.6304ZM10.0002 5.66687C9.34083 5.66687 8.69436 5.69126 8.06748 5.73819C8.20919 5.03991 8.38366 4.40809 8.58294 3.86006C8.8614 3.09429 9.16935 2.54495 9.46097 2.20575C9.75539 1.86329 9.94104 1.83346 10.0002 1.83346C10.0593 1.83346 10.245 1.86329 10.5394 2.20575C10.831 2.54495 11.1389 3.09429 11.4174 3.86006C11.6167 4.40808 11.7911 5.0399 11.9329 5.73818C11.306 5.69126 10.6596 5.66687 10.0002 5.66687ZM14.3335 10.0001C14.3335 9.34077 14.3091 8.69436 14.2622 8.06752C14.9605 8.20923 15.5923 8.3837 16.1403 8.58298C16.9061 8.86144 17.4554 9.16938 17.7946 9.46101C18.1371 9.75542 18.1669 9.94107 18.1669 10.0002C18.1669 10.0593 18.1371 10.245 17.7946 10.5394C17.4554 10.831 16.9061 11.139 16.1403 11.4174C15.5923 11.6167 14.9605 11.7912 14.2622 11.9329C14.3091 11.306 14.3335 10.6595 14.3335 10.0001ZM10.0002 14.3335C10.6596 14.3335 11.306 14.3092 11.9328 14.2622C11.7911 14.9605 11.6167 15.5922 11.4174 16.1402C11.1389 16.906 10.831 17.4553 10.5394 17.7945C10.245 18.137 10.0593 18.1668 10.0002 18.1668C9.94104 18.1668 9.75539 18.137 9.46097 17.7945C9.16935 17.4553 8.8614 16.906 8.58294 16.1402C8.38367 15.5922 8.20922 14.9604 8.06752 14.2622C8.69439 14.3091 9.34084 14.3335 10.0002 14.3335Z" fill="url(#paint0_linear_8814_52374)"/>
</g>
<defs>
<linearGradient id="paint0_linear_8814_52374" x1="1.36987" y1="10.0001" x2="18.6304" y2="10.0001" gradientUnits="userSpaceOnUse">
<stop stop-color="#580EB1"/>
<stop offset="1" stop-color="#6701A9"/>
</linearGradient>
</defs>
</svg>
