<svg width="107" height="37" viewBox="0 0 107 37" fill="none" xmlns="http://www.w3.org/2000/svg">
<g clip-path="url(#clip0_6976_1204)">
<g clip-path="url(#clip1_6976_1204)">
<path d="M102.642 36.231H4.18485C2.0188 36.231 0.246582 34.1993 0.246582 31.7161V4.62726C0.246582 2.14411 2.0188 0.112446 4.18485 0.112446H102.642C104.808 0.112446 106.58 2.14411 106.58 4.62726V31.7161C106.58 34.1993 104.808 36.231 102.642 36.231Z" fill="white"/>
<path d="M102.642 0.112446H4.18485C2.0188 0.112446 0.246582 2.14411 0.246582 4.62726V31.7161C0.246582 34.1993 2.0188 36.231 4.18485 36.231H102.642C104.808 36.231 106.58 34.1993 106.58 31.7161V4.62726C106.58 2.14411 104.808 0.112446 102.642 0.112446ZM102.642 0.834816C104.466 0.834816 105.95 2.53636 105.95 4.62726V31.7161C105.95 33.8074 104.466 35.5089 102.642 35.5089H4.18485C2.36096 35.5089 0.876705 33.8074 0.876705 31.7161V4.62726C0.876705 2.53636 2.36096 0.834816 4.18485 0.834816H102.642Z" fill="black"/>
<path d="M16.4854 17.5609L8.09985 27.7642C8.10017 27.7663 8.1008 27.768 8.10111 27.7702C8.35828 28.878 9.24098 29.6938 10.2886 29.6938C10.7074 29.6938 11.1006 29.5641 11.4378 29.3362L11.4645 29.3182L20.9036 23.0742L16.4854 17.5609Z" fill="#EB3131"/>
<path d="M24.9693 15.8236L24.9613 15.8173L20.8862 13.1091L16.2952 17.7925L20.9022 23.0732L24.9558 20.392C25.6664 19.9521 26.1489 19.0933 26.1489 18.1028C26.1489 17.1195 25.6729 16.2649 24.9693 15.8236Z" fill="#F6B60B"/>
<path d="M8.09961 8.39887C8.0492 8.61197 8.02271 8.83517 8.02271 9.06696V27.0965C8.02271 27.3279 8.04889 27.5518 8.09992 27.7642L16.7741 17.822L8.09961 8.39887Z" fill="#5778C5"/>
<path d="M16.5473 18.0815L20.8876 13.1072L11.4593 6.84066C11.1166 6.60535 10.7167 6.46955 10.2887 6.46955C9.24105 6.46955 8.35717 7.2868 8.09992 8.39606C8.09961 8.39715 8.09961 8.39787 8.09961 8.39886L16.5473 18.0815Z" fill="#3BAD49"/>
</g>
<path d="M84.5618 27.2012H86.0315V15.9131H84.5618V27.2012ZM97.7999 19.9793L96.1151 24.8733H96.0647L94.3161 19.9793H92.7329L95.355 26.8195L93.86 30.6243H95.3936L99.4342 19.9793H97.7999ZM89.4649 25.9191C88.9829 25.9191 88.3118 25.6432 88.3118 24.9604C88.3118 24.0891 89.1483 23.7551 89.8698 23.7551C90.5164 23.7551 90.8197 23.9148 91.2127 24.1329C91.0985 25.1784 90.3132 25.9191 89.4649 25.9191ZM89.6421 19.7323C88.578 19.7323 87.4761 20.2699 87.02 21.4607L88.3244 22.085C88.6032 21.4607 89.1223 21.2572 89.6673 21.2572C90.4274 21.2572 91.2001 21.7802 91.2127 22.7097V22.8257C90.9465 22.6514 90.377 22.3901 89.6799 22.3901C88.274 22.3901 86.842 23.2757 86.842 24.9314C86.842 26.4418 87.9951 27.4149 89.2869 27.4149C90.2754 27.4149 90.8197 26.9066 91.1623 26.3113H91.2127V27.1825H92.6313V22.8546C92.6313 20.8508 91.3269 19.7323 89.6421 19.7323ZM80.5589 21.3534H78.4685V17.4841H80.5589C81.6577 17.4841 82.2815 18.527 82.2815 19.4187C82.2815 20.2935 81.6577 21.3534 80.5589 21.3534ZM80.5211 15.9131H76.9995V27.2012H78.4685V22.9245H80.5211C82.15 22.9245 83.7513 21.5725 83.7513 19.4187C83.7513 17.2651 82.15 15.9131 80.5211 15.9131ZM61.3173 25.9211C60.3019 25.9211 59.4518 24.9466 59.4518 23.608C59.4518 22.2554 60.3019 21.266 61.3173 21.266C62.3197 21.266 63.1065 22.2554 63.1065 23.608C63.1065 24.9466 62.3197 25.9211 61.3173 25.9211ZM63.0049 20.6114H62.9541C62.6243 20.1605 61.9896 19.7532 61.1902 19.7532C59.5152 19.7532 57.9799 21.4405 57.9799 23.608C57.9799 25.761 59.5152 27.434 61.1902 27.434C61.9896 27.434 62.6243 27.0265 62.9541 26.5613H63.0049V27.114C63.0049 28.5835 62.3197 29.369 61.2158 29.369C60.3148 29.369 59.7565 28.6269 59.5278 28.0015L58.2464 28.6124C58.6144 29.6307 59.5915 30.8818 61.2158 30.8818C62.9415 30.8818 64.4008 29.7178 64.4008 26.8813V19.986H63.0049V20.6114ZM65.4159 27.2012H66.8878V15.9127H65.4159V27.2012ZM69.0578 23.4772C69.0197 21.9932 70.0603 21.237 70.8088 21.237C71.393 21.237 71.8876 21.5714 72.0522 22.0519L69.0578 23.4772ZM73.626 22.1971C73.3471 21.3386 72.4965 19.7532 70.758 19.7532C69.0323 19.7532 67.5985 21.3097 67.5985 23.5936C67.5985 25.7466 69.0197 27.434 70.923 27.434C72.4587 27.434 73.3471 26.3575 73.715 25.7321L72.5729 24.8591C72.1924 25.4993 71.6718 25.9211 70.923 25.9211C70.1744 25.9211 69.6415 25.5283 69.2987 24.7575L73.778 22.6335L73.626 22.1971ZM37.9388 20.9315V22.5608H41.3395C41.2379 23.4772 40.9715 24.1463 40.5654 24.6118C40.0706 25.1794 39.2965 25.8047 37.9388 25.8047C35.8449 25.8047 34.2081 23.8701 34.2081 21.4698C34.2081 19.0695 35.8449 17.1346 37.9388 17.1346C39.0682 17.1346 39.8928 17.6439 40.502 18.2985L41.5044 17.1494C40.6543 16.2182 39.5248 15.5054 37.9388 15.5054C35.0708 15.5054 32.6599 18.1821 32.6599 21.4698C32.6599 24.7575 35.0708 27.434 37.9388 27.434C39.487 27.434 40.6543 26.8524 41.5678 25.761C42.5069 24.6845 42.7988 23.1717 42.7988 21.9499C42.7988 21.5714 42.7736 21.2226 42.7225 20.9315H37.9388ZM46.6651 25.9211C45.6497 25.9211 44.7741 24.961 44.7741 23.5936C44.7741 22.2116 45.6497 21.266 46.6651 21.266C47.6801 21.266 48.5557 22.2116 48.5557 23.5936C48.5557 24.961 47.6801 25.9211 46.6651 25.9211ZM46.6651 19.7532C44.8122 19.7532 43.3021 21.3679 43.3021 23.5936C43.3021 25.8047 44.8122 27.434 46.6651 27.434C48.5176 27.434 50.0277 25.8047 50.0277 23.5936C50.0277 21.3679 48.5176 19.7532 46.6651 19.7532ZM54.0007 25.9211C52.9857 25.9211 52.11 24.961 52.11 23.5936C52.11 22.2116 52.9857 21.266 54.0007 21.266C55.0157 21.266 55.8914 22.2116 55.8914 23.5936C55.8914 24.961 55.0157 25.9211 54.0007 25.9211ZM54.0007 19.7532C52.1479 19.7532 50.6381 21.3679 50.6381 23.5936C50.6381 25.8047 52.1479 27.434 54.0007 27.434C55.8533 27.434 57.3633 25.8047 57.3633 23.5936C57.3633 21.3679 55.8533 19.7532 54.0007 19.7532Z" fill="black"/>
<path d="M34.5933 9.11179C34.6026 9.96888 34.4527 10.6602 34.145 11.1851H36.5341V7.09845H34.5933V9.11179ZM33.5042 13.0005H32.9236V11.1851H33.3857C33.7949 10.7808 33.9949 10.0902 33.9866 9.11179V6.43288H37.1418V11.1851H37.6695V13.0005H37.0886V11.8507H33.5042V13.0005Z" fill="black"/>
<path d="M34.5932 9.11182L34.5145 9.11291L34.5151 9.18587C34.5148 9.99682 34.3671 10.6444 34.0794 11.1346L33.997 11.2754H36.6128V7.00819H34.5145V9.11254V9.11291L34.5932 9.11182H34.672V7.18878H36.4553V11.0948H34.1449V11.1851L34.2102 11.2352C34.52 10.7068 34.6726 10.0211 34.6726 9.18587L34.672 9.11074L34.5932 9.11182H34.672H34.5932ZM33.5041 13.0005V12.9102H33.0023V11.2754H33.3856H33.4148L33.437 11.2536C33.8628 10.8324 34.0656 10.1308 34.0656 9.17106L34.0653 9.1111V9.11182V6.52321H37.0629V11.2754H37.5907V12.9102H37.1673V11.8507V11.7604H33.4253V13.0005H33.5041V12.9102V13.0005H33.5828V11.941H37.0098V13.0005V13.0908H37.6694H37.7482V11.0948H37.2205V6.34262H33.9077V9.11218V9.11254L33.9081 9.17106C33.9077 10.1054 33.7102 10.7464 33.3342 11.1163L33.3856 11.1851V11.0948H32.9235H32.8447V13.0908H33.5041H33.5828V13.0005H33.5041Z" fill="black"/>
<path d="M39.3884 10.697C39.7385 11.1029 40.1662 11.3057 40.6724 11.3057C41.1785 11.3057 41.6068 11.1029 41.9559 10.697C42.3061 10.291 42.4815 9.77206 42.4815 9.14179C42.4815 8.51153 42.3061 7.99259 41.9559 7.58662C41.6068 7.18065 41.1785 6.97784 40.6724 6.97784C40.1662 6.97784 39.7385 7.18065 39.3884 7.58662C39.0392 7.99259 38.8639 8.51153 38.8639 9.14179C38.8639 9.77206 39.0392 10.291 39.3884 10.697ZM42.4052 11.1505C41.9406 11.6983 41.3631 11.9717 40.6724 11.9717C39.9816 11.9717 39.4038 11.6983 38.9401 11.1505C38.4755 10.6034 38.2439 9.93369 38.2439 9.14179C38.2439 8.3499 38.4755 7.68008 38.9401 7.13306C39.4038 6.58523 39.9816 6.31155 40.6724 6.31155C41.3591 6.31155 41.9354 6.58668 42.4021 7.13658C42.8682 7.68649 43.1014 8.35486 43.1014 9.14179C43.1014 9.93369 42.8692 10.6034 42.4052 11.1505Z" fill="black"/>
<path d="M39.3886 10.697L39.3326 10.7605C39.6953 11.1827 40.1479 11.3972 40.6725 11.3961C41.1968 11.3972 41.6503 11.1827 42.0121 10.7605C42.3773 10.3379 42.561 9.79115 42.5604 9.14183C42.561 8.49251 42.3773 7.94576 42.0121 7.52318C41.6503 7.10095 41.1968 6.8865 40.6725 6.88758C40.1479 6.8865 39.6953 7.10095 39.3326 7.52318C38.9683 7.94576 38.7846 8.49251 38.7852 9.14183C38.7846 9.79115 38.9683 10.3379 39.3326 10.7605L39.3886 10.697L39.4449 10.6335C39.1107 10.2437 38.9436 9.75341 38.9428 9.14183C38.9436 8.53025 39.1107 8.03994 39.4449 7.65014H39.4446C39.7818 7.26042 40.1845 7.06926 40.6725 7.06817C41.1602 7.06926 41.5639 7.26042 41.9001 7.65014L41.9014 7.65158L41.9001 7.65014C42.2352 8.03994 42.402 8.53025 42.4029 9.14183C42.402 9.75341 42.2352 10.2437 41.9001 10.6335C41.5639 11.0232 41.1602 11.2144 40.6725 11.2155C40.1845 11.2144 39.7818 11.0232 39.4446 10.6335L39.3886 10.697ZM42.4054 11.1506L42.3491 11.0878C41.8977 11.6183 41.3451 11.8803 40.6725 11.8814C39.9997 11.8803 39.4474 11.6183 38.9966 11.0878C38.5461 10.5555 38.3237 9.91359 38.3228 9.14183C38.3237 8.37007 38.5461 7.72815 38.9966 7.19585C39.4474 6.66536 39.9997 6.40296 40.6725 6.40188C41.3411 6.40296 41.8922 6.66645 42.346 7.19974C42.7983 7.73447 43.022 8.37539 43.0228 9.14183C43.022 9.91359 42.7989 10.5555 42.3491 11.0878L42.4054 11.1506L42.4619 11.2133C42.9395 10.6511 43.181 9.95377 43.1804 9.14183C43.181 8.33449 42.9389 7.63858 42.4589 7.07386C41.9789 6.50698 41.3777 6.22029 40.6725 6.22129C39.9637 6.22029 39.3606 6.50563 38.8837 7.07034V7.06998C38.4052 7.63253 38.1647 8.32988 38.1653 9.14183C38.1647 9.95377 38.4052 10.6511 38.8837 11.2137V11.2133C39.3606 11.778 39.9637 12.0627 40.6725 12.062C41.3811 12.0627 41.9841 11.778 42.4619 11.2133L42.4054 11.1506Z" fill="black"/>
<path d="M46.1584 11.9717C45.4631 11.9717 44.88 11.7019 44.4093 11.1618C43.9376 10.6222 43.7031 9.94877 43.7031 9.14179C43.7031 8.33473 43.9376 7.66139 44.4093 7.12178C44.88 6.58171 45.4631 6.31155 46.1584 6.31155C46.8707 6.31155 47.4498 6.60682 47.8943 7.1969L47.4713 7.66635C47.1507 7.20711 46.7122 6.97784 46.1584 6.97784C45.643 6.97784 45.2083 7.17713 44.8544 7.5757C44.5 7.97426 44.3231 8.49636 44.3231 9.14179C44.3231 9.78723 44.5 10.3097 44.8544 10.7079C45.2083 11.1065 45.643 11.3057 46.1584 11.3057C46.7261 11.3057 47.2098 11.0436 47.6106 10.5192L48.0328 11.0031C47.8168 11.3008 47.5466 11.5367 47.2205 11.7103C46.8953 11.8845 46.5406 11.9717 46.1584 11.9717Z" fill="black"/>
<path d="M46.1583 11.9717V11.8814C45.4805 11.8803 44.9221 11.6211 44.4649 11.098C44.0079 10.5742 43.7824 9.92876 43.7818 9.14183C43.7824 8.3549 44.0079 7.70946 44.4649 7.18565C44.9221 6.6622 45.4805 6.40296 46.1583 6.40188C46.8518 6.40332 47.4032 6.68478 47.8345 7.25581L47.8942 7.19694L47.8395 7.13202L47.4164 7.60183L47.4712 7.66639L47.5327 7.60995C47.1986 7.12958 46.7306 6.88623 46.1583 6.88758C45.6251 6.88686 45.1663 7.0968 44.7993 7.51117C44.4285 7.92707 44.2433 8.47797 44.2442 9.14183C44.2433 9.80569 44.4285 10.3573 44.7993 10.7725C45.1663 11.1869 45.6251 11.3968 46.1583 11.3961C46.7475 11.3972 47.258 11.1199 47.6696 10.5788L47.6105 10.5192L47.5548 10.583L47.977 11.0669L48.0327 11.0031L47.9721 10.9457C47.7635 11.2327 47.5038 11.4599 47.1872 11.6285C46.8724 11.7971 46.5303 11.8811 46.1583 11.8814V11.9717V12.062C46.5509 12.062 46.9177 11.9724 47.2536 11.7922C47.5896 11.6137 47.8697 11.3693 48.0933 11.061L48.1391 10.9979L47.6663 10.4554L47.6066 10.3869L47.5512 10.4596C47.1616 10.9679 46.7045 11.2144 46.1583 11.2155C45.6605 11.2144 45.2504 11.026 44.9097 10.6434H44.9095C44.571 10.2624 44.4024 9.76894 44.4018 9.14183C44.4024 8.51472 44.571 8.02198 44.9095 7.64029H44.9097C45.2504 7.25762 45.6605 7.06926 46.1583 7.06818C46.6934 7.06962 47.1022 7.2848 47.4097 7.72282L47.4638 7.80048L47.949 7.26186L48.0025 7.20254L47.9539 7.13806C47.4964 6.52856 46.8893 6.22029 46.1583 6.22129C45.4451 6.22056 44.8374 6.50175 44.3535 7.05797C43.867 7.61311 43.6233 8.31508 43.6243 9.14183C43.6233 9.96858 43.867 10.6705 44.3535 11.226C44.8374 11.7819 45.4451 12.0627 46.1583 12.062V11.9717Z" fill="black"/>
<path d="M50.4888 11.8506H49.8812V7.09838H48.5613V6.43281H51.8088V7.09838H50.4888V11.8506Z" fill="black"/>
<path d="M50.489 11.8506V11.7603H49.9601V7.00812H48.6402V6.52314H51.7302V7.00812H50.4102V11.8506H50.489V11.7603V11.8506H50.5677V7.18871H51.8877V6.43284V6.34255H48.4827V7.09842V7.18871H49.8026V11.9409H50.489H50.5677V11.8506H50.489Z" fill="black"/>
<path d="M55.9782 6.43291L54.19 11.0031C53.9429 11.649 53.5765 11.9717 53.0879 11.9717C52.9427 11.9717 52.7863 11.9315 52.6187 11.8507L52.7771 11.2073C52.8787 11.2732 52.9842 11.3057 53.0941 11.3057C53.235 11.3057 53.3442 11.2743 53.4211 11.2116C53.4981 11.1484 53.5694 11.0331 53.6356 10.8669L53.8072 10.4352L52.2166 6.43291H52.9295L54.0977 9.5428H54.1239L55.265 6.43291H55.9782Z" fill="black"/>
<path d="M55.9782 6.43293L55.9062 6.39591L54.118 10.9664L54.1176 10.9672C53.8746 11.5932 53.5426 11.8782 53.0879 11.8814C52.9552 11.8814 52.8093 11.8447 52.6491 11.7674L52.6187 11.8507L52.6946 11.8754L52.8527 11.232L52.777 11.2073L52.7386 11.286C52.8506 11.3587 52.9703 11.3964 53.094 11.3961C53.2444 11.3961 53.3705 11.3633 53.4669 11.2849C53.5616 11.2063 53.6376 11.0782 53.7072 10.9047L53.8789 10.473L53.8936 10.4352L52.339 6.52322H52.8777L54.0456 9.63312H54.1238H54.1761L55.3172 6.52322H55.9782V6.43293L55.9062 6.39591L55.9782 6.43293V6.34263H55.2649H55.2126L54.0508 9.50797L54.1238 9.54282V9.45253H54.0976V9.54282L54.1699 9.50724L52.9814 6.34263H52.2165H52.094L53.7204 10.4352L53.5638 10.8295C53.5014 10.9879 53.4343 11.0902 53.3752 11.1378C53.3177 11.1855 53.2251 11.2158 53.094 11.2155C52.9977 11.2155 52.9069 11.1876 52.8158 11.1287L52.7284 11.0723L52.543 11.8261L52.5238 11.9029L52.5882 11.934C52.7632 12.0182 52.9297 12.062 53.0879 12.062C53.6099 12.0648 54.0111 11.7043 54.2619 11.0395L54.2616 11.0401L56.0997 6.34263H55.9782V6.43293Z" fill="black"/>
<path d="M56.6658 11.8506V6.43281H60.085V11.8506H59.4774V7.09838H57.2725V11.8506H56.6658Z" fill="black"/>
<path d="M56.6657 11.8506H56.7444V6.52314H60.0059V11.7603H59.5561V7.00812H57.1936V11.7603H56.6657V11.8506H56.7444H56.6657V11.9409H57.2724H57.3512V7.18871H59.3985V11.9409H60.0849H60.1636V6.34255H56.5869V11.9409H56.6657V11.8506Z" fill="black"/>
<path d="M61.1672 11.8506V6.43281H61.7743V8.7555H64.1372V6.43281H64.7449V11.8506H64.1372V9.40626H61.7743V11.8506H61.1672Z" fill="black"/>
<path d="M61.1671 11.8506H61.2459V6.52314H61.6954V8.84583H64.2159V6.52314H64.6661V11.7603H64.2159V9.316H61.6954V11.7603H61.1671V11.8506H61.2459H61.1671V11.9409H61.7742H61.853V9.4966H64.0584V11.9409H64.7448H64.8236V6.34255H64.1371H64.0584V8.66524H61.853V6.34255H61.1671H61.0884V11.9409H61.1671V11.8506Z" fill="black"/>
<path d="M66.6751 10.697C67.0252 11.1029 67.4529 11.3057 67.959 11.3057C68.4652 11.3057 68.8935 11.1029 69.2426 10.697C69.5928 10.291 69.7682 9.77206 69.7682 9.14179C69.7682 8.51153 69.5928 7.99259 69.2426 7.58662C68.8935 7.18065 68.4652 6.97784 67.959 6.97784C67.4529 6.97784 67.0252 7.18065 66.6751 7.58662C66.3262 7.99259 66.1505 8.51153 66.1505 9.14179C66.1505 9.77206 66.3262 10.291 66.6751 10.697ZM69.6918 11.1505C69.2276 11.6983 68.6498 11.9717 67.959 11.9717C67.2683 11.9717 66.6908 11.6983 66.2268 11.1505C65.7622 10.6034 65.5305 9.93369 65.5305 9.14179C65.5305 8.3499 65.7622 7.68008 66.2268 7.13306C66.6908 6.58523 67.2683 6.31155 67.959 6.31155C68.6461 6.31155 69.222 6.58668 69.6888 7.13658C70.1549 7.68649 70.3881 8.35486 70.3881 9.14179C70.3881 9.93369 70.1558 10.6034 69.6918 11.1505Z" fill="black"/>
<path d="M66.6752 10.697L66.6193 10.7605C66.9823 11.1827 67.4346 11.3972 67.9592 11.3961C68.4837 11.3972 68.937 11.1827 69.2991 10.7605C69.664 10.3379 69.8477 9.79115 69.8471 9.14183C69.8477 8.49251 69.664 7.94576 69.2991 7.52318C68.937 7.10095 68.4837 6.8865 67.9592 6.88758C67.4346 6.8865 66.9823 7.10095 66.6193 7.52318C66.255 7.94576 66.0712 8.49251 66.0719 9.14183C66.0712 9.79115 66.255 10.3379 66.6193 10.7605L66.6752 10.697L66.7315 10.6335C66.3974 10.2437 66.2303 9.75341 66.2294 9.14183C66.2303 8.53025 66.3974 8.03994 66.7315 7.65014C67.0685 7.26042 67.4715 7.06926 67.9592 7.06817C68.4469 7.06926 68.8506 7.26042 69.1868 7.65014L69.1892 7.65302L69.1868 7.65014C69.5219 8.03994 69.6889 8.53025 69.6896 9.14183C69.6889 9.75341 69.5219 10.2437 69.1868 10.6335C68.8506 11.0232 68.4469 11.2144 67.9592 11.2155C67.4715 11.2144 67.0685 11.0232 66.7315 10.6335L66.6752 10.697ZM69.692 11.1506L69.6357 11.0878C69.1844 11.6183 68.6317 11.8803 67.9592 11.8814C67.2866 11.8803 66.7341 11.6183 66.2836 11.0878L66.2811 11.085L66.2836 11.0878C65.8328 10.5555 65.6104 9.91359 65.6094 9.14183C65.6104 8.37007 65.8328 7.72815 66.2836 7.19585C66.7341 6.66536 67.2866 6.40296 67.9592 6.40188C68.6278 6.40296 69.1789 6.66645 69.6326 7.19974C70.085 7.73447 70.3089 8.37539 70.3095 9.14183C70.3089 9.91359 70.0855 10.5555 69.6357 11.0878L69.692 11.1506L69.7486 11.2133C70.2264 10.6511 70.4677 9.95377 70.4671 9.14183C70.4677 8.33449 70.2256 7.63858 69.7456 7.07386C69.2656 6.50698 68.6644 6.22029 67.9592 6.22129C67.2503 6.22029 66.6476 6.50563 66.1703 7.07034V7.06998C65.6919 7.63253 65.4513 8.32988 65.4519 9.14183C65.4513 9.95377 65.6919 10.6511 66.1703 11.2137V11.2133C66.6476 11.778 67.2503 12.0627 67.9592 12.062C68.6681 12.0627 69.2709 11.778 69.7486 11.2133L69.692 11.1506Z" fill="black"/>
<path d="M73.4778 11.185H74.6995C74.9326 11.185 75.1217 11.0916 75.2674 10.9043C75.4123 10.7184 75.4848 10.5137 75.4848 10.2915C75.4848 10.0697 75.41 9.86687 75.2603 9.68275C75.1114 9.49864 74.9145 9.40626 74.6727 9.40626H73.4778V11.185ZM73.4778 8.7555H74.5806C74.8098 8.7555 74.9933 8.66909 75.1319 8.49445C75.2705 8.32054 75.3399 8.13047 75.3399 7.92342C75.3399 7.71673 75.2729 7.52693 75.1382 7.35627C75.0043 7.18443 74.8271 7.09838 74.6073 7.09838H73.4778V8.7555ZM72.8713 11.8506V6.43281H74.5806C74.95 6.43281 75.2705 6.57322 75.5407 6.85251C75.8117 7.13297 75.9471 7.48458 75.9471 7.90825C75.9471 8.16532 75.8888 8.39251 75.7715 8.58935C75.6557 8.78611 75.5005 8.93501 75.3068 9.03587V9.06585C75.5391 9.15651 75.7313 9.31308 75.881 9.53494C76.0298 9.75716 76.1055 10.0147 76.1055 10.3071C76.1055 10.7508 75.9637 11.119 75.6793 11.4115C75.3958 11.7042 75.0602 11.8506 74.6727 11.8506H72.8713Z" fill="black"/>
<path d="M73.478 11.185V11.2753H74.6996C74.9509 11.2764 75.1675 11.1706 75.3258 10.9645C75.4818 10.766 75.5645 10.5367 75.5637 10.2916C75.5645 10.0461 75.4786 9.81787 75.3179 9.62111C75.1549 9.41822 74.932 9.31492 74.6729 9.316H73.3992V11.2753H73.478V11.185H73.5568V9.49659H74.6729C74.8981 9.49759 75.0675 9.57949 75.203 9.74419C75.3416 9.91629 75.4054 10.0937 75.4062 10.2916C75.4054 10.4908 75.3431 10.6708 75.2085 10.8443C75.0769 11.0122 74.9147 11.0933 74.6996 11.0947H73.478V11.185H73.5568H73.478ZM73.478 8.75553V8.84583H74.5807C74.8265 8.84682 75.0375 8.74948 75.1903 8.55517V8.55553C75.3392 8.36925 75.4188 8.15407 75.4188 7.92345C75.4188 7.69419 75.3424 7.47974 75.1966 7.29562V7.29598C75.0494 7.10474 74.8446 7.00704 74.6075 7.00812H73.3992V8.84583H73.478V8.75553H73.5568V7.18871H74.6075C74.8099 7.19016 74.9596 7.2642 75.0793 7.41626L75.0801 7.41689L75.0793 7.41662C75.2029 7.57464 75.2604 7.7397 75.2612 7.92345C75.2604 8.10648 75.2014 8.27227 75.0738 8.43345V8.43381C74.9493 8.58867 74.7926 8.66415 74.5807 8.66524H73.478V8.75553H73.5568H73.478ZM72.8715 11.8506H72.9503V6.52314H74.5807C74.9328 6.52386 75.2305 6.65434 75.4881 6.91963C75.7441 7.18555 75.8677 7.50692 75.8685 7.90828C75.8685 8.14992 75.8142 8.35697 75.707 8.53855C75.5983 8.72203 75.4558 8.85883 75.2738 8.95373L75.2282 8.97775V9.06588V9.13044L75.2809 9.15121C75.5007 9.23736 75.6779 9.38192 75.8189 9.59041L75.8197 9.59141L75.8189 9.59005C75.9575 9.79746 76.0268 10.0323 76.0268 10.3071C76.026 10.729 75.8953 11.0665 75.6267 11.3445C75.3558 11.6228 75.0431 11.7596 74.6729 11.7603H72.8715V11.8506H72.9503H72.8715V11.9409H74.6729C75.0777 11.9416 75.4353 11.7857 75.7323 11.4785C76.0316 11.172 76.1852 10.773 76.1844 10.3071C76.1852 9.99711 76.1032 9.71701 75.9433 9.47998L75.9426 9.4789L75.9433 9.47962C75.785 9.24476 75.5787 9.07609 75.3321 8.98055L75.3069 9.06588H75.3857V9.0359H75.3069L75.3392 9.11807C75.5448 9.01125 75.7133 8.85071 75.837 8.63977V8.64014C75.963 8.42821 76.026 8.18089 76.026 7.90828C76.0268 7.46276 75.8803 7.08045 75.5936 6.78554L75.592 6.78382L75.5936 6.78554C75.3101 6.49172 74.9674 6.34182 74.5807 6.34255H72.7927V11.9409H72.8715V11.8506Z" fill="black"/>
</g>
<defs>
<clipPath id="clip0_6976_1204">
<rect width="106.333" height="36.2991" fill="white" transform="translate(0.333252 0.0219727)"/>
</clipPath>
<clipPath id="clip1_6976_1204">
<rect width="106.57" height="36.2991" fill="white" transform="translate(0.167725 0.0219727)"/>
</clipPath>
</defs>
</svg>
