<svg width="123" height="37" viewBox="0 0 123 37" fill="none" xmlns="http://www.w3.org/2000/svg">
<g clip-path="url(#clip0_6764_41673)">
<g clip-path="url(#clip1_6764_41673)">
<path d="M118.186 36.6114H5.3156C2.83245 36.6114 0.800781 34.5797 0.800781 32.0966V5.00769C0.800781 2.52454 2.83245 0.492878 5.3156 0.492878H118.186C120.669 0.492878 122.701 2.52454 122.701 5.00769V32.0966C122.701 34.5797 120.669 36.6114 118.186 36.6114Z" fill="white"/>
<path d="M118.186 0.492878H5.3156C2.83245 0.492878 0.800781 2.52454 0.800781 5.00769V32.0966C0.800781 34.5797 2.83245 36.6114 5.3156 36.6114H118.186C120.669 36.6114 122.701 34.5797 122.701 32.0966V5.00769C122.701 2.52454 120.669 0.492878 118.186 0.492878ZM118.186 1.21525C120.277 1.21525 121.978 2.91679 121.978 5.00769V32.0966C121.978 34.1878 120.277 35.8894 118.186 35.8894H5.3156C3.22469 35.8894 1.52315 34.1878 1.52315 32.0966V5.00769C1.52315 2.91679 3.22469 1.21525 5.3156 1.21525H118.186Z" fill="black"/>
<path d="M19.4169 17.9414L9.80371 28.1447C9.80407 28.1468 9.80479 28.1486 9.80516 28.1507C10.1 29.2585 11.1119 30.0744 12.3129 30.0744C12.793 30.0744 13.2437 29.9446 13.6303 29.7167L13.661 29.6987L24.4818 23.4547L19.4169 17.9414Z" fill="#EB3131"/>
<path d="M29.1427 16.204L29.1335 16.1977L24.4619 13.4895L19.1987 18.1729L24.4802 23.4536L29.1272 20.7724C29.9419 20.3325 30.495 19.4737 30.495 18.4832C30.495 17.4999 29.9493 16.6453 29.1427 16.204Z" fill="#F6B60B"/>
<path d="M9.8035 8.7794C9.74571 8.99249 9.71533 9.2157 9.71533 9.44748V27.477C9.71533 27.7084 9.74535 27.9323 9.80386 28.1447L19.7478 18.2025L9.8035 8.7794Z" fill="#5778C5"/>
<path d="M19.4881 18.4621L24.4638 13.4878L13.6553 7.22118C13.2624 6.98588 12.8039 6.85007 12.3133 6.85007C11.1123 6.85007 10.099 7.66733 9.80407 8.77659C9.80371 8.77767 9.80371 8.77839 9.80371 8.77939L19.4881 18.4621Z" fill="#3BAD49"/>
</g>
<path d="M97.459 27.5818H99.1439V16.2936H97.459V27.5818ZM112.635 20.3599L110.704 25.2538H110.646L108.641 20.3599H106.826L109.832 27.2001L108.118 31.0049H109.877L114.509 20.3599H112.635ZM103.08 26.2996C102.527 26.2996 101.758 26.0238 101.758 25.341C101.758 24.4697 102.717 24.1357 103.544 24.1357C104.285 24.1357 104.633 24.2954 105.084 24.5135C104.953 25.5589 104.052 26.2996 103.08 26.2996ZM103.283 20.1129C102.063 20.1129 100.8 20.6504 100.277 21.8413L101.772 22.4656C102.092 21.8413 102.687 21.6377 103.312 21.6377C104.183 21.6377 105.069 22.1608 105.084 23.0902V23.2063C104.778 23.032 104.126 22.7707 103.326 22.7707C101.715 22.7707 100.073 23.6563 100.073 25.312C100.073 26.8224 101.395 27.7955 102.876 27.7955C104.009 27.7955 104.633 27.2872 105.026 26.6919H105.084V27.5631H106.71V23.2352C106.71 21.2314 105.215 20.1129 103.283 20.1129ZM92.8702 21.734H90.4737V17.8647H92.8702C94.1298 17.8647 94.8449 18.9076 94.8449 19.7993C94.8449 20.6741 94.1298 21.734 92.8702 21.734ZM92.8268 16.2936H88.7897V27.5818H90.4737V23.3051H92.8268C94.6941 23.3051 96.5299 21.9531 96.5299 19.7993C96.5299 17.6457 94.6941 16.2936 92.8268 16.2936ZM70.8117 26.3017C69.6477 26.3017 68.6731 25.3272 68.6731 23.9886C68.6731 22.636 69.6477 21.6466 70.8117 21.6466C71.9609 21.6466 72.8627 22.636 72.8627 23.9886C72.8627 25.3272 71.9609 26.3017 70.8117 26.3017ZM72.7464 20.9919H72.6881C72.31 20.5411 71.5823 20.1338 70.666 20.1338C68.7458 20.1338 66.9857 21.8211 66.9857 23.9886C66.9857 26.1416 68.7458 27.8145 70.666 27.8145C71.5823 27.8145 72.31 27.4071 72.6881 26.9419H72.7464V27.4946C72.7464 28.9641 71.9609 29.7496 70.6953 29.7496C69.6625 29.7496 69.0224 29.0075 68.7602 28.3821L67.2912 28.993C67.7131 30.0113 68.8333 31.2624 70.6953 31.2624C72.6737 31.2624 74.3466 30.0984 74.3466 27.2618V20.3665H72.7464V20.9919ZM75.5102 27.5818H77.1977V16.2933H75.5102V27.5818ZM79.6854 23.8578C79.6417 22.3738 80.8346 21.6176 81.6927 21.6176C82.3624 21.6176 82.9294 21.952 83.1181 22.4324L79.6854 23.8578ZM84.9223 22.5777C84.6026 21.7192 83.6274 20.1338 81.6345 20.1338C79.6561 20.1338 78.0124 21.6903 78.0124 23.9742C78.0124 26.1272 79.6416 27.8145 81.8236 27.8145C83.5841 27.8145 84.6026 26.738 85.0243 26.1126L83.715 25.2397C83.2789 25.8799 82.682 26.3017 81.8236 26.3017C80.9654 26.3017 80.3545 25.9088 79.9616 25.1381L85.0965 23.014L84.9223 22.5777ZM44.0106 21.3121V22.9413H47.9092C47.7928 23.8578 47.4873 24.5269 47.0217 24.9924C46.4546 25.5599 45.5672 26.1853 44.0106 26.1853C41.6103 26.1853 39.7338 24.2506 39.7338 21.8504C39.7338 19.4501 41.6103 17.5152 44.0106 17.5152C45.3054 17.5152 46.2507 18.0244 46.9491 18.6791L48.0983 17.53C47.1237 16.5988 45.8288 15.886 44.0106 15.886C40.7229 15.886 37.959 18.5627 37.959 21.8504C37.959 25.1381 40.7229 27.8145 44.0106 27.8145C45.7855 27.8145 47.1237 27.2329 48.171 26.1416C49.2475 25.0651 49.5822 23.5523 49.5822 22.3305C49.5822 21.952 49.5532 21.6032 49.4947 21.3121H44.0106ZM54.0145 26.3017C52.8505 26.3017 51.8466 25.3416 51.8466 23.9742C51.8466 22.5922 52.8505 21.6466 54.0145 21.6466C55.178 21.6466 56.1819 22.5922 56.1819 23.9742C56.1819 25.3416 55.178 26.3017 54.0145 26.3017ZM54.0145 20.1338C51.8903 20.1338 50.1592 21.7484 50.1592 23.9742C50.1592 26.1853 51.8903 27.8145 54.0145 27.8145C56.1382 27.8145 57.8693 26.1853 57.8693 23.9742C57.8693 21.7484 56.1382 20.1338 54.0145 20.1338ZM62.424 26.3017C61.2604 26.3017 60.2565 25.3416 60.2565 23.9742C60.2565 22.5922 61.2604 21.6466 62.424 21.6466C63.5876 21.6466 64.5914 22.5922 64.5914 23.9742C64.5914 25.3416 63.5876 26.3017 62.424 26.3017ZM62.424 20.1338C60.2999 20.1338 58.5691 21.7484 58.5691 23.9742C58.5691 26.1853 60.2999 27.8145 62.424 27.8145C64.5477 27.8145 66.2789 26.1853 66.2789 23.9742C66.2789 21.7484 64.5477 20.1338 62.424 20.1338Z" fill="black"/>
<path d="M40.1754 9.49249C40.186 10.3496 40.0142 11.0409 39.6615 11.5658H42.4003V7.47916H40.1754V9.49249ZM38.9268 13.3812H38.2612V11.5658H38.791C39.2601 11.1615 39.4894 10.4709 39.4799 9.49249V6.81358H43.097V11.5658H43.7019V13.3812H43.036V12.2314H38.9268V13.3812Z" fill="black"/>
<path d="M40.1754 9.4925L40.0851 9.49358L40.0858 9.56654C40.0855 10.3775 39.9161 11.0251 39.5863 11.5153L39.4918 11.6561H42.4906V7.38887H40.0851V9.49322V9.49358L40.1754 9.4925H40.2657V7.56946H42.31V11.4755H39.6614V11.5658L39.7363 11.6159C40.0914 11.0875 40.2664 10.4018 40.2664 9.56654L40.2657 9.49142L40.1754 9.4925H40.2657H40.1754ZM38.9268 13.3812V13.2909H38.3515V11.6561H38.791H38.8245L38.8498 11.6342C39.338 11.2131 39.5705 10.5115 39.5705 9.55173L39.5701 9.49178V9.4925V6.90388H43.0066V11.6561H43.6116V13.2909H43.1263V12.2314V12.1411H38.8365V13.3812H38.9268V13.2909V13.3812H39.0171V12.3217H42.9457V13.3812V13.4715H43.7019H43.7922V11.4755H43.1872V6.72329H39.3895V9.49286V9.49322L39.3899 9.55173C39.3895 10.4861 39.1631 11.127 38.732 11.497L38.791 11.5658V11.4755H38.2612H38.1709V13.4715H38.9268H39.0171V13.3812H38.9268Z" fill="black"/>
<path d="M45.6724 11.0776C46.0738 11.4836 46.5641 11.6864 47.1444 11.6864C47.7245 11.6864 48.2155 11.4836 48.6158 11.0776C49.0173 10.6716 49.2183 10.1527 49.2183 9.52244C49.2183 8.89217 49.0173 8.37324 48.6158 7.96727C48.2155 7.5613 47.7245 7.35849 47.1444 7.35849C46.5641 7.35849 46.0738 7.5613 45.6724 7.96727C45.2721 8.37324 45.0711 8.89217 45.0711 9.52244C45.0711 10.1527 45.2721 10.6716 45.6724 11.0776ZM49.1309 11.5312C48.5982 12.0789 47.9362 12.3523 47.1444 12.3523C46.3525 12.3523 45.6901 12.0789 45.1585 11.5312C44.6259 10.9841 44.3604 10.3143 44.3604 9.52244C44.3604 8.73054 44.6259 8.06072 45.1585 7.51371C45.6901 6.96588 46.3525 6.69219 47.1444 6.69219C47.9316 6.69219 48.5923 6.96732 49.1273 7.51723C49.6616 8.06713 49.929 8.73551 49.929 9.52244C49.929 10.3143 49.6627 10.9841 49.1309 11.5312Z" fill="black"/>
<path d="M45.6724 11.0777L45.6082 11.1412C46.024 11.5634 46.5429 11.7779 47.1443 11.7768C47.7453 11.7779 48.2653 11.5634 48.68 11.1412C49.0987 10.7186 49.3093 10.1719 49.3086 9.52254C49.3093 8.87321 49.0987 8.32647 48.68 7.90388C48.2653 7.48166 47.7453 7.26721 47.1443 7.26829C46.5429 7.26721 46.024 7.48166 45.6082 7.90388C45.1906 8.32647 44.98 8.87321 44.9807 9.52254C44.98 10.1719 45.1906 10.7186 45.6082 11.1412L45.6724 11.0777L45.737 11.0142C45.3539 10.6244 45.1623 10.1341 45.1613 9.52254C45.1623 8.91096 45.3539 8.42065 45.737 8.03084H45.7366C46.1232 7.64112 46.5849 7.44997 47.1443 7.44888C47.7034 7.44997 48.1661 7.64112 48.5516 8.03084L48.553 8.03229L48.5516 8.03084C48.9357 8.42065 49.127 8.91096 49.128 9.52254C49.127 10.1341 48.9357 10.6244 48.5516 11.0142C48.1661 11.4039 47.7034 11.5951 47.1443 11.5962C46.5849 11.5951 46.1232 11.4039 45.7366 11.0142L45.6724 11.0777ZM49.1309 11.5313L49.0663 11.4685C48.5488 11.999 47.9154 12.261 47.1443 12.2621C46.3729 12.261 45.7398 11.999 45.223 11.4685C44.7066 10.9362 44.4516 10.2943 44.4506 9.52254C44.4516 8.75077 44.7066 8.10886 45.223 7.57656C45.7398 7.04607 46.3729 6.78367 47.1443 6.78259C47.9108 6.78367 48.5425 7.04715 49.0628 7.58044C49.5813 8.11518 49.8377 8.7561 49.8387 9.52254C49.8377 10.2943 49.582 10.9362 49.0663 11.4685L49.1309 11.5313L49.1957 11.594C49.7432 11.0318 50.02 10.3345 50.0193 9.52254C50.02 8.7152 49.7424 8.01928 49.1922 7.45457C48.6419 6.88769 47.9528 6.601 47.1443 6.60199C46.3317 6.601 45.6403 6.88633 45.0936 7.45105V7.45069C44.5451 8.01323 44.2693 8.71059 44.27 9.52254C44.2693 10.3345 44.5451 11.0318 45.0936 11.5944V11.594C45.6403 12.1587 46.3317 12.4434 47.1443 12.4427C47.9566 12.4434 48.6479 12.1587 49.1957 11.594L49.1309 11.5313Z" fill="black"/>
<path d="M53.4334 12.3523C52.6362 12.3523 51.9679 12.0825 51.4282 11.5425C50.8875 11.0028 50.6187 10.3294 50.6187 9.52244C50.6187 8.71537 50.8875 8.04203 51.4282 7.50242C51.9679 6.96236 52.6362 6.69219 53.4334 6.69219C54.2499 6.69219 54.9138 6.98746 55.4234 7.57755L54.9384 8.047C54.5709 7.58775 54.0682 7.35849 53.4334 7.35849C52.8426 7.35849 52.3441 7.55777 51.9385 7.95634C51.5322 8.35491 51.3294 8.877 51.3294 9.52244C51.3294 10.1679 51.5322 10.6903 51.9385 11.0885C52.3441 11.4871 52.8426 11.6864 53.4334 11.6864C54.0841 11.6864 54.6386 11.4243 55.0982 10.8998L55.5821 11.3837C55.3346 11.6814 55.0248 11.9174 54.6509 12.0909C54.2781 12.2652 53.8715 12.3523 53.4334 12.3523Z" fill="black"/>
<path d="M53.4333 12.3524V12.2621C52.6563 12.261 52.0161 12.0018 51.492 11.4787C50.9682 10.9549 50.7096 10.3095 50.7089 9.52254C50.7096 8.7356 50.9682 8.09017 51.492 7.56636C52.0161 7.04291 52.6563 6.78367 53.4333 6.78259C54.2284 6.78403 54.8605 7.06548 55.3549 7.63652L55.4234 7.57764L55.3606 7.51272L54.8756 7.98253L54.9384 8.0471L55.0089 7.99066C54.6259 7.51028 54.0894 7.26694 53.4333 7.26829C52.822 7.26757 52.2961 7.47751 51.8754 7.89188C51.4503 8.30778 51.238 8.85868 51.239 9.52254C51.238 10.1864 51.4503 10.738 51.8754 11.1532C52.2961 11.5676 52.822 11.7775 53.4333 11.7768C54.1088 11.7779 54.694 11.5006 55.1659 10.9595L55.0981 10.8999L55.0343 10.9638L55.5183 11.4477L55.5821 11.3838L55.5126 11.3264C55.2735 11.6134 54.9758 11.8406 54.6128 12.0092C54.252 12.1778 53.8598 12.2618 53.4333 12.2621V12.3524V12.4427C53.8834 12.4427 54.3039 12.3531 54.689 12.1729C55.0742 11.9944 55.3952 11.75 55.6516 11.4417L55.7041 11.3786L55.1621 10.8361L55.0936 10.7676L55.0301 10.8403C54.5835 11.3486 54.0595 11.5951 53.4333 11.5962C52.8627 11.5951 52.3925 11.4067 52.002 11.0241H52.0017C51.6137 10.6431 51.4204 10.1496 51.4196 9.52254C51.4204 8.89543 51.6137 8.40268 52.0017 8.021H52.002C52.3925 7.63832 52.8627 7.44997 53.4333 7.44888C54.0467 7.45033 54.5154 7.6655 54.8679 8.10353L54.9299 8.18118L55.4861 7.64257L55.5475 7.58324L55.4918 7.51877C54.9673 6.90927 54.2714 6.601 53.4333 6.60199C52.6157 6.60127 51.9191 6.88245 51.3643 7.43868C50.8066 7.99382 50.5272 8.69578 50.5283 9.52254C50.5272 10.3493 50.8066 11.0513 51.3643 11.6068C51.9191 12.1626 52.6157 12.4434 53.4333 12.4427V12.3524Z" fill="black"/>
<path d="M58.3982 12.2314H57.7017V7.47921H56.1885V6.81364H59.9114V7.47921H58.3982V12.2314Z" fill="black"/>
<path d="M58.3982 12.2314V12.1411H57.7919V7.38889H56.2787V6.90391H59.8211V7.38889H58.3079V12.2314H58.3982V12.1411V12.2314H58.4885V7.56948H60.0017V6.81361V6.72332H56.0981V7.47919V7.56948H57.6113V12.3217H58.3982H58.4885V12.2314H58.3982Z" fill="black"/>
<path d="M64.6908 6.81355L62.6408 11.3837C62.3575 12.0296 61.9375 12.3523 61.3774 12.3523C61.2109 12.3523 61.0316 12.3121 60.8395 12.2313L61.0211 11.588C61.1374 11.6539 61.2584 11.6864 61.3844 11.6864C61.546 11.6864 61.6711 11.655 61.7593 11.5922C61.8475 11.5291 61.9293 11.4137 62.0052 11.2476L62.2019 10.8158L60.3784 6.81355H61.1957L62.535 9.92345H62.5649L63.8731 6.81355H64.6908Z" fill="black"/>
<path d="M64.6911 6.81363L64.6085 6.77661L62.5585 11.3471L62.5582 11.3479C62.2795 11.9739 61.8989 12.2589 61.3776 12.2621C61.2256 12.2621 61.0584 12.2255 60.8746 12.1482L60.8397 12.2314L60.9268 12.2561L61.1081 11.6127L61.0213 11.588L60.9773 11.6667C61.1057 11.7394 61.2428 11.7771 61.3847 11.7768C61.5572 11.7768 61.7017 11.744 61.8121 11.6656C61.9208 11.587 62.0079 11.4589 62.0876 11.2854L62.2845 10.8537L62.3014 10.8159L60.5191 6.90393H61.1367L62.4756 10.0138H62.5652H62.6252L63.9334 6.90393H64.6911V6.81363L64.6085 6.77661L64.6911 6.81363V6.72334H63.8734H63.8135L62.4816 9.88867L62.5652 9.92353V9.83323H62.5352V9.92353L62.6181 9.88795L61.2556 6.72334H60.3787H60.2383L62.1028 10.8159L61.9233 11.2102C61.8517 11.3686 61.7748 11.4709 61.707 11.5185C61.6411 11.5662 61.5349 11.5965 61.3847 11.5962C61.2743 11.5962 61.1702 11.5683 61.0658 11.5094L60.9656 11.453L60.753 12.2068L60.731 12.2836L60.8048 12.3147C61.0054 12.3989 61.1963 12.4427 61.3776 12.4427C61.9761 12.4455 62.4361 12.085 62.7236 11.4202L62.7232 11.4208L64.8304 6.72334H64.6911V6.81363Z" fill="black"/>
<path d="M65.479 12.2314V6.81364H69.3988V12.2314H68.7022V7.47921H66.1746V12.2314H65.479Z" fill="black"/>
<path d="M65.4795 12.2314H65.5698V6.90391H69.3086V12.1411H68.793V7.38889H66.0847V12.1411H65.4795V12.2314H65.5698H65.4795V12.3217H66.175H66.2653V7.56948H68.6124V12.3217H69.3992H69.4895V6.72332H65.3892V12.3217H65.4795V12.2314Z" fill="black"/>
<path d="M70.6396 12.2314V6.81364H71.3356V9.13633H74.0445V6.81364H74.7411V12.2314H74.0445V9.78709H71.3356V12.2314H70.6396Z" fill="black"/>
<path d="M70.6396 12.2314H70.7299V6.90391H71.2452V9.2266H74.1347V6.90391H74.6507V12.1411H74.1347V9.69677H71.2452V12.1411H70.6396V12.2314H70.7299H70.6396V12.3217H71.3355H71.4258V9.87736H73.9541V12.3217H74.741H74.8313V6.72332H74.0444H73.9541V9.04601H71.4258V6.72332H70.6396H70.5493V12.3217H70.6396V12.2314Z" fill="black"/>
<path d="M76.9537 11.0776C77.3552 11.4836 77.8454 11.6864 78.4256 11.6864C79.0059 11.6864 79.4969 11.4836 79.8972 11.0776C80.2985 10.6716 80.4996 10.1527 80.4996 9.52244C80.4996 8.89217 80.2985 8.37324 79.8972 7.96727C79.4969 7.5613 79.0059 7.35849 78.4256 7.35849C77.8454 7.35849 77.3552 7.5613 76.9537 7.96727C76.5538 8.37324 76.3523 8.89217 76.3523 9.52244C76.3523 10.1527 76.5538 10.6716 76.9537 11.0776ZM80.4121 11.5312C79.8799 12.0789 79.2175 12.3523 78.4256 12.3523C77.6338 12.3523 76.9718 12.0789 76.4398 11.5312C75.9072 10.9841 75.6416 10.3143 75.6416 9.52244C75.6416 8.73054 75.9072 8.06072 76.4398 7.51371C76.9718 6.96588 77.6338 6.69219 78.4256 6.69219C79.2133 6.69219 79.8735 6.96732 80.4086 7.51723C80.943 8.06713 81.2104 8.73551 81.2104 9.52244C81.2104 10.3143 80.9441 10.9841 80.4121 11.5312Z" fill="black"/>
<path d="M76.9537 11.0777L76.8896 11.1412C77.3057 11.5634 77.8242 11.7779 78.4256 11.7768C79.027 11.7779 79.5465 11.5634 79.9617 11.1412C80.3801 10.7186 80.5906 10.1719 80.5899 9.52254C80.5906 8.87321 80.3801 8.32647 79.9617 7.90388C79.5465 7.48166 79.027 7.26721 78.4256 7.26829C77.8242 7.26721 77.3057 7.48166 76.8896 7.90388C76.4719 8.32647 76.2613 8.87321 76.262 9.52254C76.2613 10.1719 76.4719 10.7186 76.8896 11.1412L76.9537 11.0777L77.0182 11.0142C76.6352 10.6244 76.4437 10.1341 76.4426 9.52254C76.4437 8.91096 76.6352 8.42065 77.0182 8.03084C77.4045 7.64112 77.8666 7.44997 78.4256 7.44888C78.9847 7.44997 79.4475 7.64112 79.8329 8.03084L79.8357 8.03373L79.8329 8.03084C80.2171 8.42065 80.4086 8.91096 80.4093 9.52254C80.4086 10.1341 80.2171 10.6244 79.8329 11.0142C79.4475 11.4039 78.9847 11.5951 78.4256 11.5962C77.8666 11.5951 77.4045 11.4039 77.0182 11.0142L76.9537 11.0777ZM80.4121 11.5313L80.3475 11.4685C79.8302 11.999 79.1966 12.261 78.4256 12.2621C77.6545 12.261 77.0211 11.999 76.5047 11.4685L76.5019 11.4657L76.5047 11.4685C75.9879 10.9362 75.7329 10.2943 75.7319 9.52254C75.7329 8.75077 75.9879 8.10886 76.5047 7.57656C77.0211 7.04607 77.6545 6.78367 78.4256 6.78259C79.1921 6.78367 79.8238 7.04715 80.344 7.58044C80.8626 8.11518 81.1193 8.7561 81.12 9.52254C81.1193 10.2943 80.8632 10.9362 80.3475 11.4685L80.4121 11.5313L80.477 11.594C81.0248 11.0318 81.3013 10.3345 81.3006 9.52254C81.3013 8.7152 81.0238 8.01928 80.4735 7.45457C79.9232 6.88769 79.234 6.601 78.4256 6.60199C77.6129 6.601 76.922 6.88633 76.3749 7.45105V7.45069C75.8264 8.01323 75.5505 8.71059 75.5513 9.52254C75.5505 10.3345 75.8264 11.0318 76.3749 11.5944V11.594C76.922 12.1587 77.6129 12.4434 78.4256 12.4427C79.2383 12.4434 79.9293 12.1587 80.477 11.594L80.4121 11.5313Z" fill="black"/>
<path d="M84.7524 11.5658H86.1529C86.4202 11.5658 86.6369 11.4724 86.8039 11.2851C86.9701 11.0992 87.0532 10.8946 87.0532 10.6724C87.0532 10.4505 86.9674 10.2477 86.7958 10.0636C86.6252 9.87947 86.3994 9.78709 86.1222 9.78709H84.7524V11.5658ZM84.7524 9.13633H86.0166C86.2793 9.13633 86.4897 9.04991 86.6486 8.87528C86.8076 8.70137 86.887 8.5113 86.887 8.30425C86.887 8.09756 86.8103 7.90776 86.6559 7.7371C86.5024 7.56526 86.2992 7.47921 86.0473 7.47921H84.7524V9.13633ZM84.0571 12.2314V6.81364H86.0166C86.4401 6.81364 86.8076 6.95405 87.1173 7.23333C87.4279 7.51379 87.5832 7.86541 87.5832 8.28908C87.5832 8.54615 87.5164 8.77334 87.3818 8.97018C87.2491 9.16694 87.0712 9.31584 86.8491 9.4167V9.44668C87.1155 9.53733 87.3358 9.69391 87.5074 9.91577C87.678 10.138 87.7647 10.3955 87.7647 10.6879C87.7647 11.1316 87.6022 11.4998 87.2762 11.7923C86.9511 12.085 86.5665 12.2314 86.1222 12.2314H84.0571Z" fill="black"/>
<path d="M84.7524 11.5658V11.6561H86.1529C86.4409 11.6572 86.6892 11.5514 86.8707 11.3453C87.0495 11.1467 87.1443 10.9175 87.1434 10.6723C87.1443 10.4269 87.0459 10.1986 86.8617 10.0019C86.6748 9.79898 86.4192 9.69569 86.1222 9.69677H84.6621V11.6561H84.7524V11.5658H84.8427V9.87736H86.1222C86.3804 9.87836 86.5746 9.96025 86.7299 10.125C86.8888 10.2971 86.9619 10.4745 86.9628 10.6723C86.9619 10.8716 86.8906 11.0516 86.7362 11.225C86.5854 11.393 86.3994 11.4741 86.1529 11.4755H84.7524V11.5658H84.8427H84.7524ZM84.7524 9.1363V9.2266H86.0165C86.2982 9.22759 86.5402 9.13025 86.7154 8.93593V8.93629C86.8861 8.75001 86.9773 8.53484 86.9773 8.30422C86.9773 8.07496 86.8897 7.8605 86.7226 7.67639V7.67675C86.5538 7.4855 86.319 7.3878 86.0472 7.38889H84.6621V9.2266H84.7524V9.1363H84.8427V7.56948H86.0472C86.2793 7.57093 86.4508 7.64497 86.5881 7.79703L86.589 7.79766L86.5881 7.79739C86.7299 7.95541 86.7958 8.12047 86.7967 8.30422C86.7958 8.48725 86.7281 8.65304 86.5818 8.81422V8.81458C86.4391 8.96943 86.2594 9.04492 86.0165 9.046H84.7524V9.1363H84.8427H84.7524ZM84.0571 12.2314H84.1474V6.90391H86.0165C86.4201 6.90463 86.7615 7.03511 87.0567 7.3004C87.3502 7.56632 87.492 7.88768 87.4929 8.28905C87.4929 8.53068 87.4306 8.73773 87.3078 8.91932C87.1831 9.1028 87.0197 9.2396 86.8111 9.3345L86.7588 9.35852V9.44665V9.51121L86.8193 9.53198C87.0712 9.61812 87.2743 9.76269 87.436 9.97118L87.4369 9.97217L87.436 9.97082C87.5949 10.1782 87.6744 10.4131 87.6744 10.6879C87.6735 11.1097 87.5236 11.4473 87.2157 11.7253C86.905 12.0036 86.5466 12.1404 86.1222 12.1411H84.0571V12.2314H84.1474H84.0571V12.3217H86.1222C86.5863 12.3224 86.9962 12.1665 87.3367 11.8593C87.6798 11.5527 87.8559 11.1538 87.855 10.6879C87.8559 10.3779 87.7619 10.0978 87.5786 9.86075L87.5777 9.85967L87.5786 9.86039C87.3971 9.62553 87.1606 9.45685 86.878 9.36132L86.8491 9.44665H86.9393V9.41667H86.8491L86.8861 9.49884C87.1217 9.39202 87.315 9.23147 87.4567 9.02054V9.0209C87.6012 8.80898 87.6735 8.56166 87.6735 8.28905C87.6744 7.84353 87.5064 7.46122 87.1777 7.16631L87.1759 7.16459L87.1777 7.16631C86.8527 6.87248 86.4599 6.72259 86.0165 6.72331H83.9668V12.3217H84.0571V12.2314Z" fill="black"/>
</g>
<defs>
<clipPath id="clip0_6764_41673">
<rect width="121.9" height="36.2991" fill="white" transform="translate(0.899902 0.402557)"/>
</clipPath>
<clipPath id="clip1_6764_41673">
<rect width="122.171" height="36.2991" fill="white" transform="translate(0.710449 0.402557)"/>
</clipPath>
</defs>
</svg>
