<svg width="25" height="24" viewBox="0 0 25 24" fill="none" xmlns="http://www.w3.org/2000/svg">
<g id="home-3" clip-path="url(#clip0_6778_8413)">
<path id="Vector" d="M15.5 22.0002V15.0002C15.5 14.0684 15.5 13.6024 15.3478 13.2349C15.1448 12.7448 14.7554 12.3555 14.2654 12.1525C13.8978 12.0002 13.4319 12.0002 12.5 12.0002V12.0002C11.5681 12.0002 11.1022 12.0002 10.7346 12.1525C10.2446 12.3555 9.85523 12.7448 9.65224 13.2349C9.5 13.6024 9.5 14.0684 9.5 15.0002V22.0002M7.50244 3.99829L5.50244 5.59829C4.39986 6.48036 3.84857 6.92139 3.45174 7.46881C3.1002 7.95377 2.83865 8.49795 2.67957 9.07541C2.5 9.72725 2.5 10.4332 2.5 11.8452V14.0002C2.5 16.8005 2.5 18.2006 3.04497 19.2702C3.52433 20.211 4.28924 20.9759 5.23005 21.4553C6.29961 22.0002 7.69974 22.0002 10.5 22.0002H14.5C17.3003 22.0002 18.7004 22.0002 19.77 21.4553C20.7108 20.9759 21.4757 20.211 21.955 19.2702C22.5 18.2006 22.5 16.8005 22.5 14.0002V11.8452C22.5 10.4332 22.5 9.72725 22.3204 9.07541C22.1613 8.49795 21.8998 7.95377 21.5483 7.46881C21.1514 6.92139 20.6001 6.48036 19.4976 5.59829L17.4976 3.99829C15.714 2.57142 14.8222 1.85798 13.8332 1.58438C12.9608 1.34303 12.0392 1.34303 11.1668 1.58438C10.1778 1.85798 9.28603 2.57142 7.50244 3.99829Z" stroke="#2F384C" stroke-width="2" stroke-linecap="round" stroke-linejoin="round"/>
</g>
<defs>
<clipPath id="clip0_6778_8413">
<rect width="24" height="24" fill="white" transform="translate(0.5 0.000244141)"/>
</clipPath>
</defs>
</svg>
