<svg width="20" height="21" viewBox="0 0 20 21" fill="none" xmlns="http://www.w3.org/2000/svg">
<g clip-path="url(#clip0_7588_5332)">
<path d="M5.83366 8.50517L5.83366 5.17183L5.00033 5.83846M5.83366 8.50517L5.00033 8.50517M5.83366 8.50517L6.66699 8.50513M5.00046 11.0052L6.66699 11.0052L6.66686 12.6718L5.00033 12.6718L5.00033 14.3385L6.66699 14.3385M9.16699 14.3385L15.0003 14.3385M9.16699 10.1718L15.0003 10.1718M9.16699 6.00517L15.0003 6.00517M9.667 18.5052L10.3337 18.5052C13.1339 18.5052 14.5341 18.5052 15.6036 17.9602C16.5444 17.4808 17.3093 16.7159 17.7887 15.7751C18.3337 14.7056 18.3337 13.3054 18.3337 10.5052L18.3337 9.8385C18.3337 7.03824 18.3337 5.6381 17.7887 4.56855C17.3093 3.62774 16.5444 2.86283 15.6036 2.38347C14.5341 1.8385 13.1339 1.8385 10.3337 1.8385L9.66699 1.8385C6.86673 1.8385 5.4666 1.8385 4.39704 2.38347C3.45623 2.86283 2.69133 3.62774 2.21196 4.56855C1.66699 5.63811 1.66699 7.03824 1.66699 9.8385L1.66699 10.5052C1.66699 13.3054 1.66699 14.7056 2.21196 15.7751C2.69133 16.7159 3.45623 17.4808 4.39704 17.9602C5.4666 18.5052 6.86673 18.5052 9.667 18.5052Z" stroke="#184BFF" stroke-width="2" stroke-linecap="round" stroke-linejoin="round"/>
</g>
<defs>
<clipPath id="clip0_7588_5332">
<rect width="20" height="20" fill="white" transform="translate(0 0.171875)"/>
</clipPath>
</defs>
</svg>
