<svg width="10" height="22" viewBox="0 0 10 22" fill="none" xmlns="http://www.w3.org/2000/svg">
<g id="Logo">
<g id="Vector">
<mask id="path-1-inside-1_5442_911" fill="white">
<path d="M5.0033 6.12521e-09C3.77084 0.000933335 2.58913 0.490937 1.71765 1.36242C0.846172 2.2339 0.356158 3.41562 0.355225 4.64808V13.5425C0.355225 13.5425 7.44538 8.77461 8.28408 7.93239C8.93468 7.28323 9.37806 6.45565 9.5581 5.55439C9.73814 4.65313 9.64674 3.71872 9.29548 2.86943C8.94422 2.02014 8.34889 1.29415 7.58483 0.783364C6.82078 0.272576 5.92236 -4.71837e-05 5.0033 6.12521e-09Z"/>
</mask>
<path d="M0.355225 4.64808L-1.64478 4.64656V4.64808H0.355225ZM0.355225 13.5425H-1.64478V17.2976L1.47128 15.2021L0.355225 13.5425ZM8.28408 7.93239L6.87143 6.5166L6.86691 6.52114L8.28408 7.93239ZM5.00178 -2C3.23941 -1.99866 1.54962 -1.29798 0.303439 -0.0517944L3.13187 2.77663C3.62865 2.27985 4.30226 2.00053 5.00481 2L5.00178 -2ZM0.303439 -0.0517944C-0.942738 1.19438 -1.64344 2.88419 -1.64477 4.64656L2.35522 4.64959C2.35576 3.94705 2.63508 3.27342 3.13187 2.77663L0.303439 -0.0517944ZM-1.64478 4.64808V13.5425H2.35522V4.64808H-1.64478ZM0.355225 13.5425C1.47128 15.2021 1.47133 15.2021 1.4714 15.2021C1.47147 15.202 1.47157 15.2019 1.47169 15.2019C1.47194 15.2017 1.47229 15.2015 1.47275 15.2012C1.47367 15.2005 1.47501 15.1996 1.47678 15.1984C1.48031 15.1961 1.48552 15.1926 1.49237 15.188C1.50605 15.1787 1.52627 15.1651 1.5526 15.1474C1.60526 15.1119 1.68239 15.0599 1.78074 14.9935C1.97743 14.8607 2.25905 14.6702 2.59952 14.4391C3.2801 13.977 4.19741 13.3514 5.1421 12.6987C6.08499 12.0471 7.06318 11.363 7.8626 10.7855C8.5887 10.2609 9.34968 9.69669 9.70126 9.34363L6.86691 6.52114C6.86754 6.5205 6.76503 6.61309 6.48281 6.83029C6.2314 7.02376 5.90386 7.26588 5.52014 7.5431C4.75428 8.0964 3.80267 8.76215 2.86819 9.40788C1.93549 10.0524 1.02785 10.6714 0.352815 11.1296C0.015473 11.3587 -0.263373 11.5472 -0.457707 11.6785C-0.554866 11.7441 -0.630877 11.7953 -0.682487 11.8301C-0.708291 11.8475 -0.727993 11.8608 -0.741187 11.8696C-0.747783 11.8741 -0.752752 11.8774 -0.756043 11.8796C-0.757689 11.8807 -0.758915 11.8816 -0.759714 11.8821C-0.760114 11.8824 -0.760408 11.8826 -0.760594 11.8827C-0.760687 11.8828 -0.760746 11.8828 -0.760793 11.8828C-0.760825 11.8828 -0.76083 11.8829 0.355225 13.5425ZM9.69673 9.34817C10.6275 8.41948 11.2618 7.23553 11.5194 5.94618L7.59685 5.1626C7.49434 5.67576 7.24188 6.14698 6.87144 6.5166L9.69673 9.34817ZM11.5194 5.94618C11.7769 4.65683 11.6462 3.32005 11.1436 2.10504L7.44732 3.63382C7.64732 4.11739 7.69936 4.64943 7.59685 5.1626L11.5194 5.94618ZM11.1436 2.10504C10.6411 0.890031 9.78943 -0.148572 8.69637 -0.87931L6.47329 2.44604C6.90834 2.73687 7.24731 3.15024 7.44732 3.63382L11.1436 2.10504ZM8.69637 -0.87931C7.60331 -1.61005 6.31802 -2.00007 5.0032 -2L5.0034 2C5.52671 1.99997 6.03825 2.1552 6.47329 2.44604L8.69637 -0.87931Z" fill="#282D3C" mask="url(#path-1-inside-1_5442_911)"/>
</g>
<g id="Vector_2">
<mask id="path-3-inside-2_5442_911" fill="white">
<path d="M9.64795 17.3484C9.64865 18.268 9.37655 19.1672 8.86608 19.9321C8.35561 20.697 7.62972 21.2933 6.78025 21.6455C5.93078 21.9978 4.99591 22.0901 4.09395 21.9109C3.19198 21.7316 2.36345 21.2889 1.71319 20.6386C1.06293 19.9884 0.620183 19.1598 0.440948 18.2579C0.261714 17.3559 0.354059 16.421 0.706297 15.5716C1.05854 14.7221 1.65483 13.9962 2.41974 13.4857C3.18465 12.9753 4.0838 12.7032 5.0034 12.7039C6.23492 12.7048 7.41574 13.1944 8.28656 14.0652C9.15738 14.9361 9.64702 16.1169 9.64795 17.3484Z"/>
</mask>
<path d="M9.64795 17.3484C9.64865 18.268 9.37655 19.1672 8.86608 19.9321C8.35561 20.697 7.62972 21.2933 6.78025 21.6455C5.93078 21.9978 4.99591 22.0901 4.09395 21.9109C3.19198 21.7316 2.36345 21.2889 1.71319 20.6386C1.06293 19.9884 0.620183 19.1598 0.440948 18.2579C0.261714 17.3559 0.354059 16.421 0.706297 15.5716C1.05854 14.7221 1.65483 13.9962 2.41974 13.4857C3.18465 12.9753 4.0838 12.7032 5.0034 12.7039C6.23492 12.7048 7.41574 13.1944 8.28656 14.0652C9.15738 14.9361 9.64702 16.1169 9.64795 17.3484Z" fill="#282D3C"/>
<path d="M5.0034 12.7039L5.00491 10.7039L5.0034 12.7039ZM7.64795 17.3499C7.64835 17.8738 7.49333 18.3861 7.20251 18.8219L10.5297 21.0423C11.2598 19.9482 11.6489 18.6622 11.648 17.3469L7.64795 17.3499ZM7.20251 18.8219C6.91169 19.2577 6.49814 19.5974 6.01418 19.7981L7.54632 23.493C8.7613 22.9892 9.79953 22.1363 10.5297 21.0423L7.20251 18.8219ZM6.01418 19.7981C5.53023 19.9987 4.99762 20.0513 4.48376 19.9492L3.70414 23.8725C4.99421 24.1289 6.33134 23.9968 7.54632 23.493L6.01418 19.7981ZM4.48376 19.9492C3.9699 19.8471 3.49787 19.5949 3.12741 19.2244L0.298978 22.0528C1.22903 22.9829 2.41406 23.6162 3.70414 23.8725L4.48376 19.9492ZM3.12741 19.2244C2.75695 18.8539 2.50471 18.3819 2.40259 17.8681L-1.5207 18.6477C-1.26434 19.9377 -0.631079 21.1228 0.298978 22.0528L3.12741 19.2244ZM2.40259 17.8681C2.30048 17.3542 2.35309 16.8216 2.55377 16.3376L-1.14117 14.8055C-1.64497 16.0205 -1.77705 17.3576 -1.5207 18.6477L2.40259 17.8681ZM2.55377 16.3376C2.75444 15.8537 3.09416 15.4401 3.52994 15.1493L1.30955 11.8222C0.215499 12.5523 -0.637373 13.5905 -1.14117 14.8055L2.55377 16.3376ZM3.52994 15.1493C3.96572 14.8585 4.47797 14.7035 5.00188 14.7039L5.00491 10.7039C3.68962 10.7029 2.40359 11.092 1.30955 11.8222L3.52994 15.1493ZM5.00188 14.7039C5.7035 14.7044 6.37623 14.9833 6.87234 15.4795L9.70077 12.651C8.45525 11.4055 6.76634 10.7052 5.00491 10.7039L5.00188 14.7039ZM6.87234 15.4795C7.36847 15.9756 7.64742 16.6483 7.64795 17.3499L11.648 17.3469C11.6466 15.5855 10.9463 13.8965 9.70077 12.651L6.87234 15.4795Z" fill="#282D3C" mask="url(#path-3-inside-2_5442_911)"/>
</g>
</g>
</svg>
