<svg width="40" height="41" viewBox="0 0 40 41" fill="none" xmlns="http://www.w3.org/2000/svg">
<rect y="0.0708008" width="40" height="40" rx="20" fill="#F4F6FB"/>
<path d="M19.5048 3.59619C17.715 3.59755 15.9989 4.30914 14.7333 5.57473C13.4677 6.84032 12.7561 8.55644 12.7548 10.3463V23.263C12.7548 23.263 23.0513 16.3389 24.2693 15.1158C25.2141 14.1731 25.858 12.9713 26.1194 11.6624C26.3809 10.3536 26.2482 8.99661 25.7381 7.76325C25.2279 6.52989 24.3634 5.47559 23.2538 4.73381C22.1442 3.99203 20.8395 3.59612 19.5048 3.59619Z" fill="#EB008C"/>
<path d="M26.2499 28.7899C26.2509 30.1253 25.8558 31.4311 25.1144 32.5419C24.3731 33.6528 23.319 34.5187 22.0853 35.0302C20.8517 35.5418 19.4941 35.6759 18.1842 35.4156C16.8744 35.1553 15.6711 34.5123 14.7268 33.568C13.7825 32.6237 13.1395 31.4205 12.8792 30.1106C12.6189 28.8007 12.753 27.4431 13.2646 26.2095C13.7761 24.9759 14.6421 23.9217 15.7529 23.1804C16.8637 22.4391 18.1695 22.0439 19.5049 22.0449C21.2934 22.0463 23.0082 22.7573 24.2728 24.022C25.5375 25.2866 26.2485 27.0014 26.2499 28.7899Z" fill="#0000BE"/>
</svg>
