<svg width="82" height="36" viewBox="0 0 82 36" fill="none" xmlns="http://www.w3.org/2000/svg">
<g id="Logo_2">
<path id="Vector" d="M72.0825 26.7916C72.0647 27.1667 72.1231 27.5414 72.2542 27.8932C72.3852 28.245 72.5862 28.5667 72.845 28.8387C73.3887 29.3299 74.0953 29.6019 74.8281 29.6019C75.5608 29.6019 76.2674 29.3299 76.8111 28.8387C77.2975 28.2675 77.5645 27.5418 77.5645 26.7916C77.5645 26.0415 77.2975 25.3158 76.8111 24.7446C76.2659 24.2566 75.5598 23.9867 74.8281 23.9867C74.0963 23.9867 73.3902 24.2566 72.845 24.7446C72.5862 25.0166 72.3852 25.3382 72.2542 25.6901C72.1231 26.0419 72.0647 26.4166 72.0825 26.7916ZM77.5685 22.1142V21.0293H81.028V32.554H77.5685V31.4691C77.1397 31.9479 76.6079 32.3233 76.0132 32.5671C75.4184 32.8108 74.7761 32.9166 74.1346 32.8764C73.3977 32.8823 72.6683 32.7289 71.9961 32.4269C71.324 32.1248 70.725 31.6811 70.2402 31.1262C69.2009 29.9262 68.6289 28.3919 68.6289 26.8044C68.6289 25.217 69.2009 23.6827 70.2402 22.4827C70.7226 21.9231 71.3206 21.4746 71.9928 21.168C72.6651 20.8615 73.3958 20.7042 74.1346 20.7069C74.776 20.6678 75.4179 20.7741 76.0125 21.0178C76.6071 21.2615 77.139 21.6362 77.5685 22.1142Z" fill="#0000BE"/>
<path id="Vector_2" d="M63.8041 25.1796V21.0293H67.2584V32.554H63.8041V28.4037H59.884V32.554H56.4297V21.0293H59.884V25.1796H63.8041Z" fill="#0000BE"/>
<path id="Vector_3" d="M45.2843 21.0295H54.6853V32.5543H51.2309V24.3662H48.7387V27.8001C48.7387 29.5503 48.3054 30.8331 47.4388 31.6485C46.5688 32.4622 45.2997 32.7692 43.6211 32.5696V29.3456C43.8268 29.4333 44.054 29.4577 44.2736 29.4158C44.4933 29.3738 44.6955 29.2674 44.8544 29.1102C45.1823 28.669 45.3355 28.1222 45.2843 27.5749V21.0295Z" fill="#0000BE"/>
<path id="Vector_4" d="M34.3736 26.7917C34.3599 27.1527 34.42 27.5128 34.5503 27.8498C34.6805 28.1868 34.8781 28.4937 35.131 28.7517C35.6392 29.2405 36.3169 29.5135 37.022 29.5135C37.7271 29.5135 38.4048 29.2405 38.9129 28.7517C39.4031 28.2166 39.675 27.5173 39.675 26.7917C39.675 26.066 39.4031 25.3667 38.9129 24.8317C38.4035 24.3452 37.7263 24.0738 37.022 24.0738C36.3177 24.0738 35.6404 24.3452 35.131 24.8317C34.8781 25.0897 34.6805 25.3966 34.5503 25.7336C34.42 26.0706 34.3599 26.4306 34.3736 26.7917ZM41.354 31.1263C40.3542 32.1367 39.0347 32.769 37.6208 32.9153C36.2068 33.0616 34.7859 32.7129 33.6004 31.9285C32.4148 31.1442 31.5381 29.9729 31.1197 28.6143C30.7013 27.2558 30.7672 25.7942 31.3061 24.4788C31.845 23.1634 32.8235 22.0757 34.0748 21.4011C35.3261 20.7266 36.7726 20.5071 38.1677 20.78C39.5628 21.0529 40.8199 21.8013 41.7248 22.8976C42.6297 23.9939 43.1263 25.3702 43.1298 26.7917C43.1466 27.5973 42.9976 28.3978 42.6922 29.1434C42.3867 29.8891 41.9312 30.564 41.354 31.1263Z" fill="#0000BE"/>
<path id="Vector_5" d="M23.4428 29.6779H26.0016C26.6771 29.6779 27.0251 29.3914 27.0251 28.8233C27.0251 28.2553 26.6874 28.0147 26.0016 28.0147H23.4428V29.6779ZM25.6127 23.7774H23.4428V25.3894H25.6127C26.295 25.3894 26.6362 25.1284 26.6362 24.6064C26.6362 24.0844 26.295 23.8081 25.6127 23.7774ZM28.8163 26.633C29.298 26.8706 29.6999 27.2436 29.9726 27.7063C30.2453 28.169 30.377 28.7013 30.3515 29.2378C30.3712 29.6882 30.2895 30.1373 30.1123 30.5518C29.9352 30.9664 29.6671 31.3358 29.328 31.6329C28.5108 32.2766 27.4852 32.5972 26.4468 32.5335H20.2188V21.0293H25.9811C27.0192 20.9685 28.0437 21.2888 28.8623 21.93C29.2014 22.227 29.4695 22.5964 29.6466 23.011C29.8238 23.4255 29.9055 23.8746 29.8858 24.325C29.9107 24.7719 29.8252 25.2181 29.6369 25.6242C29.4486 26.0302 29.1632 26.3837 28.806 26.6535" fill="#0000BE"/>
<g id="Sign">
<path id="Vector_6" d="M6.75507 0.947998C4.96525 0.949353 3.24915 1.66095 1.98356 2.92654C0.717973 4.19213 0.00636029 5.90825 0.00500488 7.69806V20.6148C0.00500488 20.6148 10.3015 13.6907 11.5195 12.4676C12.4643 11.5249 13.1082 10.3231 13.3697 9.01423C13.6311 7.7054 13.4984 6.34842 12.9883 5.11506C12.4782 3.88169 11.6136 2.8274 10.504 2.08562C9.39447 1.34384 8.08976 0.94793 6.75507 0.947998Z" fill="#EB008C"/>
<path id="Vector_7" d="M13.5001 26.1418C13.5011 27.4773 13.106 28.783 12.3647 29.8939C11.6233 31.0047 10.5692 31.8706 9.33556 32.3822C8.10194 32.8937 6.7443 33.0278 5.43444 32.7675C4.12458 32.5072 2.92136 31.8642 1.97704 30.9199C1.03272 29.9756 0.389743 28.7724 0.129454 27.4625C-0.130836 26.1527 0.0032709 24.795 0.514801 23.5614C1.02633 22.3278 1.89229 21.2736 3.00311 20.5323C4.11394 19.791 5.4197 19.3958 6.75517 19.3969C8.54362 19.3982 10.2584 20.1093 11.5231 21.3739C12.7877 22.6385 13.4988 24.3533 13.5001 26.1418Z" fill="#0000BE"/>
</g>
</g>
</svg>