<svg width="21" height="49" viewBox="0 0 21 49" fill="none" xmlns="http://www.w3.org/2000/svg">
<g id="Sign">
<path id="Vector" d="M10.1172 0.74762C7.43585 0.753718 4.8664 1.82316 2.97256 3.72132C1.07871 5.61948 0.0151298 8.19136 0.0151367 10.8727V30.2478C0.0151367 30.2478 15.4523 19.8617 17.2869 18.0271C18.7008 16.6111 19.6635 14.8079 20.0533 12.8452C20.4431 10.8825 20.2426 8.84825 19.4772 6.9994C18.7117 5.15056 17.4155 3.56999 15.7523 2.4573C14.0892 1.3446 12.1336 0.749662 10.1325 0.74762" fill="#EB008C"/>
<path id="Vector_2" d="M20.2346 38.5383C20.2346 40.5393 19.6412 42.4954 18.5295 44.1592C17.4178 45.823 15.8377 47.1198 13.9889 47.8856C12.1402 48.6513 10.106 48.8517 8.14337 48.4613C6.18079 48.0709 4.37803 47.1073 2.96309 45.6924C1.54814 44.2774 0.584547 42.4747 0.194164 40.5121C-0.196218 38.5495 0.00413814 36.5152 0.769901 34.6665C1.53566 32.8178 2.83244 31.2377 4.49625 30.126C6.16005 29.0142 8.11615 28.4209 10.1172 28.4209C12.7999 28.4229 15.3721 29.4895 17.269 31.3864C19.166 33.2834 20.2326 35.8556 20.2346 38.5383Z" fill="#0000BE"/>
</g>
</svg>
