<svg xmlns="http://www.w3.org/2000/svg" width="41" height="28" fill="none">
  <path fill="#FF5F00" d="M23.972 20.067h-7.16V7.28h7.16v12.787Z"/>
  <path fill="#EB001B" d="M17.271 13.673a8.1 8.1 0 0 1 3.126-6.394 8.18 8.18 0 0 0-5.058-1.739c-4.519 0-8.182 3.641-8.182 8.133 0 4.491 3.663 8.132 8.182 8.132a8.18 8.18 0 0 0 5.058-1.739 8.1 8.1 0 0 1-3.126-6.393Z"/>
  <path fill="#F79E1B" d="M33.63 13.673c0 4.491-3.664 8.132-8.183 8.132a8.183 8.183 0 0 1-5.058-1.739 8.1 8.1 0 0 0 0-12.787 8.183 8.183 0 0 1 5.058-1.739c4.519 0 8.182 3.641 8.182 8.133Z"/>
</svg>
