<svg width="20" height="20" viewBox="0 0 20 20" fill="none" xmlns="http://www.w3.org/2000/svg">
<g id="messanger">
<path id="Vector" fill-rule="evenodd" clip-rule="evenodd" d="M1.04175 9.27128C1.04175 4.65304 5.12669 1.04163 10.0001 1.04163C14.8735 1.04163 18.9584 4.65304 18.9584 9.27128C18.9584 13.8895 14.8735 17.5009 10.0001 17.5009C9.43968 17.5009 8.89285 17.4521 8.36187 17.3615L5.27808 18.8931C5.08435 18.9893 4.85464 18.9785 4.67078 18.8645C4.48693 18.7505 4.37508 18.5496 4.37508 18.3333C4.37508 17.8596 4.37475 17.3945 4.37444 16.9554V16.9553C4.37411 16.4893 4.3738 16.0526 4.37393 15.6658C2.36039 14.1716 1.04175 11.8804 1.04175 9.27128ZM14.5542 8.74001C14.996 8.40867 15.0856 7.78188 14.7543 7.34002C14.423 6.89817 13.7962 6.80858 13.3543 7.13991L10.8954 8.98375L10.1128 7.81828C9.95985 7.5906 9.72015 7.43571 9.44975 7.38986C9.17935 7.34402 8.90199 7.41124 8.68259 7.57579L5.44592 10.0033C5.00409 10.3347 4.91455 10.9615 5.24592 11.4033C5.57729 11.8451 6.20409 11.9347 6.64592 11.6033L9.03977 9.8079L9.82242 10.9733C9.97531 11.201 10.215 11.3559 10.4854 11.4017C10.7558 11.4476 11.0331 11.3804 11.2525 11.2158L14.5542 8.74001Z" fill="url(#paint0_linear_8814_52385)"/>
</g>
<defs>
<linearGradient id="paint0_linear_8814_52385" x1="1.04175" y1="9.99996" x2="18.9584" y2="9.99996" gradientUnits="userSpaceOnUse">
<stop stop-color="#580EB1"/>
<stop offset="1" stop-color="#6701A9"/>
</linearGradient>
</defs>
</svg>
