<svg xmlns="http://www.w3.org/2000/svg" width="41" height="28" fill="none">
  <path fill="#40A548" fill-rule="evenodd" d="M6.49 9.697h.046c.33-.006 1.135-.02 1.486 1.166.248.839.644 2.213 1.186 4.123h.221c.583-2.014.982-3.388 1.2-4.123.35-1.184 1.194-1.172 1.604-1.167l.072.001h2.874v8.95H12.25v-5.274h-.196l-1.633 5.275H8.217l-1.633-5.279h-.196v5.279h-2.93v-8.95H6.49Zm12.895 0v5.279h.234l1.986-4.34c.386-.865 1.207-.939 1.207-.939h2.835v8.95h-2.99V13.37h-.234l-1.947 4.34c-.386.86-1.247.939-1.247.939h-2.834v-8.95h2.99Zm13.42 6.284c1.45 0 2.76-.847 3.177-2.03h-9.156v4.697h2.843V15.98h3.136Z" clip-rule="evenodd"/>
  <path fill="#1291D0" d="M32.942 9.697h-6.265c.149 1.993 1.863 3.699 3.637 3.699h5.866c.338-1.656-.827-3.699-3.238-3.699Z"/>
</svg>
