<svg width="20" height="21" viewBox="0 0 20 21" fill="none" xmlns="http://www.w3.org/2000/svg">
<rect x="0.00146484" y="0.0639648" width="20" height="20" rx="8" fill="#EE8208"/>
<g clip-path="url(#clip0_3222_77577)">
<rect x="1.43018" y="1.49243" width="17.1429" height="17.1429" rx="2.85714" fill="#EE8208"/>
<g clip-path="url(#clip1_3222_77577)">
<path d="M10.002 4.34961C9.21987 4.35037 8.47001 4.66143 7.91702 5.21451C7.36403 5.76759 7.05309 6.5175 7.05246 7.29961C7.05347 8.08156 7.36464 8.83117 7.91769 9.38396C8.47075 9.93674 9.22051 10.2476 10.0025 10.2482C10.7842 10.2473 11.5338 9.93638 12.0866 9.38362C12.6395 8.83086 12.9505 8.08139 12.9515 7.29961C12.9509 6.51758 12.64 5.76775 12.0871 5.21468C11.5342 4.66161 10.7845 4.35049 10.0025 4.34961H10.002ZM10.002 6.07818C10.3258 6.07843 10.6364 6.2072 10.8654 6.43621C11.0944 6.66522 11.2232 6.97574 11.2234 7.29961C11.2229 7.62327 11.0941 7.93353 10.8652 8.1624C10.6364 8.39126 10.3261 8.52006 10.0025 8.52056C9.67871 8.52018 9.36833 8.39144 9.13936 8.16256C8.91039 7.93369 8.78153 7.62335 8.78103 7.29961C8.78141 6.97583 8.91023 6.66542 9.13922 6.43652C9.36822 6.20761 9.67867 6.07891 10.0025 6.07866L10.002 6.07818ZM7.52912 10.3496C7.34394 10.3551 7.16543 10.42 7.01994 10.5347C6.87445 10.6494 6.76969 10.8078 6.72113 10.9866C6.67256 11.1654 6.68276 11.355 6.75022 11.5276C6.81769 11.7001 6.93884 11.8464 7.09579 11.9448C7.62274 12.2761 8.20183 12.516 8.80865 12.6544L7.16008 14.3034C7.0021 14.4663 6.91454 14.6849 6.91631 14.9118C6.91808 15.1387 7.00904 15.3559 7.16955 15.5163C7.33005 15.6768 7.54722 15.7676 7.77416 15.7693C8.0011 15.771 8.21959 15.6834 8.38246 15.5253L10.002 13.9048L11.6234 15.5253C11.7036 15.6055 11.7988 15.6691 11.9035 15.7125C12.0082 15.7559 12.1205 15.7782 12.2339 15.7782C12.3473 15.7782 12.4595 15.7559 12.5643 15.7125C12.669 15.6691 12.7642 15.6055 12.8444 15.5253C13.1825 15.1877 13.1825 14.6406 12.8444 14.3034L11.1958 12.6548C11.8025 12.5165 12.3814 12.2767 12.9082 11.9453C13.0043 11.8849 13.0875 11.8062 13.1532 11.7136C13.2188 11.621 13.2656 11.5164 13.2908 11.4058C13.316 11.2951 13.3192 11.1806 13.3002 11.0687C13.2811 10.9568 13.2402 10.8497 13.1798 10.7537C13.1194 10.6576 13.0407 10.5743 12.9481 10.5087C12.8555 10.443 12.7509 10.3962 12.6403 10.371C12.5296 10.3458 12.4151 10.3426 12.3032 10.3617C12.1913 10.3807 12.0843 10.4216 11.9882 10.482C11.3927 10.8542 10.7047 11.0516 10.0025 11.0516C9.30025 11.0516 8.61218 10.8542 8.01674 10.482C7.86531 10.3868 7.69579 10.3439 7.52912 10.3496Z" fill="white"/>
</g>
</g>
<defs>
<clipPath id="clip0_3222_77577">
<rect width="17.1429" height="17.1429" fill="white" transform="translate(1.43018 1.49243)"/>
</clipPath>
<clipPath id="clip1_3222_77577">
<rect width="11.4286" height="11.4286" fill="white" transform="translate(4.2876 4.34961)"/>
</clipPath>
</defs>
</svg>
