<svg width="28" height="28" viewBox="0 0 28 28" fill="none" xmlns="http://www.w3.org/2000/svg">
<g id="phone" filter="url(#filter0_d_7215_20730)">
<path id="Vector" d="M7.99418 10.8333C6.86824 8.92574 6.12331 6.70578 5.82026 4.23429C5.77395 3.85665 5.7508 3.66783 5.78021 3.42558C5.87264 2.66425 6.54032 1.9097 7.28474 1.7253C7.52161 1.66663 7.76125 1.66663 8.24053 1.66663V1.66663C8.66637 1.66663 8.87929 1.66663 9.06661 1.70269C9.69733 1.82411 10.2314 2.24107 10.5021 2.82351C10.5825 2.99649 10.6342 3.20305 10.7375 3.61618L10.7916 3.83264C10.9994 4.66399 11.1033 5.07966 11.1205 5.48661C11.1508 6.20842 10.9851 6.92497 10.6409 7.56017C10.4469 7.9183 10.171 8.24615 9.61933 8.90185L7.99418 10.8333ZM7.99418 10.8333C9.20677 12.8876 10.8613 14.5796 12.8816 15.8333M12.8816 15.8333C14.8518 17.0558 17.17 17.8615 19.7656 18.1798C20.1433 18.2261 20.3322 18.2492 20.5744 18.2198C21.3358 18.1274 22.0903 17.4597 22.2747 16.7153C22.3334 16.4784 22.3334 16.2304 22.3334 15.7343V15.7343C22.3334 15.3253 22.3334 15.1208 22.2974 14.9334C22.1759 14.3027 21.759 13.7687 21.1765 13.4979C21.0035 13.4175 20.797 13.3659 20.3839 13.2626L20.0791 13.1864C19.1974 12.966 18.7566 12.8558 18.3218 12.8434C17.7135 12.8262 17.1093 12.9479 16.5552 13.1995C16.1591 13.3792 15.7954 13.6516 15.0679 14.1963L12.8816 15.8333Z" stroke="white" stroke-width="2" stroke-linecap="round" stroke-linejoin="round"/>
</g>
<defs>
<filter id="filter0_d_7215_20730" x="0" y="0" width="28" height="28" filterUnits="userSpaceOnUse" color-interpolation-filters="sRGB">
<feFlood flood-opacity="0" result="BackgroundImageFix"/>
<feColorMatrix in="SourceAlpha" type="matrix" values="0 0 0 0 0 0 0 0 0 0 0 0 0 0 0 0 0 0 127 0" result="hardAlpha"/>
<feOffset dy="4"/>
<feGaussianBlur stdDeviation="2"/>
<feComposite in2="hardAlpha" operator="out"/>
<feColorMatrix type="matrix" values="0 0 0 0 0 0 0 0 0 0 0 0 0 0 0 0 0 0 0.25 0"/>
<feBlend mode="normal" in2="BackgroundImageFix" result="effect1_dropShadow_7215_20730"/>
<feBlend mode="normal" in="SourceGraphic" in2="effect1_dropShadow_7215_20730" result="shape"/>
</filter>
</defs>
</svg>
