<svg width="25" height="24" viewBox="0 0 25 24" fill="none" xmlns="http://www.w3.org/2000/svg">
<g id="phone">
<path id="Vector" d="M5.49263 13.0002C4.1415 10.7112 3.24758 8.04723 2.88392 5.08144C2.77738 4.21258 2.72411 3.77815 2.87992 3.33579C3.04019 2.88079 3.44511 2.42319 3.87722 2.20874C4.29733 2.00024 4.7943 2.00024 5.78825 2.00024V2.00024C6.59803 2.00024 7.00292 2.00024 7.3442 2.12902C7.72397 2.27231 8.05115 2.52776 8.28227 2.86144C8.48997 3.1613 8.58817 3.5541 8.78457 4.3397L8.90686 4.82886C9.19732 5.99069 9.34255 6.5716 9.32067 7.14168C9.30129 7.64653 9.18645 8.14314 8.98222 8.60524C8.7516 9.12705 8.36608 9.58522 7.59504 10.5016L5.49263 13.0002ZM5.49263 13.0002C6.94773 15.4655 8.93312 17.4959 11.3576 19.0002M11.3576 19.0002C13.7218 20.4673 16.5036 21.4341 19.6183 21.816C20.4873 21.9226 20.9218 21.9758 21.3641 21.82C21.8191 21.6598 22.2768 21.2549 22.4912 20.8227C22.6997 20.4026 22.6997 19.8956 22.6997 18.8814V18.8814C22.6997 18.0918 22.6997 17.697 22.5709 17.3557C22.4276 16.976 22.1722 16.6488 21.8385 16.4177C21.5387 16.21 21.1459 16.1118 20.3602 15.9154L19.652 15.7383C18.5674 15.4672 18.0251 15.3316 17.4894 15.343C17.0148 15.3531 16.5459 15.4476 16.1044 15.6221C15.6061 15.8191 15.1587 16.1541 14.2638 16.8242L11.3576 19.0002Z" stroke="#2F384C" stroke-width="2" stroke-linecap="round" stroke-linejoin="round"/>
</g>
</svg>
