<svg  width="20" height="20" viewBox="0 0 20 20" fill="none" xmlns="http://www.w3.org/2000/svg">
<path d="M3.99394 10.8333C2.868 8.92574 2.12307 6.70578 1.82001 4.23429C1.77371 3.85665 1.75056 3.66783 1.77997 3.42558C1.8724 2.66425 2.54008 1.9097 3.28449 1.7253C3.52136 1.66663 3.761 1.66663 4.24029 1.66663V1.66663C4.66612 1.66663 4.87904 1.66663 5.06636 1.70269C5.69709 1.82411 6.23112 2.24107 6.50189 2.82351C6.5823 2.99649 6.63394 3.20305 6.73722 3.61618L6.79134 3.83264C6.99918 4.66399 7.1031 5.07966 7.12021 5.48661C7.15056 6.20842 6.98485 6.92497 6.6407 7.56017C6.44666 7.9183 6.1708 8.24615 5.61908 8.90185L3.99394 10.8333ZM3.99394 10.8333C5.20652 12.8876 6.86102 14.5796 8.88139 15.8333M8.88139 15.8333C10.8516 17.0558 13.1697 17.8615 15.7653 18.1798C16.1431 18.2261 16.332 18.2492 16.5742 18.2198C17.3355 18.1274 18.0901 17.4597 18.2745 16.7153C18.3332 16.4784 18.3332 16.2304 18.3332 15.7343V15.7343C18.3332 15.3253 18.3332 15.1208 18.2971 14.9334C18.1757 14.3027 17.7587 13.7687 17.1763 13.4979C17.0033 13.4175 16.7967 13.3659 16.3836 13.2626L16.0789 13.1864C15.1972 12.966 14.7564 12.8558 14.3216 12.8434C13.7133 12.8262 13.1091 12.9479 12.5549 13.1995C12.1589 13.3792 11.7951 13.6516 11.0677 14.1963L8.88139 15.8333Z" stroke="white" stroke-width="2" stroke-linecap="round" stroke-linejoin="round"/>
</svg>
