<svg width="20" height="20" viewBox="0 0 20 20" fill="none" xmlns="http://www.w3.org/2000/svg">
<g id="phone">
<path id="Vector" d="M4.24053 1.04163C3.65424 1.04163 3.36109 1.04163 3.07262 1.11108C2.13043 1.33792 1.28742 2.28845 1.17476 3.25099C1.14026 3.54569 1.16785 3.77493 1.22301 4.23341C1.51439 6.65509 2.18735 9.00174 3.45595 11.151C4.71973 13.2921 6.44576 15.0574 8.55211 16.3644C10.7759 17.7442 13.2296 18.4693 15.7667 18.7759C16.2243 18.8312 16.4531 18.8588 16.7479 18.8244C17.7105 18.7122 18.662 17.8688 18.8889 16.9266C18.9584 16.6381 18.9584 16.3452 18.9584 15.7595C18.9584 15.2409 18.9584 14.9816 18.9156 14.7533C18.7661 13.9557 18.2388 13.2803 17.5012 12.9418C17.2901 12.8449 17.0385 12.782 16.5354 12.6562L16.0402 12.5324C15.0625 12.288 14.5736 12.1658 14.091 12.1635C13.546 12.1608 13.0061 12.2696 12.5046 12.4832C12.0606 12.6722 11.6572 12.9743 10.8505 13.5783L10.6591 13.7216C10.0201 14.2001 9.70061 14.4393 9.28854 14.534C8.96786 14.6078 8.50441 14.5838 8.19307 14.4773C7.79299 14.3404 7.55591 14.1212 7.08175 13.6828C6.73373 13.361 6.40269 13.0217 6.08928 12.6656C5.72297 12.2493 5.53982 12.0412 5.41092 11.6937C5.26797 11.3083 5.26158 10.7328 5.39595 10.3444C5.51711 9.99409 5.74578 9.72233 6.20311 9.17881C6.84706 8.41349 7.16903 8.03083 7.37927 7.61395C7.66865 7.04013 7.81552 6.40504 7.80743 5.76244C7.80156 5.29559 7.68252 4.81946 7.44446 3.86719L7.34381 3.46459C7.21803 2.96149 7.15515 2.70994 7.05826 2.49883C6.71976 1.76129 6.04433 1.23393 5.24671 1.08442C5.01841 1.04163 4.75911 1.04163 4.24053 1.04163Z" fill="url(#paint0_linear_8814_52397)"/>
</g>
<defs>
<linearGradient id="paint0_linear_8814_52397" x1="1.04175" y1="9.99996" x2="18.9584" y2="9.99996" gradientUnits="userSpaceOnUse">
<stop stop-color="#580EB1"/>
<stop offset="1" stop-color="#6701A9"/>
</linearGradient>
</defs>
</svg>
