<svg width="109" height="109" viewBox="0 0 109 109" fill="none" xmlns="http://www.w3.org/2000/svg">
<g id="qrCode" filter="url(#filter0_dd_6672_41336)">
<rect x="8.1001" y="8.50166" width="92.4" height="92.4" rx="12" fill="white" shape-rendering="crispEdges"/>
<g id="Vector">
<path d="M16.6629 14.2767H13.875V17.0646H16.6629V14.2767Z" fill="black"/>
<path d="M19.4509 14.2767H16.6629V17.0646H19.4509V14.2767Z" fill="black"/>
<path d="M22.2388 14.2767H19.4509V17.0646H22.2388V14.2767Z" fill="black"/>
<path d="M25.0267 14.2767H22.2388V17.0646H25.0267V14.2767Z" fill="black"/>
<path d="M27.8147 14.2767H25.0267V17.0646H27.8147V14.2767Z" fill="black"/>
<path d="M30.6026 14.2767H27.8147V17.0646H30.6026V14.2767Z" fill="black"/>
<path d="M33.3905 14.2767H30.6026V17.0646H33.3905V14.2767Z" fill="black"/>
<path d="M38.9664 14.2767H36.1784V17.0646H38.9664V14.2767Z" fill="black"/>
<path d="M41.7543 14.2767H38.9664V17.0646H41.7543V14.2767Z" fill="black"/>
<path d="M44.5422 14.2767H41.7543V17.0646H44.5422V14.2767Z" fill="black"/>
<path d="M47.3302 14.2767H44.5422V17.0646H47.3302V14.2767Z" fill="black"/>
<path d="M55.694 14.2767H52.906V17.0646H55.694V14.2767Z" fill="black"/>
<path d="M58.4819 14.2767H55.694V17.0646H58.4819V14.2767Z" fill="black"/>
<path d="M66.8457 14.2767H64.0578V17.0646H66.8457V14.2767Z" fill="black"/>
<path d="M72.4216 14.2767H69.6336V17.0646H72.4216V14.2767Z" fill="black"/>
<path d="M77.9974 14.2767H75.2095V17.0646H77.9974V14.2767Z" fill="black"/>
<path d="M80.7853 14.2767H77.9974V17.0646H80.7853V14.2767Z" fill="black"/>
<path d="M83.5733 14.2767H80.7853V17.0646H83.5733V14.2767Z" fill="black"/>
<path d="M86.3612 14.2767H83.5733V17.0646H86.3612V14.2767Z" fill="black"/>
<path d="M89.1491 14.2767H86.3612V17.0646H89.1491V14.2767Z" fill="black"/>
<path d="M91.9371 14.2767H89.1491V17.0646H91.9371V14.2767Z" fill="black"/>
<path d="M94.725 14.2767H91.9371V17.0646H94.725V14.2767Z" fill="black"/>
<path d="M16.6629 17.0646H13.875V19.8525H16.6629V17.0646Z" fill="black"/>
<path d="M33.3905 17.0646H30.6026V19.8525H33.3905V17.0646Z" fill="black"/>
<path d="M55.694 17.0646H52.906V19.8525H55.694V17.0646Z" fill="black"/>
<path d="M61.2698 17.0646H58.4819V19.8525H61.2698V17.0646Z" fill="black"/>
<path d="M64.0578 17.0646H61.2698V19.8525H64.0578V17.0646Z" fill="black"/>
<path d="M66.8457 17.0646H64.0578V19.8525H66.8457V17.0646Z" fill="black"/>
<path d="M72.4216 17.0646H69.6336V19.8525H72.4216V17.0646Z" fill="black"/>
<path d="M77.9974 17.0646H75.2095V19.8525H77.9974V17.0646Z" fill="black"/>
<path d="M94.725 17.0646H91.9371V19.8525H94.725V17.0646Z" fill="black"/>
<path d="M16.6629 19.8525H13.875V22.6405H16.6629V19.8525Z" fill="black"/>
<path d="M22.2388 19.8525H19.4509V22.6405H22.2388V19.8525Z" fill="black"/>
<path d="M25.0267 19.8525H22.2388V22.6405H25.0267V19.8525Z" fill="black"/>
<path d="M27.8147 19.8525H25.0267V22.6405H27.8147V19.8525Z" fill="black"/>
<path d="M33.3905 19.8525H30.6026V22.6405H33.3905V19.8525Z" fill="black"/>
<path d="M38.9664 19.8525H36.1784V22.6405H38.9664V19.8525Z" fill="black"/>
<path d="M41.7543 19.8525H38.9664V22.6405H41.7543V19.8525Z" fill="black"/>
<path d="M47.3302 19.8525H44.5422V22.6405H47.3302V19.8525Z" fill="black"/>
<path d="M50.1181 19.8525H47.3302V22.6405H50.1181V19.8525Z" fill="black"/>
<path d="M52.906 19.8525H50.1181V22.6405H52.906V19.8525Z" fill="black"/>
<path d="M55.694 19.8525H52.906V22.6405H55.694V19.8525Z" fill="black"/>
<path d="M72.4216 19.8525H69.6336V22.6405H72.4216V19.8525Z" fill="black"/>
<path d="M77.9974 19.8525H75.2095V22.6405H77.9974V19.8525Z" fill="black"/>
<path d="M83.5733 19.8525H80.7853V22.6405H83.5733V19.8525Z" fill="black"/>
<path d="M86.3612 19.8525H83.5733V22.6405H86.3612V19.8525Z" fill="black"/>
<path d="M89.1491 19.8525H86.3612V22.6405H89.1491V19.8525Z" fill="black"/>
<path d="M94.725 19.8525H91.9371V22.6405H94.725V19.8525Z" fill="black"/>
<path d="M16.6629 22.6405H13.875V25.4284H16.6629V22.6405Z" fill="black"/>
<path d="M22.2388 22.6405H19.4509V25.4284H22.2388V22.6405Z" fill="black"/>
<path d="M25.0267 22.6405H22.2388V25.4284H25.0267V22.6405Z" fill="black"/>
<path d="M27.8147 22.6405H25.0267V25.4284H27.8147V22.6405Z" fill="black"/>
<path d="M33.3905 22.6405H30.6026V25.4284H33.3905V22.6405Z" fill="black"/>
<path d="M41.7543 22.6405H38.9664V25.4284H41.7543V22.6405Z" fill="black"/>
<path d="M47.3302 22.6405H44.5422V25.4284H47.3302V22.6405Z" fill="black"/>
<path d="M50.1181 22.6405H47.3302V25.4284H50.1181V22.6405Z" fill="black"/>
<path d="M52.906 22.6405H50.1181V25.4284H52.906V22.6405Z" fill="black"/>
<path d="M55.694 22.6405H52.906V25.4284H55.694V22.6405Z" fill="black"/>
<path d="M64.0578 22.6405H61.2698V25.4284H64.0578V22.6405Z" fill="black"/>
<path d="M69.6336 22.6405H66.8457V25.4284H69.6336V22.6405Z" fill="black"/>
<path d="M77.9974 22.6405H75.2095V25.4284H77.9974V22.6405Z" fill="black"/>
<path d="M83.5733 22.6405H80.7853V25.4284H83.5733V22.6405Z" fill="black"/>
<path d="M86.3612 22.6405H83.5733V25.4284H86.3612V22.6405Z" fill="black"/>
<path d="M89.1491 22.6405H86.3612V25.4284H89.1491V22.6405Z" fill="black"/>
<path d="M94.725 22.6405H91.9371V25.4284H94.725V22.6405Z" fill="black"/>
<path d="M16.6629 25.4284H13.875V28.2163H16.6629V25.4284Z" fill="black"/>
<path d="M22.2388 25.4284H19.4509V28.2163H22.2388V25.4284Z" fill="black"/>
<path d="M25.0267 25.4284H22.2388V28.2163H25.0267V25.4284Z" fill="black"/>
<path d="M27.8147 25.4284H25.0267V28.2163H27.8147V25.4284Z" fill="black"/>
<path d="M33.3905 25.4284H30.6026V28.2163H33.3905V25.4284Z" fill="black"/>
<path d="M41.7543 25.4284H38.9664V28.2163H41.7543V25.4284Z" fill="black"/>
<path d="M44.5422 25.4284H41.7543V28.2163H44.5422V25.4284Z" fill="black"/>
<path d="M52.906 25.4284H50.1181V28.2163H52.906V25.4284Z" fill="black"/>
<path d="M55.694 25.4284H52.906V28.2163H55.694V25.4284Z" fill="black"/>
<path d="M58.4819 25.4284H55.694V28.2163H58.4819V25.4284Z" fill="black"/>
<path d="M61.2698 25.4284H58.4819V28.2163H61.2698V25.4284Z" fill="black"/>
<path d="M69.6336 25.4284H66.8457V28.2163H69.6336V25.4284Z" fill="black"/>
<path d="M72.4216 25.4284H69.6336V28.2163H72.4216V25.4284Z" fill="black"/>
<path d="M77.9974 25.4284H75.2095V28.2163H77.9974V25.4284Z" fill="black"/>
<path d="M83.5733 25.4284H80.7853V28.2163H83.5733V25.4284Z" fill="black"/>
<path d="M86.3612 25.4284H83.5733V28.2163H86.3612V25.4284Z" fill="black"/>
<path d="M89.1491 25.4284H86.3612V28.2163H89.1491V25.4284Z" fill="black"/>
<path d="M94.725 25.4284H91.9371V28.2163H94.725V25.4284Z" fill="black"/>
<path d="M16.6629 28.2163H13.875V31.0042H16.6629V28.2163Z" fill="black"/>
<path d="M33.3905 28.2163H30.6026V31.0042H33.3905V28.2163Z" fill="black"/>
<path d="M44.5422 28.2163H41.7543V31.0042H44.5422V28.2163Z" fill="black"/>
<path d="M47.3302 28.2163H44.5422V31.0042H47.3302V28.2163Z" fill="black"/>
<path d="M52.906 28.2163H50.1181V31.0042H52.906V28.2163Z" fill="black"/>
<path d="M58.4819 28.2163H55.694V31.0042H58.4819V28.2163Z" fill="black"/>
<path d="M64.0578 28.2163H61.2698V31.0042H64.0578V28.2163Z" fill="black"/>
<path d="M69.6336 28.2163H66.8457V31.0042H69.6336V28.2163Z" fill="black"/>
<path d="M72.4216 28.2163H69.6336V31.0042H72.4216V28.2163Z" fill="black"/>
<path d="M77.9974 28.2163H75.2095V31.0042H77.9974V28.2163Z" fill="black"/>
<path d="M94.725 28.2163H91.9371V31.0042H94.725V28.2163Z" fill="black"/>
<path d="M16.6629 31.0042H13.875V33.7922H16.6629V31.0042Z" fill="black"/>
<path d="M19.4509 31.0042H16.6629V33.7922H19.4509V31.0042Z" fill="black"/>
<path d="M22.2388 31.0042H19.4509V33.7922H22.2388V31.0042Z" fill="black"/>
<path d="M25.0267 31.0042H22.2388V33.7922H25.0267V31.0042Z" fill="black"/>
<path d="M27.8147 31.0042H25.0267V33.7922H27.8147V31.0042Z" fill="black"/>
<path d="M30.6026 31.0042H27.8147V33.7922H30.6026V31.0042Z" fill="black"/>
<path d="M33.3905 31.0042H30.6026V33.7922H33.3905V31.0042Z" fill="black"/>
<path d="M38.9664 31.0042H36.1784V33.7922H38.9664V31.0042Z" fill="black"/>
<path d="M44.5422 31.0042H41.7543V33.7922H44.5422V31.0042Z" fill="black"/>
<path d="M50.1181 31.0042H47.3302V33.7922H50.1181V31.0042Z" fill="black"/>
<path d="M55.694 31.0042H52.906V33.7922H55.694V31.0042Z" fill="black"/>
<path d="M61.2698 31.0042H58.4819V33.7922H61.2698V31.0042Z" fill="black"/>
<path d="M66.8457 31.0042H64.0578V33.7922H66.8457V31.0042Z" fill="black"/>
<path d="M72.4216 31.0042H69.6336V33.7922H72.4216V31.0042Z" fill="black"/>
<path d="M77.9974 31.0042H75.2095V33.7922H77.9974V31.0042Z" fill="black"/>
<path d="M80.7853 31.0042H77.9974V33.7922H80.7853V31.0042Z" fill="black"/>
<path d="M83.5733 31.0042H80.7853V33.7922H83.5733V31.0042Z" fill="black"/>
<path d="M86.3612 31.0042H83.5733V33.7922H86.3612V31.0042Z" fill="black"/>
<path d="M89.1491 31.0042H86.3612V33.7922H89.1491V31.0042Z" fill="black"/>
<path d="M91.9371 31.0042H89.1491V33.7922H91.9371V31.0042Z" fill="black"/>
<path d="M94.725 31.0042H91.9371V33.7922H94.725V31.0042Z" fill="black"/>
<path d="M38.9664 33.7922H36.1784V36.5801H38.9664V33.7922Z" fill="black"/>
<path d="M41.7543 33.7922H38.9664V36.5801H41.7543V33.7922Z" fill="black"/>
<path d="M50.1181 33.7922H47.3302V36.5801H50.1181V33.7922Z" fill="black"/>
<path d="M55.694 33.7922H52.906V36.5801H55.694V33.7922Z" fill="black"/>
<path d="M61.2698 33.7922H58.4819V36.5801H61.2698V33.7922Z" fill="black"/>
<path d="M64.0578 33.7922H61.2698V36.5801H64.0578V33.7922Z" fill="black"/>
<path d="M72.4216 33.7922H69.6336V36.5801H72.4216V33.7922Z" fill="black"/>
<path d="M16.6629 36.5801H13.875V39.368H16.6629V36.5801Z" fill="black"/>
<path d="M22.2388 36.5801H19.4509V39.368H22.2388V36.5801Z" fill="black"/>
<path d="M30.6026 36.5801H27.8147V39.368H30.6026V36.5801Z" fill="black"/>
<path d="M33.3905 36.5801H30.6026V39.368H33.3905V36.5801Z" fill="black"/>
<path d="M41.7543 36.5801H38.9664V39.368H41.7543V36.5801Z" fill="black"/>
<path d="M50.1181 36.5801H47.3302V39.368H50.1181V36.5801Z" fill="black"/>
<path d="M55.694 36.5801H52.906V39.368H55.694V36.5801Z" fill="black"/>
<path d="M58.4819 36.5801H55.694V39.368H58.4819V36.5801Z" fill="black"/>
<path d="M66.8457 36.5801H64.0578V39.368H66.8457V36.5801Z" fill="black"/>
<path d="M69.6336 36.5801H66.8457V39.368H69.6336V36.5801Z" fill="black"/>
<path d="M75.2095 36.5801H72.4216V39.368H75.2095V36.5801Z" fill="black"/>
<path d="M77.9974 36.5801H75.2095V39.368H77.9974V36.5801Z" fill="black"/>
<path d="M89.1491 36.5801H86.3612V39.368H89.1491V36.5801Z" fill="black"/>
<path d="M94.725 36.5801H91.9371V39.368H94.725V36.5801Z" fill="black"/>
<path d="M16.6629 39.368H13.875V42.156H16.6629V39.368Z" fill="black"/>
<path d="M22.2388 39.368H19.4509V42.156H22.2388V39.368Z" fill="black"/>
<path d="M25.0267 39.368H22.2388V42.156H25.0267V39.368Z" fill="black"/>
<path d="M41.7543 39.368H38.9664V42.156H41.7543V39.368Z" fill="black"/>
<path d="M44.5422 39.368H41.7543V42.156H44.5422V39.368Z" fill="black"/>
<path d="M55.694 39.368H52.906V42.156H55.694V39.368Z" fill="black"/>
<path d="M75.2095 39.368H72.4216V42.156H75.2095V39.368Z" fill="black"/>
<path d="M77.9974 39.368H75.2095V42.156H77.9974V39.368Z" fill="black"/>
<path d="M83.5733 39.368H80.7853V42.156H83.5733V39.368Z" fill="black"/>
<path d="M89.1491 39.368H86.3612V42.156H89.1491V39.368Z" fill="black"/>
<path d="M94.725 39.368H91.9371V42.156H94.725V39.368Z" fill="black"/>
<path d="M25.0267 42.156H22.2388V44.9439H25.0267V42.156Z" fill="black"/>
<path d="M27.8147 42.156H25.0267V44.9439H27.8147V42.156Z" fill="black"/>
<path d="M30.6026 42.156H27.8147V44.9439H30.6026V42.156Z" fill="black"/>
<path d="M33.3905 42.156H30.6026V44.9439H33.3905V42.156Z" fill="black"/>
<path d="M36.1784 42.156H33.3905V44.9439H36.1784V42.156Z" fill="black"/>
<path d="M50.1181 42.156H47.3302V44.9439H50.1181V42.156Z" fill="black"/>
<path d="M52.906 42.156H50.1181V44.9439H52.906V42.156Z" fill="black"/>
<path d="M55.694 42.156H52.906V44.9439H55.694V42.156Z" fill="black"/>
<path d="M66.8457 42.156H64.0578V44.9439H66.8457V42.156Z" fill="black"/>
<path d="M72.4216 42.156H69.6336V44.9439H72.4216V42.156Z" fill="black"/>
<path d="M77.9974 42.156H75.2095V44.9439H77.9974V42.156Z" fill="black"/>
<path d="M80.7853 42.156H77.9974V44.9439H80.7853V42.156Z" fill="black"/>
<path d="M83.5733 42.156H80.7853V44.9439H83.5733V42.156Z" fill="black"/>
<path d="M86.3612 42.156H83.5733V44.9439H86.3612V42.156Z" fill="black"/>
<path d="M91.9371 42.156H89.1491V44.9439H91.9371V42.156Z" fill="black"/>
<path d="M94.725 42.156H91.9371V44.9439H94.725V42.156Z" fill="black"/>
<path d="M19.4509 44.9439H16.6629V47.7318H19.4509V44.9439Z" fill="black"/>
<path d="M22.2388 44.9439H19.4509V47.7318H22.2388V44.9439Z" fill="black"/>
<path d="M25.0267 44.9439H22.2388V47.7318H25.0267V44.9439Z" fill="black"/>
<path d="M36.1784 44.9439H33.3905V47.7318H36.1784V44.9439Z" fill="black"/>
<path d="M44.5422 44.9439H41.7543V47.7318H44.5422V44.9439Z" fill="black"/>
<path d="M52.906 44.9439H50.1181V47.7318H52.906V44.9439Z" fill="black"/>
<path d="M58.4819 44.9439H55.694V47.7318H58.4819V44.9439Z" fill="black"/>
<path d="M61.2698 44.9439H58.4819V47.7318H61.2698V44.9439Z" fill="black"/>
<path d="M69.6336 44.9439H66.8457V47.7318H69.6336V44.9439Z" fill="black"/>
<path d="M83.5733 44.9439H80.7853V47.7318H83.5733V44.9439Z" fill="black"/>
<path d="M89.1491 44.9439H86.3612V47.7318H89.1491V44.9439Z" fill="black"/>
<path d="M91.9371 44.9439H89.1491V47.7318H91.9371V44.9439Z" fill="black"/>
<path d="M19.4509 47.7318H16.6629V50.5198H19.4509V47.7318Z" fill="black"/>
<path d="M33.3905 47.7318H30.6026V50.5198H33.3905V47.7318Z" fill="black"/>
<path d="M47.3302 47.7318H44.5422V50.5198H47.3302V47.7318Z" fill="black"/>
<path d="M50.1181 47.7318H47.3302V50.5198H50.1181V47.7318Z" fill="black"/>
<path d="M55.694 47.7318H52.906V50.5198H55.694V47.7318Z" fill="black"/>
<path d="M64.0578 47.7318H61.2698V50.5198H64.0578V47.7318Z" fill="black"/>
<path d="M69.6336 47.7318H66.8457V50.5198H69.6336V47.7318Z" fill="black"/>
<path d="M75.2095 47.7318H72.4216V50.5198H75.2095V47.7318Z" fill="black"/>
<path d="M86.3612 47.7318H83.5733V50.5198H86.3612V47.7318Z" fill="black"/>
<path d="M89.1491 47.7318H86.3612V50.5198H89.1491V47.7318Z" fill="black"/>
<path d="M94.725 47.7318H91.9371V50.5198H94.725V47.7318Z" fill="black"/>
<path d="M16.6629 50.5198H13.875V53.3077H16.6629V50.5198Z" fill="black"/>
<path d="M22.2388 50.5198H19.4509V53.3077H22.2388V50.5198Z" fill="black"/>
<path d="M25.0267 50.5198H22.2388V53.3077H25.0267V50.5198Z" fill="black"/>
<path d="M27.8147 50.5198H25.0267V53.3077H27.8147V50.5198Z" fill="black"/>
<path d="M41.7543 50.5198H38.9664V53.3077H41.7543V50.5198Z" fill="black"/>
<path d="M50.1181 50.5198H47.3302V53.3077H50.1181V50.5198Z" fill="black"/>
<path d="M52.906 50.5198H50.1181V53.3077H52.906V50.5198Z" fill="black"/>
<path d="M58.4819 50.5198H55.694V53.3077H58.4819V50.5198Z" fill="black"/>
<path d="M61.2698 50.5198H58.4819V53.3077H61.2698V50.5198Z" fill="black"/>
<path d="M66.8457 50.5198H64.0578V53.3077H66.8457V50.5198Z" fill="black"/>
<path d="M72.4216 50.5198H69.6336V53.3077H72.4216V50.5198Z" fill="black"/>
<path d="M75.2095 50.5198H72.4216V53.3077H75.2095V50.5198Z" fill="black"/>
<path d="M80.7853 50.5198H77.9974V53.3077H80.7853V50.5198Z" fill="black"/>
<path d="M83.5733 50.5198H80.7853V53.3077H83.5733V50.5198Z" fill="black"/>
<path d="M89.1491 50.5198H86.3612V53.3077H89.1491V50.5198Z" fill="black"/>
<path d="M22.2388 53.3077H19.4509V56.0956H22.2388V53.3077Z" fill="black"/>
<path d="M25.0267 53.3077H22.2388V56.0956H25.0267V53.3077Z" fill="black"/>
<path d="M33.3905 53.3077H30.6026V56.0956H33.3905V53.3077Z" fill="black"/>
<path d="M38.9664 53.3077H36.1784V56.0956H38.9664V53.3077Z" fill="black"/>
<path d="M47.3302 53.3077H44.5422V56.0956H47.3302V53.3077Z" fill="black"/>
<path d="M50.1181 53.3077H47.3302V56.0956H50.1181V53.3077Z" fill="black"/>
<path d="M66.8457 53.3077H64.0578V56.0956H66.8457V53.3077Z" fill="black"/>
<path d="M69.6336 53.3077H66.8457V56.0956H69.6336V53.3077Z" fill="black"/>
<path d="M72.4216 53.3077H69.6336V56.0956H72.4216V53.3077Z" fill="black"/>
<path d="M75.2095 53.3077H72.4216V56.0956H75.2095V53.3077Z" fill="black"/>
<path d="M94.725 53.3077H91.9371V56.0956H94.725V53.3077Z" fill="black"/>
<path d="M22.2388 56.0956H19.4509V58.8836H22.2388V56.0956Z" fill="black"/>
<path d="M41.7543 56.0956H38.9664V58.8836H41.7543V56.0956Z" fill="black"/>
<path d="M44.5422 56.0956H41.7543V58.8836H44.5422V56.0956Z" fill="black"/>
<path d="M50.1181 56.0956H47.3302V58.8836H50.1181V56.0956Z" fill="black"/>
<path d="M52.906 56.0956H50.1181V58.8836H52.906V56.0956Z" fill="black"/>
<path d="M55.694 56.0956H52.906V58.8836H55.694V56.0956Z" fill="black"/>
<path d="M64.0578 56.0956H61.2698V58.8836H64.0578V56.0956Z" fill="black"/>
<path d="M66.8457 56.0956H64.0578V58.8836H66.8457V56.0956Z" fill="black"/>
<path d="M75.2095 56.0956H72.4216V58.8836H75.2095V56.0956Z" fill="black"/>
<path d="M77.9974 56.0956H75.2095V58.8836H77.9974V56.0956Z" fill="black"/>
<path d="M80.7853 56.0956H77.9974V58.8836H80.7853V56.0956Z" fill="black"/>
<path d="M83.5733 56.0956H80.7853V58.8836H83.5733V56.0956Z" fill="black"/>
<path d="M86.3612 56.0956H83.5733V58.8836H86.3612V56.0956Z" fill="black"/>
<path d="M89.1491 56.0956H86.3612V58.8836H89.1491V56.0956Z" fill="black"/>
<path d="M91.9371 56.0956H89.1491V58.8836H91.9371V56.0956Z" fill="black"/>
<path d="M19.4509 58.8836H16.6629V61.6715H19.4509V58.8836Z" fill="black"/>
<path d="M22.2388 58.8836H19.4509V61.6715H22.2388V58.8836Z" fill="black"/>
<path d="M30.6026 58.8836H27.8147V61.6715H30.6026V58.8836Z" fill="black"/>
<path d="M33.3905 58.8836H30.6026V61.6715H33.3905V58.8836Z" fill="black"/>
<path d="M36.1784 58.8836H33.3905V61.6715H36.1784V58.8836Z" fill="black"/>
<path d="M38.9664 58.8836H36.1784V61.6715H38.9664V58.8836Z" fill="black"/>
<path d="M47.3302 58.8836H44.5422V61.6715H47.3302V58.8836Z" fill="black"/>
<path d="M50.1181 58.8836H47.3302V61.6715H50.1181V58.8836Z" fill="black"/>
<path d="M52.906 58.8836H50.1181V61.6715H52.906V58.8836Z" fill="black"/>
<path d="M55.694 58.8836H52.906V61.6715H55.694V58.8836Z" fill="black"/>
<path d="M58.4819 58.8836H55.694V61.6715H58.4819V58.8836Z" fill="black"/>
<path d="M61.2698 58.8836H58.4819V61.6715H61.2698V58.8836Z" fill="black"/>
<path d="M64.0578 58.8836H61.2698V61.6715H64.0578V58.8836Z" fill="black"/>
<path d="M72.4216 58.8836H69.6336V61.6715H72.4216V58.8836Z" fill="black"/>
<path d="M75.2095 58.8836H72.4216V61.6715H75.2095V58.8836Z" fill="black"/>
<path d="M77.9974 58.8836H75.2095V61.6715H77.9974V58.8836Z" fill="black"/>
<path d="M83.5733 58.8836H80.7853V61.6715H83.5733V58.8836Z" fill="black"/>
<path d="M86.3612 58.8836H83.5733V61.6715H86.3612V58.8836Z" fill="black"/>
<path d="M91.9371 58.8836H89.1491V61.6715H91.9371V58.8836Z" fill="black"/>
<path d="M94.725 58.8836H91.9371V61.6715H94.725V58.8836Z" fill="black"/>
<path d="M19.4509 61.6715H16.6629V64.4594H19.4509V61.6715Z" fill="black"/>
<path d="M22.2388 61.6715H19.4509V64.4594H22.2388V61.6715Z" fill="black"/>
<path d="M25.0267 61.6715H22.2388V64.4594H25.0267V61.6715Z" fill="black"/>
<path d="M44.5422 61.6715H41.7543V64.4594H44.5422V61.6715Z" fill="black"/>
<path d="M52.906 61.6715H50.1181V64.4594H52.906V61.6715Z" fill="black"/>
<path d="M55.694 61.6715H52.906V64.4594H55.694V61.6715Z" fill="black"/>
<path d="M66.8457 61.6715H64.0578V64.4594H66.8457V61.6715Z" fill="black"/>
<path d="M75.2095 61.6715H72.4216V64.4594H75.2095V61.6715Z" fill="black"/>
<path d="M86.3612 61.6715H83.5733V64.4594H86.3612V61.6715Z" fill="black"/>
<path d="M89.1491 61.6715H86.3612V64.4594H89.1491V61.6715Z" fill="black"/>
<path d="M16.6629 64.4594H13.875V67.2473H16.6629V64.4594Z" fill="black"/>
<path d="M19.4509 64.4594H16.6629V67.2473H19.4509V64.4594Z" fill="black"/>
<path d="M25.0267 64.4594H22.2388V67.2473H25.0267V64.4594Z" fill="black"/>
<path d="M27.8147 64.4594H25.0267V67.2473H27.8147V64.4594Z" fill="black"/>
<path d="M33.3905 64.4594H30.6026V67.2473H33.3905V64.4594Z" fill="black"/>
<path d="M47.3302 64.4594H44.5422V67.2473H47.3302V64.4594Z" fill="black"/>
<path d="M64.0578 64.4594H61.2698V67.2473H64.0578V64.4594Z" fill="black"/>
<path d="M66.8457 64.4594H64.0578V67.2473H66.8457V64.4594Z" fill="black"/>
<path d="M72.4216 64.4594H69.6336V67.2473H72.4216V64.4594Z" fill="black"/>
<path d="M80.7853 64.4594H77.9974V67.2473H80.7853V64.4594Z" fill="black"/>
<path d="M91.9371 64.4594H89.1491V67.2473H91.9371V64.4594Z" fill="black"/>
<path d="M22.2388 67.2473H19.4509V70.0353H22.2388V67.2473Z" fill="black"/>
<path d="M36.1784 67.2473H33.3905V70.0353H36.1784V67.2473Z" fill="black"/>
<path d="M38.9664 67.2473H36.1784V70.0353H38.9664V67.2473Z" fill="black"/>
<path d="M41.7543 67.2473H38.9664V70.0353H41.7543V67.2473Z" fill="black"/>
<path d="M44.5422 67.2473H41.7543V70.0353H44.5422V67.2473Z" fill="black"/>
<path d="M47.3302 67.2473H44.5422V70.0353H47.3302V67.2473Z" fill="black"/>
<path d="M52.906 67.2473H50.1181V70.0353H52.906V67.2473Z" fill="black"/>
<path d="M55.694 67.2473H52.906V70.0353H55.694V67.2473Z" fill="black"/>
<path d="M61.2698 67.2473H58.4819V70.0353H61.2698V67.2473Z" fill="black"/>
<path d="M64.0578 67.2473H61.2698V70.0353H64.0578V67.2473Z" fill="black"/>
<path d="M66.8457 67.2473H64.0578V70.0353H66.8457V67.2473Z" fill="black"/>
<path d="M80.7853 67.2473H77.9974V70.0353H80.7853V67.2473Z" fill="black"/>
<path d="M83.5733 67.2473H80.7853V70.0353H83.5733V67.2473Z" fill="black"/>
<path d="M86.3612 67.2473H83.5733V70.0353H86.3612V67.2473Z" fill="black"/>
<path d="M89.1491 67.2473H86.3612V70.0353H89.1491V67.2473Z" fill="black"/>
<path d="M16.6629 70.0353H13.875V72.8232H16.6629V70.0353Z" fill="black"/>
<path d="M19.4509 70.0353H16.6629V72.8232H19.4509V70.0353Z" fill="black"/>
<path d="M25.0267 70.0353H22.2388V72.8232H25.0267V70.0353Z" fill="black"/>
<path d="M33.3905 70.0353H30.6026V72.8232H33.3905V70.0353Z" fill="black"/>
<path d="M41.7543 70.0353H38.9664V72.8232H41.7543V70.0353Z" fill="black"/>
<path d="M44.5422 70.0353H41.7543V72.8232H44.5422V70.0353Z" fill="black"/>
<path d="M47.3302 70.0353H44.5422V72.8232H47.3302V70.0353Z" fill="black"/>
<path d="M50.1181 70.0353H47.3302V72.8232H50.1181V70.0353Z" fill="black"/>
<path d="M58.4819 70.0353H55.694V72.8232H58.4819V70.0353Z" fill="black"/>
<path d="M61.2698 70.0353H58.4819V72.8232H61.2698V70.0353Z" fill="black"/>
<path d="M64.0578 70.0353H61.2698V72.8232H64.0578V70.0353Z" fill="black"/>
<path d="M66.8457 70.0353H64.0578V72.8232H66.8457V70.0353Z" fill="black"/>
<path d="M69.6336 70.0353H66.8457V72.8232H69.6336V70.0353Z" fill="black"/>
<path d="M72.4216 70.0353H69.6336V72.8232H72.4216V70.0353Z" fill="black"/>
<path d="M75.2095 70.0353H72.4216V72.8232H75.2095V70.0353Z" fill="black"/>
<path d="M77.9974 70.0353H75.2095V72.8232H77.9974V70.0353Z" fill="black"/>
<path d="M80.7853 70.0353H77.9974V72.8232H80.7853V70.0353Z" fill="black"/>
<path d="M83.5733 70.0353H80.7853V72.8232H83.5733V70.0353Z" fill="black"/>
<path d="M91.9371 70.0353H89.1491V72.8232H91.9371V70.0353Z" fill="black"/>
<path d="M94.725 70.0353H91.9371V72.8232H94.725V70.0353Z" fill="black"/>
<path d="M44.5422 72.8232H41.7543V75.6111H44.5422V72.8232Z" fill="black"/>
<path d="M47.3302 72.8232H44.5422V75.6111H47.3302V72.8232Z" fill="black"/>
<path d="M58.4819 72.8232H55.694V75.6111H58.4819V72.8232Z" fill="black"/>
<path d="M69.6336 72.8232H66.8457V75.6111H69.6336V72.8232Z" fill="black"/>
<path d="M72.4216 72.8232H69.6336V75.6111H72.4216V72.8232Z" fill="black"/>
<path d="M83.5733 72.8232H80.7853V75.6111H83.5733V72.8232Z" fill="black"/>
<path d="M86.3612 72.8232H83.5733V75.6111H86.3612V72.8232Z" fill="black"/>
<path d="M89.1491 72.8232H86.3612V75.6111H89.1491V72.8232Z" fill="black"/>
<path d="M94.725 72.8232H91.9371V75.6111H94.725V72.8232Z" fill="black"/>
<path d="M16.6629 75.6111H13.875V78.3991H16.6629V75.6111Z" fill="black"/>
<path d="M19.4509 75.6111H16.6629V78.3991H19.4509V75.6111Z" fill="black"/>
<path d="M22.2388 75.6111H19.4509V78.3991H22.2388V75.6111Z" fill="black"/>
<path d="M25.0267 75.6111H22.2388V78.3991H25.0267V75.6111Z" fill="black"/>
<path d="M27.8147 75.6111H25.0267V78.3991H27.8147V75.6111Z" fill="black"/>
<path d="M30.6026 75.6111H27.8147V78.3991H30.6026V75.6111Z" fill="black"/>
<path d="M33.3905 75.6111H30.6026V78.3991H33.3905V75.6111Z" fill="black"/>
<path d="M41.7543 75.6111H38.9664V78.3991H41.7543V75.6111Z" fill="black"/>
<path d="M44.5422 75.6111H41.7543V78.3991H44.5422V75.6111Z" fill="black"/>
<path d="M50.1181 75.6111H47.3302V78.3991H50.1181V75.6111Z" fill="black"/>
<path d="M52.906 75.6111H50.1181V78.3991H52.906V75.6111Z" fill="black"/>
<path d="M61.2698 75.6111H58.4819V78.3991H61.2698V75.6111Z" fill="black"/>
<path d="M64.0578 75.6111H61.2698V78.3991H64.0578V75.6111Z" fill="black"/>
<path d="M69.6336 75.6111H66.8457V78.3991H69.6336V75.6111Z" fill="black"/>
<path d="M72.4216 75.6111H69.6336V78.3991H72.4216V75.6111Z" fill="black"/>
<path d="M77.9974 75.6111H75.2095V78.3991H77.9974V75.6111Z" fill="black"/>
<path d="M83.5733 75.6111H80.7853V78.3991H83.5733V75.6111Z" fill="black"/>
<path d="M16.6629 78.3991H13.875V81.187H16.6629V78.3991Z" fill="black"/>
<path d="M33.3905 78.3991H30.6026V81.187H33.3905V78.3991Z" fill="black"/>
<path d="M38.9664 78.3991H36.1784V81.187H38.9664V78.3991Z" fill="black"/>
<path d="M41.7543 78.3991H38.9664V81.187H41.7543V78.3991Z" fill="black"/>
<path d="M44.5422 78.3991H41.7543V81.187H44.5422V78.3991Z" fill="black"/>
<path d="M47.3302 78.3991H44.5422V81.187H47.3302V78.3991Z" fill="black"/>
<path d="M50.1181 78.3991H47.3302V81.187H50.1181V78.3991Z" fill="black"/>
<path d="M52.906 78.3991H50.1181V81.187H52.906V78.3991Z" fill="black"/>
<path d="M55.694 78.3991H52.906V81.187H55.694V78.3991Z" fill="black"/>
<path d="M58.4819 78.3991H55.694V81.187H58.4819V78.3991Z" fill="black"/>
<path d="M61.2698 78.3991H58.4819V81.187H61.2698V78.3991Z" fill="black"/>
<path d="M64.0578 78.3991H61.2698V81.187H64.0578V78.3991Z" fill="black"/>
<path d="M69.6336 78.3991H66.8457V81.187H69.6336V78.3991Z" fill="black"/>
<path d="M72.4216 78.3991H69.6336V81.187H72.4216V78.3991Z" fill="black"/>
<path d="M83.5733 78.3991H80.7853V81.187H83.5733V78.3991Z" fill="black"/>
<path d="M16.6629 81.187H13.875V83.9749H16.6629V81.187Z" fill="black"/>
<path d="M22.2388 81.187H19.4509V83.9749H22.2388V81.187Z" fill="black"/>
<path d="M25.0267 81.187H22.2388V83.9749H25.0267V81.187Z" fill="black"/>
<path d="M27.8147 81.187H25.0267V83.9749H27.8147V81.187Z" fill="black"/>
<path d="M33.3905 81.187H30.6026V83.9749H33.3905V81.187Z" fill="black"/>
<path d="M47.3302 81.187H44.5422V83.9749H47.3302V81.187Z" fill="black"/>
<path d="M55.694 81.187H52.906V83.9749H55.694V81.187Z" fill="black"/>
<path d="M58.4819 81.187H55.694V83.9749H58.4819V81.187Z" fill="black"/>
<path d="M69.6336 81.187H66.8457V83.9749H69.6336V81.187Z" fill="black"/>
<path d="M72.4216 81.187H69.6336V83.9749H72.4216V81.187Z" fill="black"/>
<path d="M75.2095 81.187H72.4216V83.9749H75.2095V81.187Z" fill="black"/>
<path d="M77.9974 81.187H75.2095V83.9749H77.9974V81.187Z" fill="black"/>
<path d="M80.7853 81.187H77.9974V83.9749H80.7853V81.187Z" fill="black"/>
<path d="M83.5733 81.187H80.7853V83.9749H83.5733V81.187Z" fill="black"/>
<path d="M86.3612 81.187H83.5733V83.9749H86.3612V81.187Z" fill="black"/>
<path d="M89.1491 81.187H86.3612V83.9749H89.1491V81.187Z" fill="black"/>
<path d="M91.9371 81.187H89.1491V83.9749H91.9371V81.187Z" fill="black"/>
<path d="M94.725 81.187H91.9371V83.9749H94.725V81.187Z" fill="black"/>
<path d="M16.6629 83.9749H13.875V86.7629H16.6629V83.9749Z" fill="black"/>
<path d="M22.2388 83.9749H19.4509V86.7629H22.2388V83.9749Z" fill="black"/>
<path d="M25.0267 83.9749H22.2388V86.7629H25.0267V83.9749Z" fill="black"/>
<path d="M27.8147 83.9749H25.0267V86.7629H27.8147V83.9749Z" fill="black"/>
<path d="M33.3905 83.9749H30.6026V86.7629H33.3905V83.9749Z" fill="black"/>
<path d="M44.5422 83.9749H41.7543V86.7629H44.5422V83.9749Z" fill="black"/>
<path d="M47.3302 83.9749H44.5422V86.7629H47.3302V83.9749Z" fill="black"/>
<path d="M66.8457 83.9749H64.0578V86.7629H66.8457V83.9749Z" fill="black"/>
<path d="M72.4216 83.9749H69.6336V86.7629H72.4216V83.9749Z" fill="black"/>
<path d="M75.2095 83.9749H72.4216V86.7629H75.2095V83.9749Z" fill="black"/>
<path d="M83.5733 83.9749H80.7853V86.7629H83.5733V83.9749Z" fill="black"/>
<path d="M86.3612 83.9749H83.5733V86.7629H86.3612V83.9749Z" fill="black"/>
<path d="M91.9371 83.9749H89.1491V86.7629H91.9371V83.9749Z" fill="black"/>
<path d="M16.6629 86.7629H13.875V89.5508H16.6629V86.7629Z" fill="black"/>
<path d="M22.2388 86.7629H19.4509V89.5508H22.2388V86.7629Z" fill="black"/>
<path d="M25.0267 86.7629H22.2388V89.5508H25.0267V86.7629Z" fill="black"/>
<path d="M27.8147 86.7629H25.0267V89.5508H27.8147V86.7629Z" fill="black"/>
<path d="M33.3905 86.7629H30.6026V89.5508H33.3905V86.7629Z" fill="black"/>
<path d="M38.9664 86.7629H36.1784V89.5508H38.9664V86.7629Z" fill="black"/>
<path d="M44.5422 86.7629H41.7543V89.5508H44.5422V86.7629Z" fill="black"/>
<path d="M64.0578 86.7629H61.2698V89.5508H64.0578V86.7629Z" fill="black"/>
<path d="M75.2095 86.7629H72.4216V89.5508H75.2095V86.7629Z" fill="black"/>
<path d="M86.3612 86.7629H83.5733V89.5508H86.3612V86.7629Z" fill="black"/>
<path d="M16.6629 89.5508H13.875V92.3387H16.6629V89.5508Z" fill="black"/>
<path d="M33.3905 89.5508H30.6026V92.3387H33.3905V89.5508Z" fill="black"/>
<path d="M41.7543 89.5508H38.9664V92.3387H41.7543V89.5508Z" fill="black"/>
<path d="M52.906 89.5508H50.1181V92.3387H52.906V89.5508Z" fill="black"/>
<path d="M64.0578 89.5508H61.2698V92.3387H64.0578V89.5508Z" fill="black"/>
<path d="M72.4216 89.5508H69.6336V92.3387H72.4216V89.5508Z" fill="black"/>
<path d="M80.7853 89.5508H77.9974V92.3387H80.7853V89.5508Z" fill="black"/>
<path d="M89.1491 89.5508H86.3612V92.3387H89.1491V89.5508Z" fill="black"/>
<path d="M16.6629 92.3387H13.875V95.1267H16.6629V92.3387Z" fill="black"/>
<path d="M19.4509 92.3387H16.6629V95.1267H19.4509V92.3387Z" fill="black"/>
<path d="M22.2388 92.3387H19.4509V95.1267H22.2388V92.3387Z" fill="black"/>
<path d="M25.0267 92.3387H22.2388V95.1267H25.0267V92.3387Z" fill="black"/>
<path d="M27.8147 92.3387H25.0267V95.1267H27.8147V92.3387Z" fill="black"/>
<path d="M30.6026 92.3387H27.8147V95.1267H30.6026V92.3387Z" fill="black"/>
<path d="M33.3905 92.3387H30.6026V95.1267H33.3905V92.3387Z" fill="black"/>
<path d="M38.9664 92.3387H36.1784V95.1267H38.9664V92.3387Z" fill="black"/>
<path d="M41.7543 92.3387H38.9664V95.1267H41.7543V92.3387Z" fill="black"/>
<path d="M44.5422 92.3387H41.7543V95.1267H44.5422V92.3387Z" fill="black"/>
<path d="M50.1181 92.3387H47.3302V95.1267H50.1181V92.3387Z" fill="black"/>
<path d="M52.906 92.3387H50.1181V95.1267H52.906V92.3387Z" fill="black"/>
<path d="M55.694 92.3387H52.906V95.1267H55.694V92.3387Z" fill="black"/>
<path d="M61.2698 92.3387H58.4819V95.1267H61.2698V92.3387Z" fill="black"/>
<path d="M64.0578 92.3387H61.2698V95.1267H64.0578V92.3387Z" fill="black"/>
<path d="M66.8457 92.3387H64.0578V95.1267H66.8457V92.3387Z" fill="black"/>
<path d="M75.2095 92.3387H72.4216V95.1267H75.2095V92.3387Z" fill="black"/>
<path d="M77.9974 92.3387H75.2095V95.1267H77.9974V92.3387Z" fill="black"/>
<path d="M80.7853 92.3387H77.9974V95.1267H80.7853V92.3387Z" fill="black"/>
<path d="M83.5733 92.3387H80.7853V95.1267H83.5733V92.3387Z" fill="black"/>
<path d="M86.3612 92.3387H83.5733V95.1267H86.3612V92.3387Z" fill="black"/>
<path d="M89.1491 92.3387H86.3612V95.1267H89.1491V92.3387Z" fill="black"/>
<path d="M94.725 92.3387H91.9371V95.1267H94.725V92.3387Z" fill="black"/>
</g>
</g>
<defs>
<filter id="filter0_dd_6672_41336" x="0.100098" y="0.501663" width="108.4" height="108.4" filterUnits="userSpaceOnUse" color-interpolation-filters="sRGB">
<feFlood flood-opacity="0" result="BackgroundImageFix"/>
<feColorMatrix in="SourceAlpha" type="matrix" values="0 0 0 0 0 0 0 0 0 0 0 0 0 0 0 0 0 0 127 0" result="hardAlpha"/>
<feOffset dx="-8" dy="8"/>
<feComposite in2="hardAlpha" operator="out"/>
<feColorMatrix type="matrix" values="0 0 0 0 0.203922 0 0 0 0 0.337255 0 0 0 0 0.984314 0 0 0 1 0"/>
<feBlend mode="normal" in2="BackgroundImageFix" result="effect1_dropShadow_6672_41336"/>
<feColorMatrix in="SourceAlpha" type="matrix" values="0 0 0 0 0 0 0 0 0 0 0 0 0 0 0 0 0 0 127 0" result="hardAlpha"/>
<feOffset dx="8" dy="-8"/>
<feComposite in2="hardAlpha" operator="out"/>
<feColorMatrix type="matrix" values="0 0 0 0 0.921569 0 0 0 0 0 0 0 0 0 0.54902 0 0 0 1 0"/>
<feBlend mode="normal" in2="effect1_dropShadow_6672_41336" result="effect2_dropShadow_6672_41336"/>
<feBlend mode="normal" in="SourceGraphic" in2="effect2_dropShadow_6672_41336" result="shape"/>
</filter>
</defs>
</svg>
