<svg width="86" height="36" viewBox="0 0 86 36" fill="none" xmlns="http://www.w3.org/2000/svg">
<path id="Vector 4" d="M1.41964 33.3933C1.00706 33.3565 0.642781 33.6611 0.605991 34.0737C0.569202 34.4863 0.873838 34.8506 1.28641 34.8874L1.41964 33.3933ZM84.9811 0.862664C84.9492 0.44968 84.5885 0.140744 84.1755 0.172637L77.4456 0.692349C77.0326 0.724241 76.7237 1.08488 76.7556 1.49787C76.7874 1.91085 77.1481 2.21979 77.5611 2.1879L83.5433 1.72593L84.0052 7.70812C84.0371 8.1211 84.3978 8.43004 84.8108 8.39815C85.2237 8.36625 85.5327 8.00561 85.5008 7.59263L84.9811 0.862664ZM1.28641 34.8874C26.7741 37.1601 47.6548 28.785 62.1469 19.8597C69.3937 15.3965 75.0504 10.7916 78.8974 7.30042C80.8213 5.55454 82.2935 4.08629 83.2867 3.0523C83.7833 2.53528 84.1603 2.12674 84.4141 1.84624C84.541 1.706 84.6372 1.59775 84.7021 1.52395C84.7346 1.48705 84.7592 1.45877 84.776 1.43939C84.7845 1.42971 84.7909 1.42225 84.7954 1.41706C84.7976 1.41447 84.7994 1.41244 84.8006 1.41098C84.8012 1.41026 84.8018 1.40959 84.8021 1.40923C84.8026 1.40871 84.8029 1.40833 84.2333 0.92041C83.6637 0.432487 83.6638 0.432399 83.6637 0.432455C83.6636 0.432665 83.6634 0.432863 83.663 0.433282C83.6623 0.434118 83.6611 0.435526 83.6594 0.437498C83.656 0.441443 83.6506 0.447651 83.6433 0.456082C83.6287 0.472945 83.6062 0.498703 83.576 0.533052C83.5155 0.60175 83.424 0.704808 83.3019 0.83979C83.0576 1.10976 82.6908 1.50739 82.2049 2.01319C81.2332 3.02486 79.7855 4.46893 77.8894 6.18964C74.0965 9.63165 68.5134 14.177 61.3603 18.5825C47.0526 27.3942 26.4932 35.6291 1.41964 33.3933L1.28641 34.8874Z" fill="#BAC9FF"/>
</svg>
