<svg width="21" height="23" viewBox="0 0 21 23" fill="none" xmlns="http://www.w3.org/2000/svg">
<g clip-path="url(#clip0_7588_4427)">
<rect opacity="0.12" x="7.5" y="12.1719" width="9" height="7" fill="#2C2D2E"/>
<path d="M19.54 20.2519C19.54 21.1719 18.835 21.9366 17.939 22.0319H17.75H5.71C4.76614 22.0319 4 21.2657 4 20.3219V4.39188C4 3.44802 4.77614 2.67188 5.72 2.67188H12.8625L19.54 8.49916V20.2519ZM19.14 8.90188V8.67454L18.9687 8.52509L12.8587 3.19509L12.7174 3.07187H12.53H5.72C4.99386 3.07187 4.4 3.66573 4.4 4.39188V20.3319C4.4 21.058 4.98386 21.6419 5.71 21.6419H17.75C18.5161 21.6419 19.14 21.018 19.14 20.2519V8.90188Z" fill="#2C2D2E" stroke="#184BFF"/>
<path d="M14.9201 11.2518H8.43008C7.27008 11.2518 6.33008 12.1918 6.33008 13.3418V17.9618C6.33008 19.1218 7.27008 20.0518 8.43008 20.0518H14.9201C16.0801 20.0518 17.0201 19.1118 17.0201 17.9618V13.3418C17.0201 12.1818 16.0801 11.2518 14.9201 11.2518ZM15.6201 13.3418V14.9518H12.5501V12.6418H14.9201C15.3001 12.6418 15.6201 12.9518 15.6201 13.3418ZM7.73008 17.9618V13.3418C7.73008 12.9618 8.04008 12.6418 8.43008 12.6418H11.1501V18.6518H8.43008C8.05008 18.6518 7.73008 18.3418 7.73008 17.9518V17.9618ZM14.9201 18.6618H12.5501V16.3518H15.6201V17.9618C15.6201 18.3418 15.3101 18.6618 14.9201 18.6618Z" fill="#2C2D2E"/>
</g>
<defs>
<clipPath id="clip0_7588_4427">
<rect width="16.54" height="20.36" fill="white" transform="translate(3.5 2.17188)"/>
</clipPath>
</defs>
</svg>
