<svg width="25" height="24" viewBox="0 0 25 24" fill="none" xmlns="http://www.w3.org/2000/svg">
<g id="simcard2">
<path id="Vector 742" d="M13.8575 2.00024H7.1001C5.44324 2.00024 4.1001 3.34339 4.1001 5.00024V19.0002C4.1001 20.6571 5.44324 22.0002 7.1001 22.0002H17.1001C18.757 22.0002 20.1001 20.6571 20.1001 19.0002V8.24288C20.1001 7.44724 19.784 6.68417 19.2214 6.12157L15.9788 2.87892C15.4162 2.31631 14.6531 2.00024 13.8575 2.00024Z" stroke="black" stroke-width="2"/>
<path id="e" d="M12.4112 17.7545C11.7265 17.7545 11.1356 17.6196 10.6384 17.3497C10.1441 17.0769 9.76345 16.6892 9.4964 16.1863C9.2322 15.6806 9.1001 15.0798 9.1001 14.3838C9.1001 13.7076 9.23362 13.1167 9.50067 12.611C9.76771 12.1025 10.1441 11.7076 10.6299 11.4264C11.1157 11.1423 11.6882 11.0002 12.3473 11.0002C12.8132 11.0002 13.2393 11.0727 13.6257 11.2176C14.012 11.3625 14.3458 11.5769 14.6271 11.861C14.9083 12.1451 15.1271 12.496 15.2833 12.9136C15.4396 13.3284 15.5177 13.8042 15.5177 14.3412V14.861H9.82879V13.6508H13.5788C13.5759 13.4292 13.5234 13.2318 13.4211 13.0585C13.3188 12.8852 13.1782 12.7502 12.9992 12.6537C12.8231 12.5542 12.62 12.5045 12.3899 12.5045C12.1569 12.5045 11.9481 12.5571 11.7634 12.6622C11.5788 12.7644 11.4325 12.9051 11.3245 13.0841C11.2166 13.2602 11.1598 13.4605 11.1541 13.6849V14.9164C11.1541 15.1835 11.2066 15.4179 11.3117 15.6196C11.4169 15.8184 11.566 15.9733 11.7592 16.0841C11.9524 16.1948 12.1825 16.2502 12.4495 16.2502C12.6342 16.2502 12.8018 16.2247 12.9524 16.1735C13.1029 16.1224 13.2322 16.0471 13.3402 15.9477C13.4481 15.8483 13.5291 15.7261 13.5831 15.5812L15.4964 15.6366C15.4169 16.0656 15.2421 16.4392 14.9723 16.7573C14.7052 17.0727 14.3544 17.3184 13.9197 17.4946C13.485 17.6679 12.9822 17.7545 12.4112 17.7545Z" fill="black"/>
</g>
</svg>
