<svg width="20" height="21" viewBox="0 0 20 21" fill="none" xmlns="http://www.w3.org/2000/svg">
<rect x="0.00439453" y="0.0639648" width="20" height="20" rx="8" fill="#00AFF0"/>
<g clip-path="url(#clip0_3222_77587)">
<rect x="1.43311" y="1.49243" width="17.1429" height="17.1429" rx="2.85714" fill="#00AFF0"/>
<g clip-path="url(#clip1_3222_77587)">
<path d="M10.0353 13.1327C8.2393 13.1327 7.43707 12.2492 7.43707 11.5863C7.43707 11.2447 7.68751 11.0077 8.03216 11.0077C8.80135 11.0077 8.60046 12.1135 10.0353 12.1135C10.7679 12.1135 11.1737 11.7139 11.1737 11.305C11.1737 11.059 11.0536 10.7871 10.5692 10.6671L8.97278 10.2675C7.68707 9.94429 7.45359 9.24697 7.45359 8.59295C7.45359 7.23268 8.73082 6.72197 9.93082 6.72197C11.0339 6.72197 12.3384 7.33491 12.3384 8.15009C12.3384 8.50009 12.0313 8.70366 11.6897 8.70366C11.0339 8.70366 11.1549 7.79429 9.83082 7.79429C9.17501 7.79429 8.8076 8.09072 8.8076 8.51616C8.8076 8.94161 9.32234 9.07777 9.77055 9.18L10.9478 9.44206C12.2384 9.73179 12.5656 10.4894 12.5656 11.2028C12.5656 12.3081 11.7165 13.1331 10.0112 13.1331M14.9594 10.9537L14.9464 11.0139L14.9268 10.9068C14.9335 10.9269 14.9464 10.9398 14.9531 10.9604C15.0067 10.659 15.0339 10.3519 15.0339 10.0443C15.0339 9.3617 14.8996 8.69964 14.633 8.07107C14.379 7.46929 14.0103 6.92732 13.5496 6.46572C13.0813 6.00455 12.5464 5.63714 11.9447 5.38268C11.3563 5.10098 10.6942 4.9675 10.0125 4.9675C9.69109 4.9675 9.36787 4.99875 9.05582 5.05857L9.10894 5.08536L9.00225 5.07063L9.05537 5.05947C8.62501 4.82911 8.14242 4.70679 7.65225 4.70679C6.85359 4.70679 6.10314 5.01839 5.53796 5.58491C4.97278 6.15098 4.66162 6.90456 4.66162 7.705C4.66162 8.21527 4.79198 8.71616 5.03841 9.15947L5.04734 9.10411L5.06564 9.2108L5.03841 9.15947C4.98751 9.44741 4.96207 9.73938 4.96207 10.0322C4.96207 10.7153 5.096 11.3791 5.35671 12.0037C5.61028 12.6117 5.97189 13.1537 6.44019 13.6148C6.9018 14.0836 7.44332 14.4438 8.0451 14.705C8.66742 14.9729 9.32948 15.1059 10.0112 15.1059C10.3054 15.1059 10.6067 15.0791 10.8938 15.026L10.8406 14.9983L10.9478 15.0188L10.8875 15.0322C11.3348 15.2863 11.8366 15.4211 12.358 15.4211C13.154 15.4211 13.9022 15.113 14.471 14.5447C15.033 13.9827 15.3469 13.2273 15.3469 12.4246C15.3469 11.9166 15.2134 11.4148 14.9661 10.9666" fill="white"/>
</g>
</g>
<defs>
<clipPath id="clip0_3222_77587">
<rect width="17.1429" height="17.1429" fill="white" transform="translate(1.43311 1.49243)"/>
</clipPath>
<clipPath id="clip1_3222_77587">
<rect width="10.7143" height="10.7143" fill="white" transform="translate(4.64746 4.70679)"/>
</clipPath>
</defs>
</svg>
