<svg width="40" height="41" viewBox="0 0 40 41" fill="none" xmlns="http://www.w3.org/2000/svg">
<rect y="0.70166" width="40" height="40" rx="12" fill="#99A2AD"/>
<path fill-rule="evenodd" clip-rule="evenodd" d="M30 20.7017C30 26.2245 25.5228 30.7017 20 30.7017C14.4772 30.7017 10 26.2245 10 20.7017C10 15.1788 14.4772 10.7017 20 10.7017C25.5228 10.7017 30 15.1788 30 20.7017ZM20.9583 17.6332C19.2403 18.3753 14.2868 20.4826 14.2868 20.4826C13.1129 20.9576 13.8 21.4028 13.8 21.4028C13.8 21.4028 14.8022 21.759 15.6612 22.0261C16.5202 22.2932 16.9783 21.9964 16.9783 21.9964C16.9783 21.9964 18.9826 20.6311 21.0155 19.1766C22.4472 18.1675 22.1036 18.9986 21.76 19.3548C21.0155 20.1265 19.7843 21.3434 18.7535 22.3229C18.2954 22.7385 18.5245 23.0946 18.7249 23.2727C19.3079 23.784 20.6808 24.7139 21.3041 25.1361C21.4768 25.2531 21.592 25.3311 21.6169 25.3504C21.76 25.4692 22.5617 26.0034 23.0485 25.8847C23.5352 25.766 23.5925 25.0833 23.5925 25.0833C23.5925 25.0833 23.9647 22.6494 24.3083 20.4233C24.372 19.9862 24.4356 19.5583 24.495 19.1593C24.6492 18.1222 24.7744 17.2803 24.7951 16.9802C24.881 15.971 23.8502 16.3866 23.8502 16.3866C23.8502 16.3866 21.6169 17.3364 20.9583 17.6332Z" fill="white"/>
</svg>
