<svg width="20" height="21" viewBox="0 0 20 21" fill="none" xmlns="http://www.w3.org/2000/svg">
<rect x="0.00439453" y="0.0639648" width="20" height="20" rx="8" fill="#2F89CE"/>
<g clip-path="url(#clip0_3222_77588)">
<rect x="1.43311" y="1.49243" width="17.1429" height="17.1429" rx="2.85714" fill="#2F89CE"/>
<circle cx="10.0045" cy="10.0639" r="8.57143" fill="#2F89CE"/>
<path d="M5.44034 10.2241L7.41095 10.9589L8.17915 13.4306C8.21255 13.5976 8.41295 13.631 8.54655 13.5308L9.64875 12.629C9.74895 12.5288 9.91596 12.5288 10.0496 12.629L12.0202 14.0652C12.1538 14.1654 12.3542 14.0986 12.3876 13.9316L13.8572 6.91753C13.8906 6.75053 13.7236 6.58354 13.5566 6.65034L5.44034 9.78995C5.23994 9.85675 5.23994 10.1573 5.44034 10.2241ZM8.07896 10.5915L11.9534 8.22014C12.0202 8.18674 12.087 8.28694 12.0202 8.32034L8.84715 11.293C8.74695 11.3932 8.64675 11.5268 8.64675 11.6938L8.54655 12.4954C8.54655 12.5956 8.37955 12.629 8.34615 12.4954L7.94535 11.0257C7.84515 10.8587 7.91195 10.6583 8.07896 10.5915Z" fill="white"/>
</g>
<defs>
<clipPath id="clip0_3222_77588">
<rect width="17.1429" height="17.1429" fill="white" transform="translate(1.43311 1.49243)"/>
</clipPath>
</defs>
</svg>
