<svg width="20" height="21" viewBox="0 0 20 21" fill="none" xmlns="http://www.w3.org/2000/svg">
<rect x="0.00439453" y="0.0639648" width="20" height="20" rx="8" fill="#7360F2"/>
<g clip-path="url(#clip0_3222_77589)">
<rect x="1.43311" y="1.49243" width="17.1429" height="17.1429" rx="2.85714" fill="#7360F2"/>
<g clip-path="url(#clip1_3222_77589)">
<path d="M9.73671 4.70679C8.87644 4.71929 7.02823 4.86036 5.99564 5.80813C5.22867 6.57598 4.95814 7.69786 4.93001 9.08938C4.90189 10.4804 4.86528 13.0889 7.37957 13.7961H7.38091L7.37912 14.8746C7.37912 14.8746 7.3626 15.3108 7.65144 15.4001C7.99832 15.5081 8.20233 15.1769 8.53537 14.8188C8.71707 14.6224 8.9693 14.3349 9.15903 14.1135C10.8778 14.259 12.2001 13.9278 12.351 13.8791C12.6974 13.7666 14.6617 13.5148 14.9814 10.9072C15.3117 8.21973 14.8206 6.51884 13.9367 5.75277C13.6706 5.50723 12.5947 4.72598 10.1979 4.71572C10.1979 4.71572 10.0215 4.70455 9.73492 4.70813L9.73671 4.70679ZM9.7626 5.46259C10.0059 5.4608 10.1555 5.47018 10.1555 5.47018C12.1831 5.47911 13.1541 6.08982 13.3796 6.29429C14.1273 6.93491 14.509 8.4675 14.2305 10.7126V10.7135C13.9608 12.8912 12.3671 13.0278 12.0733 13.122C11.9483 13.1621 10.7867 13.451 9.32644 13.3559C9.32644 13.3559 8.23894 14.6684 7.89921 15.0095C7.84564 15.063 7.78314 15.084 7.74207 15.0738C7.68403 15.059 7.66796 14.9898 7.66841 14.8889L7.67734 13.0952C5.55144 12.5059 5.6751 10.2863 5.69966 9.1242C5.72376 7.9617 5.94207 7.00902 6.59073 6.36839C7.46573 5.57688 9.03448 5.4675 9.76483 5.46214L9.7626 5.46259ZM9.93225 6.6242C9.85769 6.6242 9.79698 6.68447 9.79653 6.75902C9.79653 6.83357 9.85591 6.89429 9.93046 6.89518C10.6555 6.89964 11.2456 7.13491 11.7287 7.60589C12.2077 8.07286 12.4519 8.70768 12.4577 9.54072C12.4586 9.61527 12.5202 9.67464 12.5947 9.67464C12.6689 9.67375 12.7287 9.61304 12.7287 9.53893C12.7224 8.65322 12.4528 7.93357 11.918 7.41214C11.3867 6.89429 10.7157 6.62956 9.93225 6.6242ZM8.16439 6.93447C8.07957 6.92018 7.98582 6.9367 7.88939 6.9867L7.88492 6.98759C7.69296 7.09786 7.52064 7.23848 7.37332 7.40366C7.37242 7.40545 7.37064 7.40545 7.36975 7.40723C7.25055 7.55143 7.18225 7.69206 7.16439 7.83045C7.16082 7.85098 7.15992 7.87197 7.16126 7.89295C7.16126 7.95366 7.17109 8.01348 7.19028 8.07152L7.19608 8.07598C7.25635 8.29027 7.40725 8.64563 7.73403 9.23848C7.92153 9.58134 8.13716 9.90813 8.37957 10.2144C8.5001 10.3679 8.62957 10.5148 8.76796 10.6537L8.82689 10.7126C8.96528 10.8501 9.1126 10.9804 9.26617 11.101C9.57242 11.3434 9.89921 11.5595 10.2421 11.747C10.8349 12.0742 11.1912 12.2246 11.4046 12.2854L11.409 12.2916C11.4671 12.3104 11.5273 12.3202 11.5885 12.3197C11.609 12.3206 11.6296 12.3197 11.6501 12.3162C11.7885 12.3001 11.93 12.2313 12.0733 12.1108C12.0751 12.1108 12.0747 12.1099 12.0769 12.1086C12.2421 11.9613 12.3818 11.7871 12.4921 11.5961L12.4934 11.5916C12.5939 11.3988 12.5604 11.2157 12.4131 11.0916C12.4113 11.0916 12.1014 10.8327 11.9501 10.7211C11.7894 10.6072 11.6242 10.5014 11.4532 10.4041C11.2255 10.2769 10.9925 10.3568 10.8961 10.4818L10.6965 10.7336C10.5939 10.8599 10.4032 10.8434 10.4032 10.8434C9.01037 10.488 8.6376 9.07777 8.6376 9.07777C8.6376 9.07777 8.62108 8.88759 8.74832 8.78491L8.99966 8.58491C9.12332 8.48893 9.20323 8.25589 9.07555 8.02777C8.97867 7.85679 8.87287 7.69027 8.75858 7.53C8.64698 7.37822 8.38983 7.06884 8.38805 7.06795C8.32689 6.99429 8.24966 6.94964 8.16394 6.93536L8.16439 6.93447ZM10.1689 7.32732C10.0983 7.32822 10.0394 7.38268 10.0349 7.45322C10.0305 7.52777 10.0863 7.5925 10.1608 7.59786C10.6787 7.63581 11.0613 7.80589 11.3416 8.11125C11.6229 8.41839 11.7568 8.79161 11.7461 9.25857C11.7452 9.33357 11.8041 9.39518 11.88 9.39697C11.9541 9.3983 12.0162 9.33893 12.0184 9.26438C12.0296 8.73982 11.8693 8.28536 11.5421 7.92777C11.2117 7.56616 10.7488 7.36839 10.1805 7.32688H10.1697L10.1689 7.32732ZM10.3755 8.055C10.3041 8.05589 10.2461 8.1117 10.2416 8.18313C10.238 8.25768 10.2952 8.32152 10.3702 8.32598C10.6037 8.33848 10.7608 8.40411 10.8671 8.51438C10.9742 8.62375 11.0403 8.79116 11.0528 9.03402C11.0572 9.10857 11.1197 9.16572 11.1947 9.16214C11.2693 9.15857 11.3264 9.09518 11.3229 9.02063C11.3095 8.73313 11.2269 8.49473 11.0639 8.32554C10.9001 8.15679 10.6653 8.06929 10.3854 8.05456H10.3773L10.3755 8.055Z" fill="white"/>
</g>
</g>
<defs>
<clipPath id="clip0_3222_77589">
<rect width="17.1429" height="17.1429" fill="white" transform="translate(1.43311 1.49243)"/>
</clipPath>
<clipPath id="clip1_3222_77589">
<rect width="10.7143" height="10.7143" fill="white" transform="translate(4.64746 4.70679)"/>
</clipPath>
</defs>
</svg>
