<svg width="20" height="21" viewBox="0 0 20 21" fill="none" xmlns="http://www.w3.org/2000/svg">
<rect x="0.00146484" y="0.0639648" width="20" height="20" rx="8" fill="#0077FF"/>
<g clip-path="url(#clip0_3222_77576)">
<rect x="1.43018" y="1.49243" width="17.1429" height="17.1429" rx="2.85714" fill="#0077FF"/>
<g clip-path="url(#clip1_3222_77576)">
<rect x="3.57324" y="3.6355" width="13.2143" height="13.2143" fill="white"/>
<path d="M8.20803 1.49531L8.72875 1.49316H11.2745L11.7959 1.49531L12.4487 1.50245L12.758 1.50745L13.0566 1.51531L13.3445 1.52531L13.6216 1.53674L13.8887 1.55174L14.1459 1.56959L14.3923 1.59102L14.6302 1.61459C15.873 1.75459 16.7252 2.05459 17.368 2.69745C18.0109 3.34031 18.3109 4.19174 18.4509 5.43531L18.4752 5.67316L18.4959 5.92031L18.5137 6.17745L18.528 6.44388L18.5459 6.86388L18.5545 7.15674L18.5637 7.61674L18.5702 8.27031L18.573 8.97031L18.5723 11.3367L18.5702 11.8582L18.563 12.511L18.558 12.8203L18.5502 13.1189L18.5402 13.4067L18.5287 13.6839L18.5137 13.951L18.4959 14.2082L18.4745 14.4546L18.4509 14.6925C18.3109 15.9353 18.0109 16.7875 17.368 17.4303C16.7252 18.0732 15.8737 18.3732 14.6302 18.5132L14.3923 18.5375L14.1452 18.5582L13.888 18.576L13.6216 18.5903L13.2016 18.6082L12.9087 18.6167L12.4487 18.626L11.7952 18.6325L11.0952 18.6353L8.72875 18.6346L8.20732 18.6325L7.55446 18.6253L7.24518 18.6203L6.9466 18.6125L6.65875 18.6025L6.3816 18.591L6.11446 18.576L5.85732 18.5582L5.61089 18.5367L5.37303 18.5132C4.13018 18.3732 3.27803 18.0732 2.63518 17.4303C1.99232 16.7875 1.69232 15.936 1.55232 14.6925L1.52803 14.4546L1.50732 14.2075L1.48946 13.9503L1.47518 13.6839L1.45732 13.2639L1.44875 12.971L1.43946 12.511L1.43303 11.8574L1.43018 11.1574L1.43089 8.79102L1.43303 8.26959L1.44018 7.61674L1.44518 7.30745L1.45303 7.00888L1.46303 6.72102L1.47446 6.44388L1.48946 6.17674L1.50732 5.91959L1.52875 5.67316L1.55232 5.43531C1.69232 4.19245 1.99232 3.34031 2.63518 2.69745C3.27803 2.05459 4.12946 1.75459 5.37303 1.61459L5.61089 1.59031L5.85803 1.56959L6.11518 1.55174L6.3816 1.53745L6.8016 1.51959L7.09446 1.51102L7.55446 1.50174L8.20803 1.49531ZM6.28018 6.70674H4.32303C4.41589 11.1639 6.64446 13.8425 10.5516 13.8425H10.773V11.2924C12.2087 11.4353 13.2945 12.4853 13.7302 13.8425H15.7587C15.2016 11.8139 13.7373 10.6924 12.823 10.2639C13.7373 9.73531 15.023 8.44959 15.3302 6.70674H13.4873C13.0873 8.12102 11.9016 9.40674 10.773 9.52816V6.70674H8.93018V11.6496C7.78732 11.3639 6.34446 9.97816 6.28018 6.70674Z" fill="#0077FF"/>
</g>
</g>
<defs>
<clipPath id="clip0_3222_77576">
<rect x="1.43018" y="1.49243" width="17.1429" height="17.1429" fill="white"/>
</clipPath>
<clipPath id="clip1_3222_77576">
<rect width="17.1429" height="17.1429" fill="white" transform="translate(1.43018 1.49243)"/>
</clipPath>
</defs>
</svg>
