<svg width="20" height="21" viewBox="0 0 20 21" fill="none" xmlns="http://www.w3.org/2000/svg">
<rect x="0.00439453" y="0.0639648" width="20" height="20" rx="8" fill="#48C95F"/>
<g clip-path="url(#clip0_3222_77590)">
<rect x="1.43311" y="1.49243" width="17.1429" height="17.1429" rx="2.85714" fill="#48C95F"/>
<circle cx="10.0048" cy="10.0639" r="8.21429" fill="#48C95F"/>
<path d="M13.5712 6.49314C12.6954 5.62037 11.5276 5.1355 10.295 5.1355C7.73245 5.1355 5.65646 7.20428 5.65646 9.75794C5.65646 10.5661 5.88352 11.3742 6.27277 12.053L5.62402 14.445L8.08926 13.7985C8.77045 14.1541 9.51651 14.348 10.295 14.348C12.8576 14.348 14.9335 12.2793 14.9335 9.72561C14.9011 8.5296 14.447 7.3659 13.5712 6.49314ZM12.5332 11.4065C12.4359 11.6651 11.9817 11.9237 11.7547 11.956C11.5601 11.9883 11.3006 11.9883 11.0411 11.9237C10.8789 11.859 10.6518 11.7944 10.3923 11.6651C9.22457 11.1802 8.47851 10.0165 8.41364 9.91956C8.34876 9.85491 7.92708 9.30539 7.92708 8.72354C7.92708 8.1417 8.21901 7.8831 8.31632 7.7538C8.41364 7.6245 8.54339 7.6245 8.6407 7.6245C8.70557 7.6245 8.80288 7.6245 8.86776 7.6245C8.93263 7.6245 9.02995 7.59218 9.12726 7.81845C9.22457 8.04472 9.45163 8.62657 9.48407 8.65889C9.51651 8.72354 9.51651 8.78819 9.48407 8.85284C9.45163 8.91749 9.41919 8.98214 9.35432 9.04679C9.28944 9.11144 9.22457 9.20841 9.19213 9.24074C9.12726 9.30539 9.06238 9.37004 9.12726 9.46701C9.19213 9.59631 9.41919 9.95188 9.77601 10.2751C10.2301 10.663 10.5869 10.7923 10.7167 10.857C10.8464 10.9216 10.9113 10.8893 10.9762 10.8247C11.0411 10.76 11.2681 10.5014 11.333 10.3721C11.3979 10.2428 11.4952 10.2751 11.5925 10.3075C11.6898 10.3398 12.2737 10.6307 12.371 10.6954C12.5007 10.76 12.5656 10.7923 12.5981 10.8247C12.6305 10.9216 12.6305 11.1479 12.5332 11.4065Z" fill="white"/>
</g>
<defs>
<clipPath id="clip0_3222_77590">
<rect width="17.1429" height="17.1429" fill="white" transform="translate(1.43311 1.49243)"/>
</clipPath>
</defs>
</svg>
