<svg width="20" height="21" viewBox="0 0 20 21" fill="none" xmlns="http://www.w3.org/2000/svg">
<rect x="0.00292969" y="0.0639648" width="20" height="20" rx="8" fill="#FF4433"/>
<g clip-path="url(#clip0_3222_77582)">
<rect x="1.43164" y="1.49243" width="17.1429" height="17.1429" rx="2.85714" fill="#FF4433"/>
<g clip-path="url(#clip1_3222_77582)">
<path d="M10.0028 4.39429C7.48785 4.39429 5.44922 6.43292 5.44922 8.94786C5.44922 10.2049 5.95854 11.343 6.78228 12.167C7.60625 12.9914 9.54743 14.1845 9.66127 15.4367C9.67834 15.6245 9.81427 15.7782 10.0028 15.7782C10.1913 15.7782 10.3272 15.6245 10.3443 15.4367C10.4581 14.1845 12.3993 12.9914 13.2233 12.167C14.047 11.343 14.5564 10.2049 14.5564 8.94786C14.5564 6.43292 12.5177 4.39429 10.0028 4.39429Z" fill="white"/>
<path d="M10.0029 10.5417C10.8831 10.5417 11.5967 9.8282 11.5967 8.948C11.5967 8.06779 10.8831 7.35425 10.0029 7.35425C9.12273 7.35425 8.40918 8.06779 8.40918 8.948C8.40918 9.8282 9.12273 10.5417 10.0029 10.5417Z" fill="#FF4433"/>
</g>
</g>
<defs>
<clipPath id="clip0_3222_77582">
<rect x="1.43164" y="1.49243" width="17.1429" height="17.1429" rx="2.85714" fill="white"/>
</clipPath>
<clipPath id="clip1_3222_77582">
<rect width="12.1429" height="12.1429" fill="white" transform="translate(3.93164 3.6355)"/>
</clipPath>
</defs>
</svg>
