<svg width="40" height="41" viewBox="0 0 40 41" fill="none" xmlns="http://www.w3.org/2000/svg">
<rect y="0.70166" width="40" height="40" rx="12" fill="#99A2AD"/>
<path fill-rule="evenodd" clip-rule="evenodd" d="M28.791 13.6483C29.761 13.8971 30.5234 14.6233 30.7811 15.5437C31.25 17.2142 31.25 20.7017 31.25 20.7017C31.25 20.7017 31.25 24.1892 30.7811 25.8596C30.5198 26.7835 29.7574 27.5096 28.791 27.7551C27.0371 28.2017 20 28.2017 20 28.2017C20 28.2017 12.9665 28.2017 11.209 27.7551C10.239 27.5062 9.47661 26.7801 9.2189 25.8596C8.75 24.1892 8.75 20.7017 8.75 20.7017C8.75 20.7017 8.75 17.2142 9.2189 15.5437C9.48019 14.6198 10.2426 13.8937 11.209 13.6483C12.9665 13.2017 20 13.2017 20 13.2017C20 13.2017 27.0371 13.2017 28.791 13.6483ZM23.5973 20.7017L17.7522 23.9164V17.4869L23.5973 20.7017Z" fill="white"/>
</svg>
