<svg width="24" height="25" viewBox="0 0 24 25" fill="none" xmlns="http://www.w3.org/2000/svg">
<rect y="0.0708008" width="24" height="24" rx="7.2" fill="#99A2AD"/>
<path fill-rule="evenodd" clip-rule="evenodd" d="M17.2746 7.83876C17.8566 7.98807 18.314 8.42376 18.4687 8.97603C18.75 9.9783 18.75 12.0708 18.75 12.0708C18.75 12.0708 18.75 14.1633 18.4687 15.1656C18.3119 15.7199 17.8544 16.1556 17.2746 16.3028C16.2222 16.5708 12 16.5708 12 16.5708C12 16.5708 7.77991 16.5708 6.72542 16.3028C6.14341 16.1535 5.68597 15.7178 5.53134 15.1656C5.25 14.1633 5.25 12.0708 5.25 12.0708C5.25 12.0708 5.25 9.9783 5.53134 8.97603C5.68812 8.42171 6.14556 7.98603 6.72542 7.83876C7.77991 7.5708 12 7.5708 12 7.5708C12 7.5708 16.2222 7.5708 17.2746 7.83876ZM14.1584 12.0708L10.6513 13.9997V10.1419L14.1584 12.0708Z" fill="white"/>
</svg>
