<svg width="82" height="41" viewBox="0 0 82 41" fill="none" xmlns="http://www.w3.org/2000/svg">
<g id="Logo_2">
<path id="Vector" d="M72.0825 25.9069C72.0647 26.2819 72.1231 26.6566 72.2542 27.0084C72.3852 27.3603 72.5862 27.6819 72.845 27.9539C73.3887 28.4451 74.0953 28.7171 74.8281 28.7171C75.5608 28.7171 76.2674 28.4451 76.8111 27.9539C77.2975 27.3827 77.5645 26.6571 77.5645 25.9069C77.5645 25.1567 77.2975 24.431 76.8111 23.8599C76.2659 23.3718 75.5598 23.102 74.8281 23.102C74.0963 23.102 73.3902 23.3718 72.845 23.8599C72.5862 24.1318 72.3852 24.4535 72.2542 24.8053C72.1231 25.1571 72.0647 25.5319 72.0825 25.9069ZM77.5685 21.2294V20.1445H81.028V31.6692H77.5685V30.5843C77.1397 31.0632 76.6079 31.4386 76.0132 31.6823C75.4184 31.9261 74.7761 32.0318 74.1346 31.9916C73.3977 31.9975 72.6683 31.8442 71.9961 31.5421C71.324 31.24 70.725 30.7964 70.2402 30.2414C69.2009 29.0414 68.6289 27.5071 68.6289 25.9197C68.6289 24.3322 69.2009 22.7979 70.2402 21.5979C70.7226 21.0383 71.3206 20.5898 71.9928 20.2833C72.6651 19.9767 73.3958 19.8194 74.1346 19.8221C74.776 19.783 75.4179 19.8893 76.0125 20.133C76.6071 20.3767 77.139 20.7515 77.5685 21.2294Z" fill="#0000BE"/>
<path id="Vector_2" d="M63.8041 24.6257V20.4753H67.2584V32.0001H63.8041V27.8497H59.884V32.0001H56.4297V20.4753H59.884V24.6257H63.8041Z" fill="#0000BE"/>
<path id="Vector_3" d="M45.2843 20.4009H54.6853V31.9256H51.2309V23.7375H48.7387V27.1714C48.7387 28.9216 48.3054 30.2044 47.4388 31.0198C46.5688 31.8335 45.2997 32.1406 43.6211 31.941V28.7169C43.8268 28.8046 44.054 28.829 44.2736 28.7871C44.4933 28.7452 44.6955 28.6388 44.8544 28.4815C45.1823 28.0404 45.3355 27.4935 45.2843 26.9462V20.4009Z" fill="#0000BE"/>
<path id="Vector_4" d="M34.3736 25.8437C34.3599 26.2047 34.42 26.5648 34.5503 26.9018C34.6805 27.2388 34.8781 27.5457 35.131 27.8037C35.6392 28.2925 36.3169 28.5655 37.022 28.5655C37.7271 28.5655 38.4048 28.2925 38.9129 27.8037C39.4031 27.2686 39.675 26.5693 39.675 25.8437C39.675 25.118 39.4031 24.4187 38.9129 23.8837C38.4035 23.3972 37.7263 23.1258 37.022 23.1258C36.3177 23.1258 35.6404 23.3972 35.131 23.8837C34.8781 24.1417 34.6805 24.4486 34.5503 24.7856C34.42 25.1226 34.3599 25.4826 34.3736 25.8437ZM41.354 30.1783C40.3542 31.1887 39.0347 31.821 37.6208 31.9673C36.2068 32.1136 34.7859 31.7649 33.6004 30.9805C32.4148 30.1962 31.5381 29.0249 31.1197 27.6663C30.7013 26.3078 30.7672 24.8462 31.3061 23.5308C31.845 22.2154 32.8235 21.1277 34.0748 20.4531C35.3261 19.7786 36.7726 19.5591 38.1677 19.832C39.5628 20.1049 40.8199 20.8533 41.7248 21.9496C42.6297 23.0459 43.1263 24.4222 43.1298 25.8437C43.1466 26.6493 42.9976 27.4498 42.6922 28.1954C42.3867 28.9411 41.9312 29.616 41.354 30.1783Z" fill="#0000BE"/>
<path id="Vector_5" d="M23.4428 29.1364H26.0016C26.6771 29.1364 27.0251 28.8499 27.0251 28.2818C27.0251 27.7138 26.6874 27.4732 26.0016 27.4732H23.4428V29.1364ZM25.6127 23.2359H23.4428V24.8479H25.6127C26.295 24.8479 26.6362 24.5869 26.6362 24.0649C26.6362 23.5429 26.295 23.2666 25.6127 23.2359ZM28.8163 26.0915C29.298 26.3291 29.6999 26.7021 29.9726 27.1648C30.2453 27.6275 30.377 28.1598 30.3515 28.6963C30.3712 29.1467 30.2895 29.5958 30.1123 30.0103C29.9352 30.4249 29.6671 30.7943 29.328 31.0913C28.5108 31.7351 27.4852 32.0557 26.4468 31.992H20.2188V20.4878H25.9811C27.0192 20.427 28.0437 20.7473 28.8623 21.3885C29.2014 21.6855 29.4695 22.0549 29.6466 22.4695C29.8238 22.884 29.9055 23.3331 29.8858 23.7835C29.9107 24.2304 29.8252 24.6766 29.6369 25.0827C29.4486 25.4887 29.1632 25.8422 28.806 26.112" fill="#0000BE"/>
<g id="Sign">
<path id="Vector_6" d="M6.75494 0.0510254C4.96513 0.0523808 3.24903 0.763978 1.98344 2.02957C0.717851 3.29515 0.00623822 5.01128 0.00488281 6.80109V19.7178C0.00488281 19.7178 10.3014 12.7937 11.5194 11.5706C12.4642 10.6279 13.1081 9.42609 13.3696 8.11726C13.631 6.80842 13.4983 5.45145 12.9882 4.21808C12.4781 2.98472 11.6135 1.93043 10.5039 1.18865C9.39434 0.446868 8.08963 0.0509569 6.75494 0.0510254Z" fill="#EB008C"/>
<path id="Vector_7" d="M13.5001 25.2447C13.5011 26.5802 13.106 27.8859 12.3647 28.9968C11.6233 30.1076 10.5692 30.9735 9.33556 31.4851C8.10194 31.9966 6.7443 32.1307 5.43444 31.8704C4.12458 31.6101 2.92136 30.9671 1.97704 30.0228C1.03272 29.0785 0.389743 27.8753 0.129454 26.5654C-0.130836 25.2556 0.0032709 23.8979 0.514801 22.6643C1.02633 21.4307 1.89229 20.3765 3.00311 19.6352C4.11394 18.8939 5.4197 18.4987 6.75517 18.4998C8.54362 18.5011 10.2584 19.2122 11.5231 20.4768C12.7877 21.7414 13.4988 23.4562 13.5001 25.2447Z" fill="#0000BE"/>
</g>
</g>
</svg>
