<svg width="16" height="16" viewBox="0 0 16 16" fill="none" xmlns="http://www.w3.org/2000/svg">
<g id="Pack 1">
<path id="Vector (Stroke)" fill-rule="evenodd" clip-rule="evenodd" d="M7.99218 1.42188H8.00069C8.96033 1.42188 9.88297 1.79712 10.565 2.46869C11.2475 3.14064 11.633 4.0545 11.633 5.00989V6.7127C11.633 7.64095 11.2689 8.5312 10.6202 9.19823C9.97183 9.86492 9.08944 10.2573 8.15783 10.2972L8.15032 10.2975L8.0092 10.3007H8.00069C7.04105 10.3007 6.11841 9.92547 5.43635 9.2539C4.75389 8.58195 4.36833 7.66808 4.36833 6.7127V5.00989C4.36838 4.08164 4.73248 3.19139 5.38119 2.52435C6.02955 1.85767 6.91193 1.46525 7.84354 1.4254L7.85106 1.42508L7.99218 1.42188ZM8.00857 2.92189L7.90068 2.92434C7.35076 2.94962 6.83397 3.18201 6.45652 3.57014C6.07783 3.95953 5.86837 4.47548 5.86833 5.00989C5.86833 5.00988 5.86833 5.0099 5.86833 5.00989V6.7127C5.86833 7.26269 6.09012 7.79255 6.48875 8.18505C6.88595 8.57613 7.42642 8.79865 7.99281 8.8007L8.10069 8.79825C8.65061 8.77297 9.1674 8.54057 9.54486 8.15245C9.92355 7.76306 10.133 7.2471 10.133 6.7127C10.133 6.71268 10.133 6.71271 10.133 6.7127V5.00989C10.133 4.4599 9.91126 3.93004 9.51262 3.53754C9.11543 3.14646 8.57496 2.92393 8.00857 2.92189ZM4.78126 13.0722C3.97149 13.5277 3.67773 14.0396 3.67773 14.4363H2.17773C2.17773 13.257 3.0196 12.3422 4.04587 11.7649C5.09566 11.1744 6.49542 10.8328 8.00069 10.8328C9.50596 10.8328 10.9057 11.1744 11.9555 11.7649C12.9818 12.3422 13.8236 13.257 13.8236 14.4363H12.3236C12.3236 14.0396 12.0299 13.5277 11.2201 13.0722C10.4338 12.63 9.29713 12.3328 8.00069 12.3328C6.70424 12.3328 5.56753 12.63 4.78126 13.0722Z" fill="#184BFF"/>
</g>
</svg>
