<svg width="12" height="12" viewBox="0 0 12 12" fill="none" xmlns="http://www.w3.org/2000/svg">
    <g id="Pack 1" clip-path="url(#clip0_517_1634)">
        <path id="Vector (Stroke)" fill-rule="evenodd" clip-rule="evenodd"
              d="M6.00003 1.72168C3.63723 1.72168 1.7218 3.63711 1.7218 5.9999C1.7218 8.3627 3.63723 10.2781 6.00003 10.2781C8.36282 10.2781 10.2782 8.3627 10.2782 5.9999C10.2782 3.63711 8.36282 1.72168 6.00003 1.72168ZM0.596802 5.9999C0.596802 3.01579 3.01591 0.59668 6.00003 0.59668C8.98414 0.59668 11.4032 3.01579 11.4032 5.9999C11.4032 8.98402 8.98414 11.4031 6.00003 11.4031C3.01591 11.4031 0.596802 8.98402 0.596802 5.9999ZM6.56258 3.40181V4.36994H5.43758V3.40181H6.56258ZM5.43758 8.5981V5.01536H6.56258V8.5981H5.43758Z"
              fill="#122B3D"/>
    </g>
    <defs>
        <clipPath id="clip0_517_1634">
            <rect width="12" height="12" fill="white"/>
        </clipPath>
    </defs>
</svg>
