<svg width="11" height="3" viewBox="0 0 11 3" fill="none" xmlns="http://www.w3.org/2000/svg">
    <path d="M0.65625 1.30469C0.65625 1.0599 0.731771 0.854167 0.882812 0.6875C1.03385 0.515625 1.25521 0.429688 1.54688 0.429688C1.83854 0.429688 2.0599 0.515625 2.21094 0.6875C2.36719 0.854167 2.44531 1.0599 2.44531 1.30469C2.44531 1.54427 2.36719 1.7474 2.21094 1.91406C2.0599 2.07552 1.83854 2.15625 1.54688 2.15625C1.25521 2.15625 1.03385 2.07552 0.882812 1.91406C0.731771 1.7474 0.65625 1.54427 0.65625 1.30469ZM4.68375 1.30469C4.68375 1.0599 4.75927 0.854167 4.91031 0.6875C5.06135 0.515625 5.28271 0.429688 5.57438 0.429688C5.86604 0.429688 6.0874 0.515625 6.23844 0.6875C6.39469 0.854167 6.47281 1.0599 6.47281 1.30469C6.47281 1.54427 6.39469 1.7474 6.23844 1.91406C6.0874 2.07552 5.86604 2.15625 5.57438 2.15625C5.28271 2.15625 5.06135 2.07552 4.91031 1.91406C4.75927 1.7474 4.68375 1.54427 4.68375 1.30469ZM8.71125 1.30469C8.71125 1.0599 8.78677 0.854167 8.93781 0.6875C9.08885 0.515625 9.31021 0.429688 9.60188 0.429688C9.89354 0.429688 10.1149 0.515625 10.2659 0.6875C10.4222 0.854167 10.5003 1.0599 10.5003 1.30469C10.5003 1.54427 10.4222 1.7474 10.2659 1.91406C10.1149 2.07552 9.89354 2.15625 9.60188 2.15625C9.31021 2.15625 9.08885 2.07552 8.93781 1.91406C8.78677 1.7474 8.71125 1.54427 8.71125 1.30469Z"
          fill="black"/>
</svg>
